G04 #@! TF.GenerationSoftware,KiCad,Pcbnew,(5.1.6-0-10_14)*
G04 #@! TF.CreationDate,2020-11-10T23:15:50+01:00*
G04 #@! TF.ProjectId,Headphone Board,48656164-7068-46f6-9e65-20426f617264,rev?*
G04 #@! TF.SameCoordinates,Original*
G04 #@! TF.FileFunction,Copper,L2,Bot*
G04 #@! TF.FilePolarity,Positive*
%FSLAX46Y46*%
G04 Gerber Fmt 4.6, Leading zero omitted, Abs format (unit mm)*
G04 Created by KiCad (PCBNEW (5.1.6-0-10_14)) date 2020-11-10 23:15:50*
%MOMM*%
%LPD*%
G01*
G04 APERTURE LIST*
G04 #@! TA.AperFunction,ComponentPad*
%ADD10O,2.600000X2.000000*%
G04 #@! TD*
G04 #@! TA.AperFunction,ComponentPad*
%ADD11R,2.600000X2.000000*%
G04 #@! TD*
G04 #@! TA.AperFunction,ComponentPad*
%ADD12C,3.000000*%
G04 #@! TD*
G04 #@! TA.AperFunction,ViaPad*
%ADD13C,3.000000*%
G04 #@! TD*
G04 #@! TA.AperFunction,ViaPad*
%ADD14C,2.000000*%
G04 #@! TD*
G04 #@! TA.AperFunction,Conductor*
%ADD15C,0.635000*%
G04 #@! TD*
G04 APERTURE END LIST*
D10*
X196850000Y-85725000D03*
X196850000Y-88265000D03*
D11*
X196850000Y-90805000D03*
D10*
X118110000Y-85725000D03*
X118110000Y-88265000D03*
D11*
X118110000Y-90805000D03*
D12*
X107558840Y-87825580D03*
X96131380Y-87825580D03*
X107558840Y-94175580D03*
X96131380Y-94175580D03*
X107558840Y-81475580D03*
X96131380Y-81475580D03*
D13*
X105427780Y-84625180D03*
D14*
X96131380Y-90975180D03*
X107558840Y-90975180D03*
D12*
X185663840Y-87825580D03*
X174236380Y-87825580D03*
X185663840Y-94175580D03*
X174236380Y-94175580D03*
X185663840Y-81475580D03*
X174236380Y-81475580D03*
D13*
X183532780Y-84625180D03*
D14*
X174236380Y-90975180D03*
X185663840Y-90975180D03*
D15*
X133154420Y-87825580D02*
X123825000Y-97155000D01*
X123825000Y-97155000D02*
X106045000Y-97155000D01*
X104140000Y-95250000D02*
X104140000Y-91244420D01*
X174236380Y-87825580D02*
X133154420Y-87825580D01*
X106045000Y-97155000D02*
X104140000Y-95250000D01*
X104140000Y-91244420D02*
X107558840Y-87825580D01*
X118110000Y-88265000D02*
X127000000Y-88265000D01*
X127000000Y-88265000D02*
X133789420Y-81475580D01*
X172115060Y-81475580D02*
X174236380Y-81475580D01*
X133789420Y-81475580D02*
X172115060Y-81475580D01*
X196850000Y-85725000D02*
X187764420Y-85725000D01*
X187764420Y-85725000D02*
X185663840Y-87825580D01*
X96131380Y-81475580D02*
X100136960Y-77470000D01*
X100136960Y-77470000D02*
X181658260Y-77470000D01*
X181658260Y-77470000D02*
X184539891Y-80351631D01*
X184539891Y-80351631D02*
X185663840Y-81475580D01*
X196850000Y-90805000D02*
X189034420Y-90805000D01*
X189034420Y-90805000D02*
X185663840Y-94175580D01*
X96131380Y-87825580D02*
X93345000Y-85039200D01*
X93345000Y-85039200D02*
X93345000Y-80010000D01*
X97790000Y-75565000D02*
X195580000Y-75565000D01*
X93345000Y-80010000D02*
X97790000Y-75565000D01*
X195580000Y-75565000D02*
X200025000Y-80010000D01*
X200025000Y-80010000D02*
X200025000Y-86995000D01*
X200025000Y-86995000D02*
X198755000Y-88265000D01*
X198755000Y-88265000D02*
X196850000Y-88265000D01*
X107558840Y-81475580D02*
X115324180Y-81475580D01*
X115324180Y-81475580D02*
X118110000Y-84261400D01*
X118110000Y-84261400D02*
X118110000Y-85725000D01*
X107558840Y-94175580D02*
X116203020Y-94175580D01*
X116203020Y-94175580D02*
X118110000Y-92268600D01*
X118110000Y-92268600D02*
X118110000Y-90805000D01*
M02*
