M48
; DRILL file {KiCad (5.1.6-0-10_14)} date Tuesday, November 10, 2020 at 11:16:02 PM
; FORMAT={-:-/ absolute / inch / decimal}
; #@! TF.CreationDate,2020-11-10T23:16:02+01:00
; #@! TF.GenerationSoftware,Kicad,Pcbnew,(5.1.6-0-10_14)
; #@! TF.FileFunction,Plated,1,2,PTH
FMAT,2
INCH
T1C0.0472
T2C0.0590
T3C0.0787
T4C0.1181
%
G90
G05
T1
X4.65Y-3.375
X4.65Y-3.475
X4.65Y-3.575
X7.75Y-3.375
X7.75Y-3.475
X7.75Y-3.575
T2
X3.7847Y-3.2077
X3.7847Y-3.4577
X3.7847Y-3.7077
X4.2346Y-3.2077
X4.2346Y-3.4577
X4.2346Y-3.7077
X6.8597Y-3.2077
X6.8597Y-3.4577
X6.8597Y-3.7077
X7.3096Y-3.2077
X7.3096Y-3.4577
X7.3096Y-3.7077
T3
X3.7847Y-3.5817
X4.2346Y-3.5817
X6.8597Y-3.5817
X7.3096Y-3.5817
T4
X4.1507Y-3.3317
X7.2257Y-3.3317
T0
M30
