M48
;DRILL file {KiCad 4.0.1-stable} date Sonntag, 21. Februar 2016 23:38:19
;FORMAT={-:-/ absolute / metric / decimal}
FMAT,2
METRIC,TZ
T1C0.800
T2C2.901
%
G90
G05
M71
T1
X55.88Y-51.435
X55.88Y-53.975
X55.88Y-56.515
X55.88Y-59.055
X55.88Y-61.595
X55.88Y-64.135
X55.88Y-66.675
X55.88Y-69.215
X55.88Y-71.755
X55.88Y-74.295
X55.88Y-76.835
X55.88Y-79.375
X55.88Y-81.915
X55.88Y-84.455
X55.88Y-86.995
X55.88Y-89.535
X55.88Y-92.075
X55.88Y-94.615
X55.88Y-97.155
X55.88Y-99.695
X55.88Y-102.235
X55.88Y-104.775
X55.88Y-107.315
X55.88Y-109.855
X55.88Y-112.395
X55.88Y-114.935
X55.88Y-117.475
X55.88Y-120.015
X55.88Y-122.555
X55.88Y-125.095
X55.88Y-127.635
X55.88Y-130.175
X58.42Y-51.435
X58.42Y-53.975
X58.42Y-56.515
X58.42Y-59.055
X58.42Y-61.595
X58.42Y-64.135
X58.42Y-66.675
X58.42Y-69.215
X58.42Y-71.755
X58.42Y-74.295
X58.42Y-76.835
X58.42Y-79.375
X58.42Y-81.915
X58.42Y-84.455
X58.42Y-86.995
X58.42Y-89.535
X58.42Y-92.075
X58.42Y-94.615
X58.42Y-97.155
X58.42Y-99.695
X58.42Y-102.235
X58.42Y-104.775
X58.42Y-107.315
X58.42Y-109.855
X58.42Y-112.395
X58.42Y-114.935
X58.42Y-117.475
X58.42Y-120.015
X58.42Y-122.555
X58.42Y-125.095
X58.42Y-127.635
X58.42Y-130.175
X243.205Y-51.435
X243.205Y-53.975
X243.205Y-56.515
X243.205Y-59.055
X243.205Y-61.595
X243.205Y-64.135
X243.205Y-66.675
X243.205Y-69.215
X243.205Y-71.755
X243.205Y-74.295
X243.205Y-76.835
X243.205Y-79.375
X243.205Y-81.915
X243.205Y-84.455
X243.205Y-86.995
X243.205Y-89.535
X243.205Y-92.075
X243.205Y-94.615
X243.205Y-97.155
X243.205Y-99.695
X243.205Y-102.235
X243.205Y-104.775
X243.205Y-107.315
X243.205Y-109.855
X243.205Y-112.395
X243.205Y-114.935
X243.205Y-117.475
X243.205Y-120.015
X243.205Y-122.555
X243.205Y-125.095
X243.205Y-127.635
X243.205Y-130.175
X245.745Y-51.435
X245.745Y-53.975
X245.745Y-56.515
X245.745Y-59.055
X245.745Y-61.595
X245.745Y-64.135
X245.745Y-66.675
X245.745Y-69.215
X245.745Y-71.755
X245.745Y-74.295
X245.745Y-76.835
X245.745Y-79.375
X245.745Y-81.915
X245.745Y-84.455
X245.745Y-86.995
X245.745Y-89.535
X245.745Y-92.075
X245.745Y-94.615
X245.745Y-97.155
X245.745Y-99.695
X245.745Y-102.235
X245.745Y-104.775
X245.745Y-107.315
X245.745Y-109.855
X245.745Y-112.395
X245.745Y-114.935
X245.745Y-117.475
X245.745Y-120.015
X245.745Y-122.555
X245.745Y-125.095
X245.745Y-127.635
X245.745Y-130.175
T2
X53.34Y-46.355
X53.34Y-135.255
X248.285Y-46.355
X248.285Y-135.255
T0
M30
