G04 #@! TF.GenerationSoftware,KiCad,Pcbnew,(5.1.6-0-10_14)*
G04 #@! TF.CreationDate,2020-11-10T23:17:56+01:00*
G04 #@! TF.ProjectId,Switch Board,53776974-6368-4204-926f-6172642e6b69,1.0*
G04 #@! TF.SameCoordinates,Original*
G04 #@! TF.FileFunction,Soldermask,Top*
G04 #@! TF.FilePolarity,Negative*
%FSLAX46Y46*%
G04 Gerber Fmt 4.6, Leading zero omitted, Abs format (unit mm)*
G04 Created by KiCad (PCBNEW (5.1.6-0-10_14)) date 2020-11-10 23:17:56*
%MOMM*%
%LPD*%
G01*
G04 APERTURE LIST*
%ADD10C,0.100000*%
G04 APERTURE END LIST*
D10*
G36*
X182475000Y-111690000D02*
G01*
X181812686Y-111690000D01*
X181788300Y-111692402D01*
X181764851Y-111699515D01*
X181743240Y-111711066D01*
X181724298Y-111726611D01*
X181708753Y-111745553D01*
X181697202Y-111767164D01*
X181690089Y-111790613D01*
X181687687Y-111814999D01*
X181690089Y-111839385D01*
X181697202Y-111862834D01*
X181708753Y-111884445D01*
X181724298Y-111903387D01*
X181743240Y-111918932D01*
X181753762Y-111925238D01*
X181944910Y-112027408D01*
X182127634Y-112177366D01*
X182277592Y-112360090D01*
X182389018Y-112568555D01*
X182389019Y-112568558D01*
X182457637Y-112794759D01*
X182480806Y-113030000D01*
X182457637Y-113265241D01*
X182389019Y-113491442D01*
X182389018Y-113491445D01*
X182277592Y-113699910D01*
X182127634Y-113882634D01*
X181944910Y-114032592D01*
X181736445Y-114144018D01*
X181736442Y-114144019D01*
X181616563Y-114180384D01*
X181593927Y-114189761D01*
X181573552Y-114203374D01*
X181556225Y-114220701D01*
X181542612Y-114241076D01*
X181533234Y-114263715D01*
X181528454Y-114287748D01*
X181528454Y-114312252D01*
X181533234Y-114336285D01*
X181542612Y-114358924D01*
X181556225Y-114379299D01*
X181573552Y-114396626D01*
X181593927Y-114410239D01*
X181616563Y-114419616D01*
X181736442Y-114455981D01*
X181736445Y-114455982D01*
X181944910Y-114567408D01*
X182127634Y-114717366D01*
X182277592Y-114900090D01*
X182389018Y-115108555D01*
X182389019Y-115108558D01*
X182457637Y-115334759D01*
X182480806Y-115570000D01*
X182457637Y-115805241D01*
X182398926Y-115998782D01*
X182389018Y-116031445D01*
X182277592Y-116239910D01*
X182127634Y-116422634D01*
X181944910Y-116572592D01*
X181736445Y-116684018D01*
X181736442Y-116684019D01*
X181616563Y-116720384D01*
X181593927Y-116729761D01*
X181573552Y-116743374D01*
X181556225Y-116760701D01*
X181542612Y-116781076D01*
X181533234Y-116803715D01*
X181528454Y-116827748D01*
X181528454Y-116852252D01*
X181533234Y-116876285D01*
X181542612Y-116898924D01*
X181556225Y-116919299D01*
X181573552Y-116936626D01*
X181593927Y-116950239D01*
X181616563Y-116959616D01*
X181736442Y-116995981D01*
X181736445Y-116995982D01*
X181944910Y-117107408D01*
X182127634Y-117257366D01*
X182277592Y-117440090D01*
X182389018Y-117648555D01*
X182389019Y-117648558D01*
X182457637Y-117874759D01*
X182480806Y-118110000D01*
X182457637Y-118345241D01*
X182391064Y-118564699D01*
X182389018Y-118571445D01*
X182277592Y-118779910D01*
X182127634Y-118962634D01*
X181944910Y-119112592D01*
X181736445Y-119224018D01*
X181736442Y-119224019D01*
X181616563Y-119260384D01*
X181593927Y-119269761D01*
X181573552Y-119283374D01*
X181556225Y-119300701D01*
X181542612Y-119321076D01*
X181533234Y-119343715D01*
X181528454Y-119367748D01*
X181528454Y-119392252D01*
X181533234Y-119416285D01*
X181542612Y-119438924D01*
X181556225Y-119459299D01*
X181573552Y-119476626D01*
X181593927Y-119490239D01*
X181616563Y-119499616D01*
X181736442Y-119535981D01*
X181736445Y-119535982D01*
X181944910Y-119647408D01*
X182127634Y-119797366D01*
X182277592Y-119980090D01*
X182389018Y-120188555D01*
X182389019Y-120188558D01*
X182457637Y-120414759D01*
X182480806Y-120650000D01*
X182457637Y-120885241D01*
X182389019Y-121111442D01*
X182389018Y-121111445D01*
X182277592Y-121319910D01*
X182127634Y-121502634D01*
X181944910Y-121652592D01*
X181736445Y-121764018D01*
X181736442Y-121764019D01*
X181616563Y-121800384D01*
X181593927Y-121809761D01*
X181573552Y-121823374D01*
X181556225Y-121840701D01*
X181542612Y-121861076D01*
X181533234Y-121883715D01*
X181528454Y-121907748D01*
X181528454Y-121932252D01*
X181533234Y-121956285D01*
X181542612Y-121978924D01*
X181556225Y-121999299D01*
X181573552Y-122016626D01*
X181593927Y-122030239D01*
X181616563Y-122039616D01*
X181736442Y-122075981D01*
X181736445Y-122075982D01*
X181944910Y-122187408D01*
X182127634Y-122337366D01*
X182277592Y-122520090D01*
X182389018Y-122728555D01*
X182389019Y-122728558D01*
X182457637Y-122954759D01*
X182480806Y-123190000D01*
X182457637Y-123425241D01*
X182389019Y-123651442D01*
X182389018Y-123651445D01*
X182277592Y-123859910D01*
X182127634Y-124042634D01*
X181944910Y-124192592D01*
X181736445Y-124304018D01*
X181736442Y-124304019D01*
X181510241Y-124372637D01*
X181392714Y-124384212D01*
X181333951Y-124390000D01*
X180616049Y-124390000D01*
X180557286Y-124384212D01*
X180439759Y-124372637D01*
X180213558Y-124304019D01*
X180213555Y-124304018D01*
X180005090Y-124192592D01*
X179822366Y-124042634D01*
X179672408Y-123859910D01*
X179560982Y-123651445D01*
X179560981Y-123651442D01*
X179492363Y-123425241D01*
X179469194Y-123190000D01*
X179492363Y-122954759D01*
X179560981Y-122728558D01*
X179560982Y-122728555D01*
X179672408Y-122520090D01*
X179822366Y-122337366D01*
X180005090Y-122187408D01*
X180213555Y-122075982D01*
X180213558Y-122075981D01*
X180333437Y-122039616D01*
X180356073Y-122030239D01*
X180376448Y-122016626D01*
X180393775Y-121999299D01*
X180407388Y-121978924D01*
X180416766Y-121956285D01*
X180421546Y-121932252D01*
X180421546Y-121907748D01*
X180416766Y-121883715D01*
X180407388Y-121861076D01*
X180393775Y-121840701D01*
X180376448Y-121823374D01*
X180356073Y-121809761D01*
X180333437Y-121800384D01*
X180213558Y-121764019D01*
X180213555Y-121764018D01*
X180005090Y-121652592D01*
X179822366Y-121502634D01*
X179672408Y-121319910D01*
X179560982Y-121111445D01*
X179560981Y-121111442D01*
X179492363Y-120885241D01*
X179469194Y-120650000D01*
X179492363Y-120414759D01*
X179560981Y-120188558D01*
X179560982Y-120188555D01*
X179672408Y-119980090D01*
X179822366Y-119797366D01*
X180005090Y-119647408D01*
X180213555Y-119535982D01*
X180213558Y-119535981D01*
X180333437Y-119499616D01*
X180356073Y-119490239D01*
X180376448Y-119476626D01*
X180393775Y-119459299D01*
X180407388Y-119438924D01*
X180416766Y-119416285D01*
X180421546Y-119392252D01*
X180421546Y-119367748D01*
X180416766Y-119343715D01*
X180407388Y-119321076D01*
X180393775Y-119300701D01*
X180376448Y-119283374D01*
X180356073Y-119269761D01*
X180333437Y-119260384D01*
X180213558Y-119224019D01*
X180213555Y-119224018D01*
X180005090Y-119112592D01*
X179822366Y-118962634D01*
X179672408Y-118779910D01*
X179560982Y-118571445D01*
X179558936Y-118564699D01*
X179492363Y-118345241D01*
X179469194Y-118110000D01*
X179492363Y-117874759D01*
X179560981Y-117648558D01*
X179560982Y-117648555D01*
X179672408Y-117440090D01*
X179822366Y-117257366D01*
X180005090Y-117107408D01*
X180213555Y-116995982D01*
X180213558Y-116995981D01*
X180333437Y-116959616D01*
X180356073Y-116950239D01*
X180376448Y-116936626D01*
X180393775Y-116919299D01*
X180407388Y-116898924D01*
X180416766Y-116876285D01*
X180421546Y-116852252D01*
X180421546Y-116827748D01*
X180416766Y-116803715D01*
X180407388Y-116781076D01*
X180393775Y-116760701D01*
X180376448Y-116743374D01*
X180356073Y-116729761D01*
X180333437Y-116720384D01*
X180213558Y-116684019D01*
X180213555Y-116684018D01*
X180005090Y-116572592D01*
X179822366Y-116422634D01*
X179672408Y-116239910D01*
X179560982Y-116031445D01*
X179551074Y-115998782D01*
X179492363Y-115805241D01*
X179469194Y-115570000D01*
X179492363Y-115334759D01*
X179560981Y-115108558D01*
X179560982Y-115108555D01*
X179672408Y-114900090D01*
X179822366Y-114717366D01*
X180005090Y-114567408D01*
X180213555Y-114455982D01*
X180213558Y-114455981D01*
X180333437Y-114419616D01*
X180356073Y-114410239D01*
X180376448Y-114396626D01*
X180393775Y-114379299D01*
X180407388Y-114358924D01*
X180416766Y-114336285D01*
X180421546Y-114312252D01*
X180421546Y-114287748D01*
X180416766Y-114263715D01*
X180407388Y-114241076D01*
X180393775Y-114220701D01*
X180376448Y-114203374D01*
X180356073Y-114189761D01*
X180333437Y-114180384D01*
X180213558Y-114144019D01*
X180213555Y-114144018D01*
X180005090Y-114032592D01*
X179822366Y-113882634D01*
X179672408Y-113699910D01*
X179560982Y-113491445D01*
X179560981Y-113491442D01*
X179492363Y-113265241D01*
X179469194Y-113030000D01*
X179492363Y-112794759D01*
X179560981Y-112568558D01*
X179560982Y-112568555D01*
X179672408Y-112360090D01*
X179822366Y-112177366D01*
X180005090Y-112027408D01*
X180196238Y-111925238D01*
X180216612Y-111911625D01*
X180233939Y-111894298D01*
X180247553Y-111873923D01*
X180256931Y-111851285D01*
X180261711Y-111827251D01*
X180261711Y-111802747D01*
X180256931Y-111778714D01*
X180247553Y-111756075D01*
X180233940Y-111735701D01*
X180216613Y-111718374D01*
X180196238Y-111704760D01*
X180173600Y-111695382D01*
X180149566Y-111690602D01*
X180137314Y-111690000D01*
X179475000Y-111690000D01*
X179475000Y-109290000D01*
X182475000Y-109290000D01*
X182475000Y-111690000D01*
G37*
G36*
X136307714Y-109295788D02*
G01*
X136425241Y-109307363D01*
X136651442Y-109375981D01*
X136651445Y-109375982D01*
X136859910Y-109487408D01*
X137042634Y-109637366D01*
X137192592Y-109820090D01*
X137304018Y-110028555D01*
X137304019Y-110028558D01*
X137372637Y-110254759D01*
X137395806Y-110490000D01*
X137372637Y-110725241D01*
X137304019Y-110951442D01*
X137304018Y-110951445D01*
X137192592Y-111159910D01*
X137042634Y-111342634D01*
X136859910Y-111492592D01*
X136651445Y-111604018D01*
X136651442Y-111604019D01*
X136531563Y-111640384D01*
X136508927Y-111649761D01*
X136488552Y-111663374D01*
X136471225Y-111680701D01*
X136457612Y-111701076D01*
X136448234Y-111723715D01*
X136443454Y-111747748D01*
X136443454Y-111772252D01*
X136448234Y-111796285D01*
X136457612Y-111818924D01*
X136471225Y-111839299D01*
X136488552Y-111856626D01*
X136508927Y-111870239D01*
X136531563Y-111879616D01*
X136637082Y-111911625D01*
X136651445Y-111915982D01*
X136859910Y-112027408D01*
X137042634Y-112177366D01*
X137192592Y-112360090D01*
X137304018Y-112568555D01*
X137304019Y-112568558D01*
X137372637Y-112794759D01*
X137395806Y-113030000D01*
X137372637Y-113265241D01*
X137304019Y-113491442D01*
X137304018Y-113491445D01*
X137192592Y-113699910D01*
X137042634Y-113882634D01*
X136859910Y-114032592D01*
X136651445Y-114144018D01*
X136651442Y-114144019D01*
X136531563Y-114180384D01*
X136508927Y-114189761D01*
X136488552Y-114203374D01*
X136471225Y-114220701D01*
X136457612Y-114241076D01*
X136448234Y-114263715D01*
X136443454Y-114287748D01*
X136443454Y-114312252D01*
X136448234Y-114336285D01*
X136457612Y-114358924D01*
X136471225Y-114379299D01*
X136488552Y-114396626D01*
X136508927Y-114410239D01*
X136531563Y-114419616D01*
X136651442Y-114455981D01*
X136651445Y-114455982D01*
X136859910Y-114567408D01*
X137042634Y-114717366D01*
X137192592Y-114900090D01*
X137304018Y-115108555D01*
X137304019Y-115108558D01*
X137372637Y-115334759D01*
X137395806Y-115570000D01*
X137372637Y-115805241D01*
X137313926Y-115998782D01*
X137304018Y-116031445D01*
X137192592Y-116239910D01*
X137042634Y-116422634D01*
X136859910Y-116572592D01*
X136651445Y-116684018D01*
X136651442Y-116684019D01*
X136531563Y-116720384D01*
X136508927Y-116729761D01*
X136488552Y-116743374D01*
X136471225Y-116760701D01*
X136457612Y-116781076D01*
X136448234Y-116803715D01*
X136443454Y-116827748D01*
X136443454Y-116852252D01*
X136448234Y-116876285D01*
X136457612Y-116898924D01*
X136471225Y-116919299D01*
X136488552Y-116936626D01*
X136508927Y-116950239D01*
X136531563Y-116959616D01*
X136651442Y-116995981D01*
X136651445Y-116995982D01*
X136859910Y-117107408D01*
X137042634Y-117257366D01*
X137192592Y-117440090D01*
X137304018Y-117648555D01*
X137304019Y-117648558D01*
X137372637Y-117874759D01*
X137395806Y-118110000D01*
X137372637Y-118345241D01*
X137306064Y-118564699D01*
X137304018Y-118571445D01*
X137192592Y-118779910D01*
X137042634Y-118962634D01*
X136859910Y-119112592D01*
X136651445Y-119224018D01*
X136651442Y-119224019D01*
X136531563Y-119260384D01*
X136508927Y-119269761D01*
X136488552Y-119283374D01*
X136471225Y-119300701D01*
X136457612Y-119321076D01*
X136448234Y-119343715D01*
X136443454Y-119367748D01*
X136443454Y-119392252D01*
X136448234Y-119416285D01*
X136457612Y-119438924D01*
X136471225Y-119459299D01*
X136488552Y-119476626D01*
X136508927Y-119490239D01*
X136531563Y-119499616D01*
X136651442Y-119535981D01*
X136651445Y-119535982D01*
X136859910Y-119647408D01*
X137042634Y-119797366D01*
X137192592Y-119980090D01*
X137304018Y-120188555D01*
X137304019Y-120188558D01*
X137372637Y-120414759D01*
X137395806Y-120650000D01*
X137372637Y-120885241D01*
X137304019Y-121111442D01*
X137304018Y-121111445D01*
X137192592Y-121319910D01*
X137042634Y-121502634D01*
X136859910Y-121652592D01*
X136668762Y-121754762D01*
X136648388Y-121768375D01*
X136631061Y-121785702D01*
X136617447Y-121806077D01*
X136608069Y-121828715D01*
X136603289Y-121852749D01*
X136603289Y-121877253D01*
X136608069Y-121901286D01*
X136617447Y-121923925D01*
X136631060Y-121944299D01*
X136648387Y-121961626D01*
X136668762Y-121975240D01*
X136691400Y-121984618D01*
X136715434Y-121989398D01*
X136727686Y-121990000D01*
X137390000Y-121990000D01*
X137390000Y-124390000D01*
X134390000Y-124390000D01*
X134390000Y-121990000D01*
X135052314Y-121990000D01*
X135076700Y-121987598D01*
X135100149Y-121980485D01*
X135121760Y-121968934D01*
X135140702Y-121953389D01*
X135156247Y-121934447D01*
X135167798Y-121912836D01*
X135174911Y-121889387D01*
X135177313Y-121865001D01*
X135174911Y-121840615D01*
X135167798Y-121817166D01*
X135156247Y-121795555D01*
X135140702Y-121776613D01*
X135121760Y-121761068D01*
X135111238Y-121754762D01*
X134920090Y-121652592D01*
X134737366Y-121502634D01*
X134587408Y-121319910D01*
X134475982Y-121111445D01*
X134475981Y-121111442D01*
X134407363Y-120885241D01*
X134384194Y-120650000D01*
X134407363Y-120414759D01*
X134475981Y-120188558D01*
X134475982Y-120188555D01*
X134587408Y-119980090D01*
X134737366Y-119797366D01*
X134920090Y-119647408D01*
X135128555Y-119535982D01*
X135128558Y-119535981D01*
X135248437Y-119499616D01*
X135271073Y-119490239D01*
X135291448Y-119476626D01*
X135308775Y-119459299D01*
X135322388Y-119438924D01*
X135331766Y-119416285D01*
X135336546Y-119392252D01*
X135336546Y-119367748D01*
X135331766Y-119343715D01*
X135322388Y-119321076D01*
X135308775Y-119300701D01*
X135291448Y-119283374D01*
X135271073Y-119269761D01*
X135248437Y-119260384D01*
X135128558Y-119224019D01*
X135128555Y-119224018D01*
X134920090Y-119112592D01*
X134737366Y-118962634D01*
X134587408Y-118779910D01*
X134475982Y-118571445D01*
X134473936Y-118564699D01*
X134407363Y-118345241D01*
X134384194Y-118110000D01*
X134407363Y-117874759D01*
X134475981Y-117648558D01*
X134475982Y-117648555D01*
X134587408Y-117440090D01*
X134737366Y-117257366D01*
X134920090Y-117107408D01*
X135128555Y-116995982D01*
X135128558Y-116995981D01*
X135248437Y-116959616D01*
X135271073Y-116950239D01*
X135291448Y-116936626D01*
X135308775Y-116919299D01*
X135322388Y-116898924D01*
X135331766Y-116876285D01*
X135336546Y-116852252D01*
X135336546Y-116827748D01*
X135331766Y-116803715D01*
X135322388Y-116781076D01*
X135308775Y-116760701D01*
X135291448Y-116743374D01*
X135271073Y-116729761D01*
X135248437Y-116720384D01*
X135128558Y-116684019D01*
X135128555Y-116684018D01*
X134920090Y-116572592D01*
X134737366Y-116422634D01*
X134587408Y-116239910D01*
X134475982Y-116031445D01*
X134466074Y-115998782D01*
X134407363Y-115805241D01*
X134384194Y-115570000D01*
X134407363Y-115334759D01*
X134475981Y-115108558D01*
X134475982Y-115108555D01*
X134587408Y-114900090D01*
X134737366Y-114717366D01*
X134920090Y-114567408D01*
X135128555Y-114455982D01*
X135128558Y-114455981D01*
X135248437Y-114419616D01*
X135271073Y-114410239D01*
X135291448Y-114396626D01*
X135308775Y-114379299D01*
X135322388Y-114358924D01*
X135331766Y-114336285D01*
X135336546Y-114312252D01*
X135336546Y-114287748D01*
X135331766Y-114263715D01*
X135322388Y-114241076D01*
X135308775Y-114220701D01*
X135291448Y-114203374D01*
X135271073Y-114189761D01*
X135248437Y-114180384D01*
X135128558Y-114144019D01*
X135128555Y-114144018D01*
X134920090Y-114032592D01*
X134737366Y-113882634D01*
X134587408Y-113699910D01*
X134475982Y-113491445D01*
X134475981Y-113491442D01*
X134407363Y-113265241D01*
X134384194Y-113030000D01*
X134407363Y-112794759D01*
X134475981Y-112568558D01*
X134475982Y-112568555D01*
X134587408Y-112360090D01*
X134737366Y-112177366D01*
X134920090Y-112027408D01*
X135128555Y-111915982D01*
X135142918Y-111911625D01*
X135248437Y-111879616D01*
X135271073Y-111870239D01*
X135291448Y-111856626D01*
X135308775Y-111839299D01*
X135322388Y-111818924D01*
X135331766Y-111796285D01*
X135336546Y-111772252D01*
X135336546Y-111747748D01*
X135331766Y-111723715D01*
X135322388Y-111701076D01*
X135308775Y-111680701D01*
X135291448Y-111663374D01*
X135271073Y-111649761D01*
X135248437Y-111640384D01*
X135128558Y-111604019D01*
X135128555Y-111604018D01*
X134920090Y-111492592D01*
X134737366Y-111342634D01*
X134587408Y-111159910D01*
X134475982Y-110951445D01*
X134475981Y-110951442D01*
X134407363Y-110725241D01*
X134384194Y-110490000D01*
X134407363Y-110254759D01*
X134475981Y-110028558D01*
X134475982Y-110028555D01*
X134587408Y-109820090D01*
X134737366Y-109637366D01*
X134920090Y-109487408D01*
X135128555Y-109375982D01*
X135128558Y-109375981D01*
X135354759Y-109307363D01*
X135472286Y-109295788D01*
X135531049Y-109290000D01*
X136248951Y-109290000D01*
X136307714Y-109295788D01*
G37*
G36*
X107565982Y-118144290D02*
G01*
X107833505Y-118255102D01*
X107833506Y-118255103D01*
X108074271Y-118415976D01*
X108279024Y-118620729D01*
X108339274Y-118710900D01*
X108439898Y-118861495D01*
X108550710Y-119129018D01*
X108607200Y-119413016D01*
X108607200Y-119702584D01*
X108550710Y-119986582D01*
X108439898Y-120254105D01*
X108386516Y-120333997D01*
X108279024Y-120494871D01*
X108074271Y-120699624D01*
X107913397Y-120807116D01*
X107833505Y-120860498D01*
X107565982Y-120971310D01*
X107281984Y-121027800D01*
X106992416Y-121027800D01*
X106708418Y-120971310D01*
X106440895Y-120860498D01*
X106361003Y-120807116D01*
X106200129Y-120699624D01*
X105995376Y-120494871D01*
X105887884Y-120333997D01*
X105834502Y-120254105D01*
X105723690Y-119986582D01*
X105667200Y-119702584D01*
X105667200Y-119413016D01*
X105723690Y-119129018D01*
X105834502Y-118861495D01*
X105935126Y-118710900D01*
X105995376Y-118620729D01*
X106200129Y-118415976D01*
X106440894Y-118255103D01*
X106440895Y-118255102D01*
X106708418Y-118144290D01*
X106992416Y-118087800D01*
X107281984Y-118087800D01*
X107565982Y-118144290D01*
G37*
G36*
X101571582Y-118144290D02*
G01*
X101839105Y-118255102D01*
X101839106Y-118255103D01*
X102079871Y-118415976D01*
X102284624Y-118620729D01*
X102344874Y-118710900D01*
X102445498Y-118861495D01*
X102556310Y-119129018D01*
X102612800Y-119413016D01*
X102612800Y-119702584D01*
X102556310Y-119986582D01*
X102445498Y-120254105D01*
X102392116Y-120333997D01*
X102284624Y-120494871D01*
X102079871Y-120699624D01*
X101918997Y-120807116D01*
X101839105Y-120860498D01*
X101571582Y-120971310D01*
X101287584Y-121027800D01*
X100998016Y-121027800D01*
X100714018Y-120971310D01*
X100446495Y-120860498D01*
X100366603Y-120807116D01*
X100205729Y-120699624D01*
X100000976Y-120494871D01*
X99893484Y-120333997D01*
X99840102Y-120254105D01*
X99729290Y-119986582D01*
X99672800Y-119702584D01*
X99672800Y-119413016D01*
X99729290Y-119129018D01*
X99840102Y-118861495D01*
X99940726Y-118710900D01*
X100000976Y-118620729D01*
X100205729Y-118415976D01*
X100446494Y-118255103D01*
X100446495Y-118255102D01*
X100714018Y-118144290D01*
X100998016Y-118087800D01*
X101287584Y-118087800D01*
X101571582Y-118144290D01*
G37*
G36*
X158721582Y-118144290D02*
G01*
X158989105Y-118255102D01*
X158989106Y-118255103D01*
X159229871Y-118415976D01*
X159434624Y-118620729D01*
X159494874Y-118710900D01*
X159595498Y-118861495D01*
X159706310Y-119129018D01*
X159762800Y-119413016D01*
X159762800Y-119702584D01*
X159706310Y-119986582D01*
X159595498Y-120254105D01*
X159542116Y-120333997D01*
X159434624Y-120494871D01*
X159229871Y-120699624D01*
X159068997Y-120807116D01*
X158989105Y-120860498D01*
X158721582Y-120971310D01*
X158437584Y-121027800D01*
X158148016Y-121027800D01*
X157864018Y-120971310D01*
X157596495Y-120860498D01*
X157516603Y-120807116D01*
X157355729Y-120699624D01*
X157150976Y-120494871D01*
X157043484Y-120333997D01*
X156990102Y-120254105D01*
X156879290Y-119986582D01*
X156822800Y-119702584D01*
X156822800Y-119413016D01*
X156879290Y-119129018D01*
X156990102Y-118861495D01*
X157090726Y-118710900D01*
X157150976Y-118620729D01*
X157355729Y-118415976D01*
X157596494Y-118255103D01*
X157596495Y-118255102D01*
X157864018Y-118144290D01*
X158148016Y-118087800D01*
X158437584Y-118087800D01*
X158721582Y-118144290D01*
G37*
G36*
X126615982Y-118144290D02*
G01*
X126883505Y-118255102D01*
X126883506Y-118255103D01*
X127124271Y-118415976D01*
X127329024Y-118620729D01*
X127389274Y-118710900D01*
X127489898Y-118861495D01*
X127600710Y-119129018D01*
X127657200Y-119413016D01*
X127657200Y-119702584D01*
X127600710Y-119986582D01*
X127489898Y-120254105D01*
X127436516Y-120333997D01*
X127329024Y-120494871D01*
X127124271Y-120699624D01*
X126963397Y-120807116D01*
X126883505Y-120860498D01*
X126615982Y-120971310D01*
X126331984Y-121027800D01*
X126042416Y-121027800D01*
X125758418Y-120971310D01*
X125490895Y-120860498D01*
X125411003Y-120807116D01*
X125250129Y-120699624D01*
X125045376Y-120494871D01*
X124937884Y-120333997D01*
X124884502Y-120254105D01*
X124773690Y-119986582D01*
X124717200Y-119702584D01*
X124717200Y-119413016D01*
X124773690Y-119129018D01*
X124884502Y-118861495D01*
X124985126Y-118710900D01*
X125045376Y-118620729D01*
X125250129Y-118415976D01*
X125490894Y-118255103D01*
X125490895Y-118255102D01*
X125758418Y-118144290D01*
X126042416Y-118087800D01*
X126331984Y-118087800D01*
X126615982Y-118144290D01*
G37*
G36*
X120621582Y-118144290D02*
G01*
X120889105Y-118255102D01*
X120889106Y-118255103D01*
X121129871Y-118415976D01*
X121334624Y-118620729D01*
X121394874Y-118710900D01*
X121495498Y-118861495D01*
X121606310Y-119129018D01*
X121662800Y-119413016D01*
X121662800Y-119702584D01*
X121606310Y-119986582D01*
X121495498Y-120254105D01*
X121442116Y-120333997D01*
X121334624Y-120494871D01*
X121129871Y-120699624D01*
X120968997Y-120807116D01*
X120889105Y-120860498D01*
X120621582Y-120971310D01*
X120337584Y-121027800D01*
X120048016Y-121027800D01*
X119764018Y-120971310D01*
X119496495Y-120860498D01*
X119416603Y-120807116D01*
X119255729Y-120699624D01*
X119050976Y-120494871D01*
X118943484Y-120333997D01*
X118890102Y-120254105D01*
X118779290Y-119986582D01*
X118722800Y-119702584D01*
X118722800Y-119413016D01*
X118779290Y-119129018D01*
X118890102Y-118861495D01*
X118990726Y-118710900D01*
X119050976Y-118620729D01*
X119255729Y-118415976D01*
X119496494Y-118255103D01*
X119496495Y-118255102D01*
X119764018Y-118144290D01*
X120048016Y-118087800D01*
X120337584Y-118087800D01*
X120621582Y-118144290D01*
G37*
G36*
X164715982Y-118144290D02*
G01*
X164983505Y-118255102D01*
X164983506Y-118255103D01*
X165224271Y-118415976D01*
X165429024Y-118620729D01*
X165489274Y-118710900D01*
X165589898Y-118861495D01*
X165700710Y-119129018D01*
X165757200Y-119413016D01*
X165757200Y-119702584D01*
X165700710Y-119986582D01*
X165589898Y-120254105D01*
X165536516Y-120333997D01*
X165429024Y-120494871D01*
X165224271Y-120699624D01*
X165063397Y-120807116D01*
X164983505Y-120860498D01*
X164715982Y-120971310D01*
X164431984Y-121027800D01*
X164142416Y-121027800D01*
X163858418Y-120971310D01*
X163590895Y-120860498D01*
X163511003Y-120807116D01*
X163350129Y-120699624D01*
X163145376Y-120494871D01*
X163037884Y-120333997D01*
X162984502Y-120254105D01*
X162873690Y-119986582D01*
X162817200Y-119702584D01*
X162817200Y-119413016D01*
X162873690Y-119129018D01*
X162984502Y-118861495D01*
X163085126Y-118710900D01*
X163145376Y-118620729D01*
X163350129Y-118415976D01*
X163590894Y-118255103D01*
X163590895Y-118255102D01*
X163858418Y-118144290D01*
X164142416Y-118087800D01*
X164431984Y-118087800D01*
X164715982Y-118144290D01*
G37*
G36*
X150037910Y-118345239D02*
G01*
X150173786Y-118372266D01*
X150252909Y-118405040D01*
X150364805Y-118451389D01*
X150536720Y-118566259D01*
X150682921Y-118712460D01*
X150797791Y-118884375D01*
X150830207Y-118962634D01*
X150876268Y-119073834D01*
X150876914Y-119075395D01*
X150917250Y-119278179D01*
X150917250Y-119484941D01*
X150907097Y-119535982D01*
X150876914Y-119687726D01*
X150844140Y-119766849D01*
X150797791Y-119878745D01*
X150682921Y-120050660D01*
X150536720Y-120196861D01*
X150364805Y-120311731D01*
X150252909Y-120358080D01*
X150173786Y-120390854D01*
X150072393Y-120411022D01*
X149971001Y-120431190D01*
X149764239Y-120431190D01*
X149662847Y-120411022D01*
X149561454Y-120390854D01*
X149482331Y-120358080D01*
X149370435Y-120311731D01*
X149198520Y-120196861D01*
X149052319Y-120050660D01*
X148937449Y-119878745D01*
X148891100Y-119766849D01*
X148858326Y-119687726D01*
X148828143Y-119535982D01*
X148817990Y-119484941D01*
X148817990Y-119278179D01*
X148858326Y-119075395D01*
X148858973Y-119073834D01*
X148905033Y-118962634D01*
X148937449Y-118884375D01*
X149052319Y-118712460D01*
X149198520Y-118566259D01*
X149370435Y-118451389D01*
X149482331Y-118405040D01*
X149561454Y-118372266D01*
X149697330Y-118345239D01*
X149764239Y-118331930D01*
X149971001Y-118331930D01*
X150037910Y-118345239D01*
G37*
G36*
X172898133Y-118345239D02*
G01*
X173026166Y-118370706D01*
X173105289Y-118403480D01*
X173217185Y-118449829D01*
X173389100Y-118564699D01*
X173535301Y-118710900D01*
X173650171Y-118882815D01*
X173650817Y-118884375D01*
X173729294Y-119073834D01*
X173769630Y-119276620D01*
X173769630Y-119483380D01*
X173729294Y-119686166D01*
X173722494Y-119702582D01*
X173650171Y-119877185D01*
X173535301Y-120049100D01*
X173389100Y-120195301D01*
X173217185Y-120310171D01*
X173105289Y-120356520D01*
X173026166Y-120389294D01*
X172924773Y-120409462D01*
X172823381Y-120429630D01*
X172616619Y-120429630D01*
X172515227Y-120409462D01*
X172413834Y-120389294D01*
X172334711Y-120356520D01*
X172222815Y-120310171D01*
X172050900Y-120195301D01*
X171904699Y-120049100D01*
X171789829Y-119877185D01*
X171717506Y-119702582D01*
X171710706Y-119686166D01*
X171670370Y-119483380D01*
X171670370Y-119276620D01*
X171710706Y-119073834D01*
X171789183Y-118884375D01*
X171789829Y-118882815D01*
X171904699Y-118710900D01*
X172050900Y-118564699D01*
X172222815Y-118449829D01*
X172334711Y-118403480D01*
X172413834Y-118370706D01*
X172541867Y-118345239D01*
X172616619Y-118330370D01*
X172823381Y-118330370D01*
X172898133Y-118345239D01*
G37*
G36*
X101571582Y-114156490D02*
G01*
X101839105Y-114267302D01*
X101906377Y-114312252D01*
X102079871Y-114428176D01*
X102284624Y-114632929D01*
X102392116Y-114793803D01*
X102445498Y-114873695D01*
X102556310Y-115141218D01*
X102612800Y-115425216D01*
X102612800Y-115714784D01*
X102556310Y-115998782D01*
X102445498Y-116266305D01*
X102445497Y-116266306D01*
X102284624Y-116507071D01*
X102079871Y-116711824D01*
X101918997Y-116819316D01*
X101839105Y-116872698D01*
X101571582Y-116983510D01*
X101287584Y-117040000D01*
X100998016Y-117040000D01*
X100714018Y-116983510D01*
X100446495Y-116872698D01*
X100366603Y-116819316D01*
X100205729Y-116711824D01*
X100000976Y-116507071D01*
X99840103Y-116266306D01*
X99840102Y-116266305D01*
X99729290Y-115998782D01*
X99672800Y-115714784D01*
X99672800Y-115425216D01*
X99729290Y-115141218D01*
X99840102Y-114873695D01*
X99893484Y-114793803D01*
X100000976Y-114632929D01*
X100205729Y-114428176D01*
X100379223Y-114312252D01*
X100446495Y-114267302D01*
X100714018Y-114156490D01*
X100998016Y-114100000D01*
X101287584Y-114100000D01*
X101571582Y-114156490D01*
G37*
G36*
X126615982Y-114156490D02*
G01*
X126883505Y-114267302D01*
X126950777Y-114312252D01*
X127124271Y-114428176D01*
X127329024Y-114632929D01*
X127436516Y-114793803D01*
X127489898Y-114873695D01*
X127600710Y-115141218D01*
X127657200Y-115425216D01*
X127657200Y-115714784D01*
X127600710Y-115998782D01*
X127489898Y-116266305D01*
X127489897Y-116266306D01*
X127329024Y-116507071D01*
X127124271Y-116711824D01*
X126963397Y-116819316D01*
X126883505Y-116872698D01*
X126615982Y-116983510D01*
X126331984Y-117040000D01*
X126042416Y-117040000D01*
X125758418Y-116983510D01*
X125490895Y-116872698D01*
X125411003Y-116819316D01*
X125250129Y-116711824D01*
X125045376Y-116507071D01*
X124884503Y-116266306D01*
X124884502Y-116266305D01*
X124773690Y-115998782D01*
X124717200Y-115714784D01*
X124717200Y-115425216D01*
X124773690Y-115141218D01*
X124884502Y-114873695D01*
X124937884Y-114793803D01*
X125045376Y-114632929D01*
X125250129Y-114428176D01*
X125423623Y-114312252D01*
X125490895Y-114267302D01*
X125758418Y-114156490D01*
X126042416Y-114100000D01*
X126331984Y-114100000D01*
X126615982Y-114156490D01*
G37*
G36*
X107565982Y-114156490D02*
G01*
X107833505Y-114267302D01*
X107900777Y-114312252D01*
X108074271Y-114428176D01*
X108279024Y-114632929D01*
X108386516Y-114793803D01*
X108439898Y-114873695D01*
X108550710Y-115141218D01*
X108607200Y-115425216D01*
X108607200Y-115714784D01*
X108550710Y-115998782D01*
X108439898Y-116266305D01*
X108439897Y-116266306D01*
X108279024Y-116507071D01*
X108074271Y-116711824D01*
X107913397Y-116819316D01*
X107833505Y-116872698D01*
X107565982Y-116983510D01*
X107281984Y-117040000D01*
X106992416Y-117040000D01*
X106708418Y-116983510D01*
X106440895Y-116872698D01*
X106361003Y-116819316D01*
X106200129Y-116711824D01*
X105995376Y-116507071D01*
X105834503Y-116266306D01*
X105834502Y-116266305D01*
X105723690Y-115998782D01*
X105667200Y-115714784D01*
X105667200Y-115425216D01*
X105723690Y-115141218D01*
X105834502Y-114873695D01*
X105887884Y-114793803D01*
X105995376Y-114632929D01*
X106200129Y-114428176D01*
X106373623Y-114312252D01*
X106440895Y-114267302D01*
X106708418Y-114156490D01*
X106992416Y-114100000D01*
X107281984Y-114100000D01*
X107565982Y-114156490D01*
G37*
G36*
X120621582Y-114156490D02*
G01*
X120889105Y-114267302D01*
X120956377Y-114312252D01*
X121129871Y-114428176D01*
X121334624Y-114632929D01*
X121442116Y-114793803D01*
X121495498Y-114873695D01*
X121606310Y-115141218D01*
X121662800Y-115425216D01*
X121662800Y-115714784D01*
X121606310Y-115998782D01*
X121495498Y-116266305D01*
X121495497Y-116266306D01*
X121334624Y-116507071D01*
X121129871Y-116711824D01*
X120968997Y-116819316D01*
X120889105Y-116872698D01*
X120621582Y-116983510D01*
X120337584Y-117040000D01*
X120048016Y-117040000D01*
X119764018Y-116983510D01*
X119496495Y-116872698D01*
X119416603Y-116819316D01*
X119255729Y-116711824D01*
X119050976Y-116507071D01*
X118890103Y-116266306D01*
X118890102Y-116266305D01*
X118779290Y-115998782D01*
X118722800Y-115714784D01*
X118722800Y-115425216D01*
X118779290Y-115141218D01*
X118890102Y-114873695D01*
X118943484Y-114793803D01*
X119050976Y-114632929D01*
X119255729Y-114428176D01*
X119429223Y-114312252D01*
X119496495Y-114267302D01*
X119764018Y-114156490D01*
X120048016Y-114100000D01*
X120337584Y-114100000D01*
X120621582Y-114156490D01*
G37*
G36*
X164715982Y-114156490D02*
G01*
X164983505Y-114267302D01*
X165050777Y-114312252D01*
X165224271Y-114428176D01*
X165429024Y-114632929D01*
X165536516Y-114793803D01*
X165589898Y-114873695D01*
X165700710Y-115141218D01*
X165757200Y-115425216D01*
X165757200Y-115714784D01*
X165700710Y-115998782D01*
X165589898Y-116266305D01*
X165589897Y-116266306D01*
X165429024Y-116507071D01*
X165224271Y-116711824D01*
X165063397Y-116819316D01*
X164983505Y-116872698D01*
X164715982Y-116983510D01*
X164431984Y-117040000D01*
X164142416Y-117040000D01*
X163858418Y-116983510D01*
X163590895Y-116872698D01*
X163511003Y-116819316D01*
X163350129Y-116711824D01*
X163145376Y-116507071D01*
X162984503Y-116266306D01*
X162984502Y-116266305D01*
X162873690Y-115998782D01*
X162817200Y-115714784D01*
X162817200Y-115425216D01*
X162873690Y-115141218D01*
X162984502Y-114873695D01*
X163037884Y-114793803D01*
X163145376Y-114632929D01*
X163350129Y-114428176D01*
X163523623Y-114312252D01*
X163590895Y-114267302D01*
X163858418Y-114156490D01*
X164142416Y-114100000D01*
X164431984Y-114100000D01*
X164715982Y-114156490D01*
G37*
G36*
X158721582Y-114156490D02*
G01*
X158989105Y-114267302D01*
X159056377Y-114312252D01*
X159229871Y-114428176D01*
X159434624Y-114632929D01*
X159542116Y-114793803D01*
X159595498Y-114873695D01*
X159706310Y-115141218D01*
X159762800Y-115425216D01*
X159762800Y-115714784D01*
X159706310Y-115998782D01*
X159595498Y-116266305D01*
X159595497Y-116266306D01*
X159434624Y-116507071D01*
X159229871Y-116711824D01*
X159068997Y-116819316D01*
X158989105Y-116872698D01*
X158721582Y-116983510D01*
X158437584Y-117040000D01*
X158148016Y-117040000D01*
X157864018Y-116983510D01*
X157596495Y-116872698D01*
X157516603Y-116819316D01*
X157355729Y-116711824D01*
X157150976Y-116507071D01*
X156990103Y-116266306D01*
X156990102Y-116266305D01*
X156879290Y-115998782D01*
X156822800Y-115714784D01*
X156822800Y-115425216D01*
X156879290Y-115141218D01*
X156990102Y-114873695D01*
X157043484Y-114793803D01*
X157150976Y-114632929D01*
X157355729Y-114428176D01*
X157529223Y-114312252D01*
X157596495Y-114267302D01*
X157864018Y-114156490D01*
X158148016Y-114100000D01*
X158437584Y-114100000D01*
X158721582Y-114156490D01*
G37*
G36*
X107565982Y-110168690D02*
G01*
X107833505Y-110279502D01*
X107833506Y-110279503D01*
X108074271Y-110440376D01*
X108279024Y-110645129D01*
X108386516Y-110806003D01*
X108439898Y-110885895D01*
X108550710Y-111153418D01*
X108607200Y-111437416D01*
X108607200Y-111726984D01*
X108550710Y-112010982D01*
X108439898Y-112278505D01*
X108439897Y-112278506D01*
X108279024Y-112519271D01*
X108074271Y-112724024D01*
X107968408Y-112794759D01*
X107833505Y-112884898D01*
X107565982Y-112995710D01*
X107281984Y-113052200D01*
X106992416Y-113052200D01*
X106708418Y-112995710D01*
X106440895Y-112884898D01*
X106305992Y-112794759D01*
X106200129Y-112724024D01*
X105995376Y-112519271D01*
X105834503Y-112278506D01*
X105834502Y-112278505D01*
X105723690Y-112010982D01*
X105667200Y-111726984D01*
X105667200Y-111437416D01*
X105723690Y-111153418D01*
X105834502Y-110885895D01*
X105887884Y-110806003D01*
X105995376Y-110645129D01*
X106200129Y-110440376D01*
X106440894Y-110279503D01*
X106440895Y-110279502D01*
X106708418Y-110168690D01*
X106992416Y-110112200D01*
X107281984Y-110112200D01*
X107565982Y-110168690D01*
G37*
G36*
X101571582Y-110168690D02*
G01*
X101839105Y-110279502D01*
X101839106Y-110279503D01*
X102079871Y-110440376D01*
X102284624Y-110645129D01*
X102392116Y-110806003D01*
X102445498Y-110885895D01*
X102556310Y-111153418D01*
X102612800Y-111437416D01*
X102612800Y-111726984D01*
X102556310Y-112010982D01*
X102445498Y-112278505D01*
X102445497Y-112278506D01*
X102284624Y-112519271D01*
X102079871Y-112724024D01*
X101974008Y-112794759D01*
X101839105Y-112884898D01*
X101571582Y-112995710D01*
X101287584Y-113052200D01*
X100998016Y-113052200D01*
X100714018Y-112995710D01*
X100446495Y-112884898D01*
X100311592Y-112794759D01*
X100205729Y-112724024D01*
X100000976Y-112519271D01*
X99840103Y-112278506D01*
X99840102Y-112278505D01*
X99729290Y-112010982D01*
X99672800Y-111726984D01*
X99672800Y-111437416D01*
X99729290Y-111153418D01*
X99840102Y-110885895D01*
X99893484Y-110806003D01*
X100000976Y-110645129D01*
X100205729Y-110440376D01*
X100446494Y-110279503D01*
X100446495Y-110279502D01*
X100714018Y-110168690D01*
X100998016Y-110112200D01*
X101287584Y-110112200D01*
X101571582Y-110168690D01*
G37*
G36*
X126615982Y-110168690D02*
G01*
X126883505Y-110279502D01*
X126883506Y-110279503D01*
X127124271Y-110440376D01*
X127329024Y-110645129D01*
X127436516Y-110806003D01*
X127489898Y-110885895D01*
X127600710Y-111153418D01*
X127657200Y-111437416D01*
X127657200Y-111726984D01*
X127600710Y-112010982D01*
X127489898Y-112278505D01*
X127489897Y-112278506D01*
X127329024Y-112519271D01*
X127124271Y-112724024D01*
X127018408Y-112794759D01*
X126883505Y-112884898D01*
X126615982Y-112995710D01*
X126331984Y-113052200D01*
X126042416Y-113052200D01*
X125758418Y-112995710D01*
X125490895Y-112884898D01*
X125355992Y-112794759D01*
X125250129Y-112724024D01*
X125045376Y-112519271D01*
X124884503Y-112278506D01*
X124884502Y-112278505D01*
X124773690Y-112010982D01*
X124717200Y-111726984D01*
X124717200Y-111437416D01*
X124773690Y-111153418D01*
X124884502Y-110885895D01*
X124937884Y-110806003D01*
X125045376Y-110645129D01*
X125250129Y-110440376D01*
X125490894Y-110279503D01*
X125490895Y-110279502D01*
X125758418Y-110168690D01*
X126042416Y-110112200D01*
X126331984Y-110112200D01*
X126615982Y-110168690D01*
G37*
G36*
X120621582Y-110168690D02*
G01*
X120889105Y-110279502D01*
X120889106Y-110279503D01*
X121129871Y-110440376D01*
X121334624Y-110645129D01*
X121442116Y-110806003D01*
X121495498Y-110885895D01*
X121606310Y-111153418D01*
X121662800Y-111437416D01*
X121662800Y-111726984D01*
X121606310Y-112010982D01*
X121495498Y-112278505D01*
X121495497Y-112278506D01*
X121334624Y-112519271D01*
X121129871Y-112724024D01*
X121024008Y-112794759D01*
X120889105Y-112884898D01*
X120621582Y-112995710D01*
X120337584Y-113052200D01*
X120048016Y-113052200D01*
X119764018Y-112995710D01*
X119496495Y-112884898D01*
X119361592Y-112794759D01*
X119255729Y-112724024D01*
X119050976Y-112519271D01*
X118890103Y-112278506D01*
X118890102Y-112278505D01*
X118779290Y-112010982D01*
X118722800Y-111726984D01*
X118722800Y-111437416D01*
X118779290Y-111153418D01*
X118890102Y-110885895D01*
X118943484Y-110806003D01*
X119050976Y-110645129D01*
X119255729Y-110440376D01*
X119496494Y-110279503D01*
X119496495Y-110279502D01*
X119764018Y-110168690D01*
X120048016Y-110112200D01*
X120337584Y-110112200D01*
X120621582Y-110168690D01*
G37*
G36*
X164715982Y-110168690D02*
G01*
X164983505Y-110279502D01*
X164983506Y-110279503D01*
X165224271Y-110440376D01*
X165429024Y-110645129D01*
X165536516Y-110806003D01*
X165589898Y-110885895D01*
X165700710Y-111153418D01*
X165757200Y-111437416D01*
X165757200Y-111726984D01*
X165700710Y-112010982D01*
X165589898Y-112278505D01*
X165589897Y-112278506D01*
X165429024Y-112519271D01*
X165224271Y-112724024D01*
X165118408Y-112794759D01*
X164983505Y-112884898D01*
X164715982Y-112995710D01*
X164431984Y-113052200D01*
X164142416Y-113052200D01*
X163858418Y-112995710D01*
X163590895Y-112884898D01*
X163455992Y-112794759D01*
X163350129Y-112724024D01*
X163145376Y-112519271D01*
X162984503Y-112278506D01*
X162984502Y-112278505D01*
X162873690Y-112010982D01*
X162817200Y-111726984D01*
X162817200Y-111437416D01*
X162873690Y-111153418D01*
X162984502Y-110885895D01*
X163037884Y-110806003D01*
X163145376Y-110645129D01*
X163350129Y-110440376D01*
X163590894Y-110279503D01*
X163590895Y-110279502D01*
X163858418Y-110168690D01*
X164142416Y-110112200D01*
X164431984Y-110112200D01*
X164715982Y-110168690D01*
G37*
G36*
X158721582Y-110168690D02*
G01*
X158989105Y-110279502D01*
X158989106Y-110279503D01*
X159229871Y-110440376D01*
X159434624Y-110645129D01*
X159542116Y-110806003D01*
X159595498Y-110885895D01*
X159706310Y-111153418D01*
X159762800Y-111437416D01*
X159762800Y-111726984D01*
X159706310Y-112010982D01*
X159595498Y-112278505D01*
X159595497Y-112278506D01*
X159434624Y-112519271D01*
X159229871Y-112724024D01*
X159124008Y-112794759D01*
X158989105Y-112884898D01*
X158721582Y-112995710D01*
X158437584Y-113052200D01*
X158148016Y-113052200D01*
X157864018Y-112995710D01*
X157596495Y-112884898D01*
X157461592Y-112794759D01*
X157355729Y-112724024D01*
X157150976Y-112519271D01*
X156990103Y-112278506D01*
X156990102Y-112278505D01*
X156879290Y-112010982D01*
X156822800Y-111726984D01*
X156822800Y-111437416D01*
X156879290Y-111153418D01*
X156990102Y-110885895D01*
X157043484Y-110806003D01*
X157150976Y-110645129D01*
X157355729Y-110440376D01*
X157596494Y-110279503D01*
X157596495Y-110279502D01*
X157864018Y-110168690D01*
X158148016Y-110112200D01*
X158437584Y-110112200D01*
X158721582Y-110168690D01*
G37*
G36*
X150917250Y-110271190D02*
G01*
X148817990Y-110271190D01*
X148817990Y-108171930D01*
X150917250Y-108171930D01*
X150917250Y-110271190D01*
G37*
G36*
X173769630Y-110269630D02*
G01*
X171670370Y-110269630D01*
X171670370Y-108170370D01*
X173769630Y-108170370D01*
X173769630Y-110269630D01*
G37*
G36*
X142120000Y-105234161D02*
G01*
X142122402Y-105258547D01*
X142129515Y-105281996D01*
X142141066Y-105303607D01*
X142156611Y-105322549D01*
X142175553Y-105338094D01*
X142197164Y-105349645D01*
X142220613Y-105356758D01*
X142244999Y-105359160D01*
X142269385Y-105356758D01*
X142292834Y-105349645D01*
X142314445Y-105338094D01*
X142333387Y-105322549D01*
X142348932Y-105303607D01*
X142360483Y-105281996D01*
X142367596Y-105258547D01*
X142404194Y-105074559D01*
X142404194Y-105074557D01*
X142490884Y-104865271D01*
X142616737Y-104676918D01*
X142776918Y-104516737D01*
X142965271Y-104390884D01*
X143174557Y-104304194D01*
X143322676Y-104274731D01*
X143396734Y-104260000D01*
X143623266Y-104260000D01*
X143697324Y-104274731D01*
X143845443Y-104304194D01*
X144054729Y-104390884D01*
X144243082Y-104516737D01*
X144403263Y-104676918D01*
X144529116Y-104865271D01*
X144615806Y-105074557D01*
X144660000Y-105296735D01*
X144660000Y-105523265D01*
X144615806Y-105745443D01*
X144529116Y-105954729D01*
X144403263Y-106143082D01*
X144243082Y-106303263D01*
X144054729Y-106429116D01*
X143845443Y-106515806D01*
X143697324Y-106545269D01*
X143623266Y-106560000D01*
X143396734Y-106560000D01*
X143322676Y-106545269D01*
X143174557Y-106515806D01*
X142965271Y-106429116D01*
X142776918Y-106303263D01*
X142616737Y-106143082D01*
X142490884Y-105954729D01*
X142404194Y-105745443D01*
X142367596Y-105561453D01*
X142360483Y-105538004D01*
X142348932Y-105516393D01*
X142333386Y-105497451D01*
X142314444Y-105481906D01*
X142292834Y-105470355D01*
X142269385Y-105463242D01*
X142244999Y-105460840D01*
X142220613Y-105463242D01*
X142197164Y-105470355D01*
X142175553Y-105481906D01*
X142156611Y-105497452D01*
X142141066Y-105516394D01*
X142129515Y-105538004D01*
X142122402Y-105561453D01*
X142120000Y-105585839D01*
X142120000Y-106610000D01*
X139820000Y-106610000D01*
X139820000Y-104210000D01*
X142120000Y-104210000D01*
X142120000Y-105234161D01*
G37*
G36*
X180220000Y-105234161D02*
G01*
X180222402Y-105258547D01*
X180229515Y-105281996D01*
X180241066Y-105303607D01*
X180256611Y-105322549D01*
X180275553Y-105338094D01*
X180297164Y-105349645D01*
X180320613Y-105356758D01*
X180344999Y-105359160D01*
X180369385Y-105356758D01*
X180392834Y-105349645D01*
X180414445Y-105338094D01*
X180433387Y-105322549D01*
X180448932Y-105303607D01*
X180460483Y-105281996D01*
X180467596Y-105258547D01*
X180504194Y-105074559D01*
X180504194Y-105074557D01*
X180590884Y-104865271D01*
X180716737Y-104676918D01*
X180876918Y-104516737D01*
X181065271Y-104390884D01*
X181274557Y-104304194D01*
X181422676Y-104274731D01*
X181496734Y-104260000D01*
X181723266Y-104260000D01*
X181797324Y-104274731D01*
X181945443Y-104304194D01*
X182154729Y-104390884D01*
X182343082Y-104516737D01*
X182503263Y-104676918D01*
X182629116Y-104865271D01*
X182715806Y-105074557D01*
X182760000Y-105296735D01*
X182760000Y-105523265D01*
X182715806Y-105745443D01*
X182629116Y-105954729D01*
X182503263Y-106143082D01*
X182343082Y-106303263D01*
X182154729Y-106429116D01*
X181945443Y-106515806D01*
X181797324Y-106545269D01*
X181723266Y-106560000D01*
X181496734Y-106560000D01*
X181422676Y-106545269D01*
X181274557Y-106515806D01*
X181065271Y-106429116D01*
X180876918Y-106303263D01*
X180716737Y-106143082D01*
X180590884Y-105954729D01*
X180504194Y-105745443D01*
X180467596Y-105561453D01*
X180460483Y-105538004D01*
X180448932Y-105516393D01*
X180433386Y-105497451D01*
X180414444Y-105481906D01*
X180392834Y-105470355D01*
X180369385Y-105463242D01*
X180344999Y-105460840D01*
X180320613Y-105463242D01*
X180297164Y-105470355D01*
X180275553Y-105481906D01*
X180256611Y-105497452D01*
X180241066Y-105516394D01*
X180229515Y-105538004D01*
X180222402Y-105561453D01*
X180220000Y-105585839D01*
X180220000Y-106610000D01*
X177920000Y-106610000D01*
X177920000Y-104210000D01*
X180220000Y-104210000D01*
X180220000Y-105234161D01*
G37*
M02*
