M48
; DRILL file {KiCad (5.1.6-0-10_14)} date Tuesday, November 10, 2020 at 11:20:31 PM
; FORMAT={-:-/ absolute / inch / decimal}
; #@! TF.CreationDate,2020-11-10T23:20:31+01:00
; #@! TF.GenerationSoftware,Kicad,Pcbnew,(5.1.6-0-10_14)
; #@! TF.FileFunction,Plated,1,2,PTH
FMAT,2
INCH
T1C0.0276
T2C0.0394
T3C0.0472
T4C0.0472
%
G90
G05
T1
X5.9003Y-4.3001
X5.9003Y-4.7001
X6.8Y-4.3
X6.8Y-4.7
T2
X5.55Y-4.15
X5.65Y-4.15
X7.05Y-4.15
X7.15Y-4.15
T3
X3.982Y-4.393
X3.982Y-4.55
X3.982Y-4.707
X4.218Y-4.393
X4.218Y-4.55
X4.218Y-4.707
X4.732Y-4.393
X4.732Y-4.55
X4.732Y-4.707
X4.968Y-4.393
X4.968Y-4.55
X4.968Y-4.707
X6.232Y-4.393
X6.232Y-4.55
X6.232Y-4.707
X6.468Y-4.393
X6.468Y-4.55
X6.468Y-4.707
T4
X7.125Y-4.35
X7.125Y-4.45
X7.125Y-4.55
X7.125Y-4.65
X7.125Y-4.75
X7.125Y-4.85
X5.35Y-4.35
X5.35Y-4.45
X5.35Y-4.55
X5.35Y-4.65
X5.35Y-4.75
X5.35Y-4.85
T0
M30
