G04 #@! TF.GenerationSoftware,KiCad,Pcbnew,(5.1.9-0-10_14)*
G04 #@! TF.CreationDate,2020-12-29T17:03:32+01:00*
G04 #@! TF.ProjectId,Attentuator Board V2,41747465-6e74-4756-9174-6f7220426f61,2.1*
G04 #@! TF.SameCoordinates,Original*
G04 #@! TF.FileFunction,Soldermask,Top*
G04 #@! TF.FilePolarity,Negative*
%FSLAX46Y46*%
G04 Gerber Fmt 4.6, Leading zero omitted, Abs format (unit mm)*
G04 Created by KiCad (PCBNEW (5.1.9-0-10_14)) date 2020-12-29 17:03:32*
%MOMM*%
%LPD*%
G01*
G04 APERTURE LIST*
%ADD10O,1.740000X2.200000*%
%ADD11R,1.740000X2.200000*%
%ADD12O,2.200000X1.740000*%
%ADD13R,2.200000X1.740000*%
%ADD14C,1.440000*%
%ADD15C,2.000000*%
%ADD16R,2.000000X2.000000*%
%ADD17R,1.300000X1.300000*%
%ADD18C,1.300000*%
%ADD19C,1.998980*%
G04 APERTURE END LIST*
D10*
X139700000Y-107315000D03*
X137160000Y-107315000D03*
X134620000Y-107315000D03*
X132080000Y-107315000D03*
X129540000Y-107315000D03*
D11*
X127000000Y-107315000D03*
D10*
X156210000Y-107315000D03*
X153670000Y-107315000D03*
X151130000Y-107315000D03*
X148590000Y-107315000D03*
X146050000Y-107315000D03*
D11*
X143510000Y-107315000D03*
D10*
X119380000Y-107315000D03*
X121920000Y-107315000D03*
X116840000Y-107315000D03*
X114300000Y-107315000D03*
X111760000Y-107315000D03*
X109220000Y-107315000D03*
X106680000Y-107315000D03*
D11*
X104140000Y-107315000D03*
D10*
X176530000Y-107315000D03*
X179070000Y-107315000D03*
X173990000Y-107315000D03*
X171450000Y-107315000D03*
X168910000Y-107315000D03*
X166370000Y-107315000D03*
X163830000Y-107315000D03*
D11*
X161290000Y-107315000D03*
D12*
X182880000Y-89535000D03*
X182880000Y-86995000D03*
X182880000Y-92075000D03*
X182880000Y-94615000D03*
X182880000Y-97155000D03*
X182880000Y-99695000D03*
X182880000Y-102235000D03*
D13*
X182880000Y-104775000D03*
D12*
X156210000Y-75565000D03*
X156210000Y-78105000D03*
X156210000Y-80645000D03*
D13*
X156210000Y-83185000D03*
D12*
X141605000Y-80645000D03*
X141605000Y-78105000D03*
D13*
X141605000Y-75565000D03*
D12*
X100330000Y-104775000D03*
X100330000Y-102235000D03*
X100330000Y-97155000D03*
X100330000Y-99695000D03*
X100330000Y-94615000D03*
X100330000Y-92075000D03*
X100330000Y-89535000D03*
X100330000Y-86995000D03*
X100330000Y-84455000D03*
D13*
X100330000Y-81915000D03*
D14*
X118110000Y-89535000D03*
X120650000Y-92075000D03*
X123190000Y-89535000D03*
X107315000Y-89535000D03*
X109855000Y-92075000D03*
X112395000Y-89535000D03*
X171450000Y-89535000D03*
X168910000Y-92075000D03*
X171450000Y-94615000D03*
X160020000Y-89535000D03*
X157480000Y-92075000D03*
X160020000Y-94615000D03*
D15*
X133350000Y-93035000D03*
D16*
X133350000Y-86035000D03*
D15*
X146050000Y-86035000D03*
D16*
X146050000Y-93035000D03*
D17*
X135890000Y-97790000D03*
D18*
X130890000Y-97790000D03*
D19*
X135890000Y-101600000D03*
X125730000Y-101600000D03*
X140970000Y-101600000D03*
X151130000Y-101600000D03*
X140970000Y-97790000D03*
X151130000Y-97790000D03*
M02*
