G04 #@! TF.GenerationSoftware,KiCad,Pcbnew,(5.1.9-0-10_14)*
G04 #@! TF.CreationDate,2020-12-29T17:03:32+01:00*
G04 #@! TF.ProjectId,Attentuator Board V2,41747465-6e74-4756-9174-6f7220426f61,2.1*
G04 #@! TF.SameCoordinates,Original*
G04 #@! TF.FileFunction,Legend,Top*
G04 #@! TF.FilePolarity,Positive*
%FSLAX46Y46*%
G04 Gerber Fmt 4.6, Leading zero omitted, Abs format (unit mm)*
G04 Created by KiCad (PCBNEW (5.1.9-0-10_14)) date 2020-12-29 17:03:32*
%MOMM*%
%LPD*%
G01*
G04 APERTURE LIST*
%ADD10C,0.150000*%
%ADD11C,0.200000*%
%ADD12C,0.120000*%
%ADD13C,0.100000*%
G04 APERTURE END LIST*
D10*
X158020000Y-99738571D02*
X157520000Y-99024285D01*
X157162857Y-99738571D02*
X157162857Y-98238571D01*
X157734285Y-98238571D01*
X157877142Y-98310000D01*
X157948571Y-98381428D01*
X158020000Y-98524285D01*
X158020000Y-98738571D01*
X157948571Y-98881428D01*
X157877142Y-98952857D01*
X157734285Y-99024285D01*
X157162857Y-99024285D01*
X159234285Y-99667142D02*
X159091428Y-99738571D01*
X158805714Y-99738571D01*
X158662857Y-99667142D01*
X158591428Y-99524285D01*
X158591428Y-98952857D01*
X158662857Y-98810000D01*
X158805714Y-98738571D01*
X159091428Y-98738571D01*
X159234285Y-98810000D01*
X159305714Y-98952857D01*
X159305714Y-99095714D01*
X158591428Y-99238571D01*
X159948571Y-98738571D02*
X159948571Y-100238571D01*
X159948571Y-98810000D02*
X160091428Y-98738571D01*
X160377142Y-98738571D01*
X160520000Y-98810000D01*
X160591428Y-98881428D01*
X160662857Y-99024285D01*
X160662857Y-99452857D01*
X160591428Y-99595714D01*
X160520000Y-99667142D01*
X160377142Y-99738571D01*
X160091428Y-99738571D01*
X159948571Y-99667142D01*
X161305714Y-99738571D02*
X161305714Y-98738571D01*
X161305714Y-99024285D02*
X161377142Y-98881428D01*
X161448571Y-98810000D01*
X161591428Y-98738571D01*
X161734285Y-98738571D01*
X162448571Y-99738571D02*
X162305714Y-99667142D01*
X162234285Y-99595714D01*
X162162857Y-99452857D01*
X162162857Y-99024285D01*
X162234285Y-98881428D01*
X162305714Y-98810000D01*
X162448571Y-98738571D01*
X162662857Y-98738571D01*
X162805714Y-98810000D01*
X162877142Y-98881428D01*
X162948571Y-99024285D01*
X162948571Y-99452857D01*
X162877142Y-99595714D01*
X162805714Y-99667142D01*
X162662857Y-99738571D01*
X162448571Y-99738571D01*
X168985714Y-99738571D02*
X168985714Y-98238571D01*
X169700000Y-98738571D02*
X169700000Y-99738571D01*
X169700000Y-98881428D02*
X169771428Y-98810000D01*
X169914285Y-98738571D01*
X170128571Y-98738571D01*
X170271428Y-98810000D01*
X170342857Y-98952857D01*
X170342857Y-99738571D01*
X171057142Y-98738571D02*
X171057142Y-100238571D01*
X171057142Y-98810000D02*
X171200000Y-98738571D01*
X171485714Y-98738571D01*
X171628571Y-98810000D01*
X171700000Y-98881428D01*
X171771428Y-99024285D01*
X171771428Y-99452857D01*
X171700000Y-99595714D01*
X171628571Y-99667142D01*
X171485714Y-99738571D01*
X171200000Y-99738571D01*
X171057142Y-99667142D01*
X173057142Y-98738571D02*
X173057142Y-99738571D01*
X172414285Y-98738571D02*
X172414285Y-99524285D01*
X172485714Y-99667142D01*
X172628571Y-99738571D01*
X172842857Y-99738571D01*
X172985714Y-99667142D01*
X173057142Y-99595714D01*
X173557142Y-98738571D02*
X174128571Y-98738571D01*
X173771428Y-98238571D02*
X173771428Y-99524285D01*
X173842857Y-99667142D01*
X173985714Y-99738571D01*
X174128571Y-99738571D01*
X96172976Y-75779761D02*
X96315833Y-75827380D01*
X96553928Y-75827380D01*
X96649166Y-75779761D01*
X96696785Y-75732142D01*
X96744404Y-75636904D01*
X96744404Y-75541666D01*
X96696785Y-75446428D01*
X96649166Y-75398809D01*
X96553928Y-75351190D01*
X96363452Y-75303571D01*
X96268214Y-75255952D01*
X96220595Y-75208333D01*
X96172976Y-75113095D01*
X96172976Y-75017857D01*
X96220595Y-74922619D01*
X96268214Y-74875000D01*
X96363452Y-74827380D01*
X96601547Y-74827380D01*
X96744404Y-74875000D01*
X97030119Y-75160714D02*
X97411071Y-75160714D01*
X97172976Y-74827380D02*
X97172976Y-75684523D01*
X97220595Y-75779761D01*
X97315833Y-75827380D01*
X97411071Y-75827380D01*
X98172976Y-75160714D02*
X98172976Y-75827380D01*
X97744404Y-75160714D02*
X97744404Y-75684523D01*
X97792023Y-75779761D01*
X97887261Y-75827380D01*
X98030119Y-75827380D01*
X98125357Y-75779761D01*
X98172976Y-75732142D01*
X99077738Y-75827380D02*
X99077738Y-74827380D01*
X99077738Y-75779761D02*
X98982500Y-75827380D01*
X98792023Y-75827380D01*
X98696785Y-75779761D01*
X98649166Y-75732142D01*
X98601547Y-75636904D01*
X98601547Y-75351190D01*
X98649166Y-75255952D01*
X98696785Y-75208333D01*
X98792023Y-75160714D01*
X98982500Y-75160714D01*
X99077738Y-75208333D01*
X99934880Y-75779761D02*
X99839642Y-75827380D01*
X99649166Y-75827380D01*
X99553928Y-75779761D01*
X99506309Y-75684523D01*
X99506309Y-75303571D01*
X99553928Y-75208333D01*
X99649166Y-75160714D01*
X99839642Y-75160714D01*
X99934880Y-75208333D01*
X99982500Y-75303571D01*
X99982500Y-75398809D01*
X99506309Y-75494047D01*
X100411071Y-75827380D02*
X100411071Y-75160714D01*
X100411071Y-75351190D02*
X100458690Y-75255952D01*
X100506309Y-75208333D01*
X100601547Y-75160714D01*
X100696785Y-75160714D01*
X102125357Y-75303571D02*
X102268214Y-75351190D01*
X102315833Y-75398809D01*
X102363452Y-75494047D01*
X102363452Y-75636904D01*
X102315833Y-75732142D01*
X102268214Y-75779761D01*
X102172976Y-75827380D01*
X101792023Y-75827380D01*
X101792023Y-74827380D01*
X102125357Y-74827380D01*
X102220595Y-74875000D01*
X102268214Y-74922619D01*
X102315833Y-75017857D01*
X102315833Y-75113095D01*
X102268214Y-75208333D01*
X102220595Y-75255952D01*
X102125357Y-75303571D01*
X101792023Y-75303571D01*
X103220595Y-74827380D02*
X103030119Y-74827380D01*
X102934880Y-74875000D01*
X102887261Y-74922619D01*
X102792023Y-75065476D01*
X102744404Y-75255952D01*
X102744404Y-75636904D01*
X102792023Y-75732142D01*
X102839642Y-75779761D01*
X102934880Y-75827380D01*
X103125357Y-75827380D01*
X103220595Y-75779761D01*
X103268214Y-75732142D01*
X103315833Y-75636904D01*
X103315833Y-75398809D01*
X103268214Y-75303571D01*
X103220595Y-75255952D01*
X103125357Y-75208333D01*
X102934880Y-75208333D01*
X102839642Y-75255952D01*
X102792023Y-75303571D01*
X102744404Y-75398809D01*
X103649166Y-74827380D02*
X104315833Y-74827380D01*
X103887261Y-75827380D01*
X105411071Y-75541666D02*
X105887261Y-75541666D01*
X105315833Y-75827380D02*
X105649166Y-74827380D01*
X105982500Y-75827380D01*
X106172976Y-75160714D02*
X106553928Y-75160714D01*
X106315833Y-74827380D02*
X106315833Y-75684523D01*
X106363452Y-75779761D01*
X106458690Y-75827380D01*
X106553928Y-75827380D01*
X106744404Y-75160714D02*
X107125357Y-75160714D01*
X106887261Y-74827380D02*
X106887261Y-75684523D01*
X106934880Y-75779761D01*
X107030119Y-75827380D01*
X107125357Y-75827380D01*
X107839642Y-75779761D02*
X107744404Y-75827380D01*
X107553928Y-75827380D01*
X107458690Y-75779761D01*
X107411071Y-75684523D01*
X107411071Y-75303571D01*
X107458690Y-75208333D01*
X107553928Y-75160714D01*
X107744404Y-75160714D01*
X107839642Y-75208333D01*
X107887261Y-75303571D01*
X107887261Y-75398809D01*
X107411071Y-75494047D01*
X108315833Y-75160714D02*
X108315833Y-75827380D01*
X108315833Y-75255952D02*
X108363452Y-75208333D01*
X108458690Y-75160714D01*
X108601547Y-75160714D01*
X108696785Y-75208333D01*
X108744404Y-75303571D01*
X108744404Y-75827380D01*
X109077738Y-75160714D02*
X109458690Y-75160714D01*
X109220595Y-74827380D02*
X109220595Y-75684523D01*
X109268214Y-75779761D01*
X109363452Y-75827380D01*
X109458690Y-75827380D01*
X110220595Y-75160714D02*
X110220595Y-75827380D01*
X109792023Y-75160714D02*
X109792023Y-75684523D01*
X109839642Y-75779761D01*
X109934880Y-75827380D01*
X110077738Y-75827380D01*
X110172976Y-75779761D01*
X110220595Y-75732142D01*
X111125357Y-75827380D02*
X111125357Y-75303571D01*
X111077738Y-75208333D01*
X110982500Y-75160714D01*
X110792023Y-75160714D01*
X110696785Y-75208333D01*
X111125357Y-75779761D02*
X111030119Y-75827380D01*
X110792023Y-75827380D01*
X110696785Y-75779761D01*
X110649166Y-75684523D01*
X110649166Y-75589285D01*
X110696785Y-75494047D01*
X110792023Y-75446428D01*
X111030119Y-75446428D01*
X111125357Y-75398809D01*
X111458690Y-75160714D02*
X111839642Y-75160714D01*
X111601547Y-74827380D02*
X111601547Y-75684523D01*
X111649166Y-75779761D01*
X111744404Y-75827380D01*
X111839642Y-75827380D01*
X112315833Y-75827380D02*
X112220595Y-75779761D01*
X112172976Y-75732142D01*
X112125357Y-75636904D01*
X112125357Y-75351190D01*
X112172976Y-75255952D01*
X112220595Y-75208333D01*
X112315833Y-75160714D01*
X112458690Y-75160714D01*
X112553928Y-75208333D01*
X112601547Y-75255952D01*
X112649166Y-75351190D01*
X112649166Y-75636904D01*
X112601547Y-75732142D01*
X112553928Y-75779761D01*
X112458690Y-75827380D01*
X112315833Y-75827380D01*
X113077738Y-75827380D02*
X113077738Y-75160714D01*
X113077738Y-75351190D02*
X113125357Y-75255952D01*
X113172976Y-75208333D01*
X113268214Y-75160714D01*
X113363452Y-75160714D01*
X114792023Y-75303571D02*
X114934880Y-75351190D01*
X114982500Y-75398809D01*
X115030119Y-75494047D01*
X115030119Y-75636904D01*
X114982500Y-75732142D01*
X114934880Y-75779761D01*
X114839642Y-75827380D01*
X114458690Y-75827380D01*
X114458690Y-74827380D01*
X114792023Y-74827380D01*
X114887261Y-74875000D01*
X114934880Y-74922619D01*
X114982500Y-75017857D01*
X114982500Y-75113095D01*
X114934880Y-75208333D01*
X114887261Y-75255952D01*
X114792023Y-75303571D01*
X114458690Y-75303571D01*
X115601547Y-75827380D02*
X115506309Y-75779761D01*
X115458690Y-75732142D01*
X115411071Y-75636904D01*
X115411071Y-75351190D01*
X115458690Y-75255952D01*
X115506309Y-75208333D01*
X115601547Y-75160714D01*
X115744404Y-75160714D01*
X115839642Y-75208333D01*
X115887261Y-75255952D01*
X115934880Y-75351190D01*
X115934880Y-75636904D01*
X115887261Y-75732142D01*
X115839642Y-75779761D01*
X115744404Y-75827380D01*
X115601547Y-75827380D01*
X116792023Y-75827380D02*
X116792023Y-75303571D01*
X116744404Y-75208333D01*
X116649166Y-75160714D01*
X116458690Y-75160714D01*
X116363452Y-75208333D01*
X116792023Y-75779761D02*
X116696785Y-75827380D01*
X116458690Y-75827380D01*
X116363452Y-75779761D01*
X116315833Y-75684523D01*
X116315833Y-75589285D01*
X116363452Y-75494047D01*
X116458690Y-75446428D01*
X116696785Y-75446428D01*
X116792023Y-75398809D01*
X117268214Y-75827380D02*
X117268214Y-75160714D01*
X117268214Y-75351190D02*
X117315833Y-75255952D01*
X117363452Y-75208333D01*
X117458690Y-75160714D01*
X117553928Y-75160714D01*
X118315833Y-75827380D02*
X118315833Y-74827380D01*
X118315833Y-75779761D02*
X118220595Y-75827380D01*
X118030119Y-75827380D01*
X117934880Y-75779761D01*
X117887261Y-75732142D01*
X117839642Y-75636904D01*
X117839642Y-75351190D01*
X117887261Y-75255952D01*
X117934880Y-75208333D01*
X118030119Y-75160714D01*
X118220595Y-75160714D01*
X118315833Y-75208333D01*
X97030119Y-76715476D02*
X96934880Y-76667857D01*
X96744404Y-76667857D01*
X96649166Y-76715476D01*
X96553928Y-76810714D01*
X96506309Y-76905952D01*
X96506309Y-77096428D01*
X96553928Y-77191666D01*
X96649166Y-77286904D01*
X96744404Y-77334523D01*
X96934880Y-77334523D01*
X97030119Y-77286904D01*
X96839642Y-76334523D02*
X96601547Y-76382142D01*
X96363452Y-76525000D01*
X96220595Y-76763095D01*
X96172976Y-77001190D01*
X96220595Y-77239285D01*
X96363452Y-77477380D01*
X96601547Y-77620238D01*
X96839642Y-77667857D01*
X97077738Y-77620238D01*
X97315833Y-77477380D01*
X97458690Y-77239285D01*
X97506309Y-77001190D01*
X97458690Y-76763095D01*
X97315833Y-76525000D01*
X97077738Y-76382142D01*
X96839642Y-76334523D01*
X98649166Y-76572619D02*
X98696785Y-76525000D01*
X98792023Y-76477380D01*
X99030119Y-76477380D01*
X99125357Y-76525000D01*
X99172976Y-76572619D01*
X99220595Y-76667857D01*
X99220595Y-76763095D01*
X99172976Y-76905952D01*
X98601547Y-77477380D01*
X99220595Y-77477380D01*
X99839642Y-76477380D02*
X99934880Y-76477380D01*
X100030119Y-76525000D01*
X100077738Y-76572619D01*
X100125357Y-76667857D01*
X100172976Y-76858333D01*
X100172976Y-77096428D01*
X100125357Y-77286904D01*
X100077738Y-77382142D01*
X100030119Y-77429761D01*
X99934880Y-77477380D01*
X99839642Y-77477380D01*
X99744404Y-77429761D01*
X99696785Y-77382142D01*
X99649166Y-77286904D01*
X99601547Y-77096428D01*
X99601547Y-76858333D01*
X99649166Y-76667857D01*
X99696785Y-76572619D01*
X99744404Y-76525000D01*
X99839642Y-76477380D01*
X100553928Y-76572619D02*
X100601547Y-76525000D01*
X100696785Y-76477380D01*
X100934880Y-76477380D01*
X101030119Y-76525000D01*
X101077738Y-76572619D01*
X101125357Y-76667857D01*
X101125357Y-76763095D01*
X101077738Y-76905952D01*
X100506309Y-77477380D01*
X101125357Y-77477380D01*
X101744404Y-76477380D02*
X101839642Y-76477380D01*
X101934880Y-76525000D01*
X101982500Y-76572619D01*
X102030119Y-76667857D01*
X102077738Y-76858333D01*
X102077738Y-77096428D01*
X102030119Y-77286904D01*
X101982500Y-77382142D01*
X101934880Y-77429761D01*
X101839642Y-77477380D01*
X101744404Y-77477380D01*
X101649166Y-77429761D01*
X101601547Y-77382142D01*
X101553928Y-77286904D01*
X101506309Y-77096428D01*
X101506309Y-76858333D01*
X101553928Y-76667857D01*
X101601547Y-76572619D01*
X101649166Y-76525000D01*
X101744404Y-76477380D01*
X103172976Y-76477380D02*
X103411071Y-77477380D01*
X103601547Y-76763095D01*
X103792023Y-77477380D01*
X104030119Y-76477380D01*
X104553928Y-77477380D02*
X104458690Y-77429761D01*
X104411071Y-77382142D01*
X104363452Y-77286904D01*
X104363452Y-77001190D01*
X104411071Y-76905952D01*
X104458690Y-76858333D01*
X104553928Y-76810714D01*
X104696785Y-76810714D01*
X104792023Y-76858333D01*
X104839642Y-76905952D01*
X104887261Y-77001190D01*
X104887261Y-77286904D01*
X104839642Y-77382142D01*
X104792023Y-77429761D01*
X104696785Y-77477380D01*
X104553928Y-77477380D01*
X105458690Y-77477380D02*
X105363452Y-77429761D01*
X105315833Y-77334523D01*
X105315833Y-76477380D01*
X105696785Y-76810714D02*
X106077738Y-76810714D01*
X105839642Y-77477380D02*
X105839642Y-76620238D01*
X105887261Y-76525000D01*
X105982500Y-76477380D01*
X106077738Y-76477380D01*
X106839642Y-76810714D02*
X106839642Y-77620238D01*
X106792023Y-77715476D01*
X106744404Y-77763095D01*
X106649166Y-77810714D01*
X106506309Y-77810714D01*
X106411071Y-77763095D01*
X106839642Y-77429761D02*
X106744404Y-77477380D01*
X106553928Y-77477380D01*
X106458690Y-77429761D01*
X106411071Y-77382142D01*
X106363452Y-77286904D01*
X106363452Y-77001190D01*
X106411071Y-76905952D01*
X106458690Y-76858333D01*
X106553928Y-76810714D01*
X106744404Y-76810714D01*
X106839642Y-76858333D01*
X107744404Y-77477380D02*
X107744404Y-76953571D01*
X107696785Y-76858333D01*
X107601547Y-76810714D01*
X107411071Y-76810714D01*
X107315833Y-76858333D01*
X107744404Y-77429761D02*
X107649166Y-77477380D01*
X107411071Y-77477380D01*
X107315833Y-77429761D01*
X107268214Y-77334523D01*
X107268214Y-77239285D01*
X107315833Y-77144047D01*
X107411071Y-77096428D01*
X107649166Y-77096428D01*
X107744404Y-77048809D01*
X108220595Y-76810714D02*
X108220595Y-77477380D01*
X108220595Y-76905952D02*
X108268214Y-76858333D01*
X108363452Y-76810714D01*
X108506309Y-76810714D01*
X108601547Y-76858333D01*
X108649166Y-76953571D01*
X108649166Y-77477380D01*
X109553928Y-76810714D02*
X109553928Y-77620238D01*
X109506309Y-77715476D01*
X109458690Y-77763095D01*
X109363452Y-77810714D01*
X109220595Y-77810714D01*
X109125357Y-77763095D01*
X109553928Y-77429761D02*
X109458690Y-77477380D01*
X109268214Y-77477380D01*
X109172976Y-77429761D01*
X109125357Y-77382142D01*
X109077738Y-77286904D01*
X109077738Y-77001190D01*
X109125357Y-76905952D01*
X109172976Y-76858333D01*
X109268214Y-76810714D01*
X109458690Y-76810714D01*
X109553928Y-76858333D01*
X111363452Y-77477380D02*
X111030119Y-77001190D01*
X110792023Y-77477380D02*
X110792023Y-76477380D01*
X111172976Y-76477380D01*
X111268214Y-76525000D01*
X111315833Y-76572619D01*
X111363452Y-76667857D01*
X111363452Y-76810714D01*
X111315833Y-76905952D01*
X111268214Y-76953571D01*
X111172976Y-77001190D01*
X110792023Y-77001190D01*
X112172976Y-77429761D02*
X112077738Y-77477380D01*
X111887261Y-77477380D01*
X111792023Y-77429761D01*
X111744404Y-77334523D01*
X111744404Y-76953571D01*
X111792023Y-76858333D01*
X111887261Y-76810714D01*
X112077738Y-76810714D01*
X112172976Y-76858333D01*
X112220595Y-76953571D01*
X112220595Y-77048809D01*
X111744404Y-77144047D01*
X113077738Y-76810714D02*
X113077738Y-77477380D01*
X112649166Y-76810714D02*
X112649166Y-77334523D01*
X112696785Y-77429761D01*
X112792023Y-77477380D01*
X112934880Y-77477380D01*
X113030119Y-77429761D01*
X113077738Y-77382142D01*
X113411071Y-76810714D02*
X113792023Y-76810714D01*
X113553928Y-76477380D02*
X113553928Y-77334523D01*
X113601547Y-77429761D01*
X113696785Y-77477380D01*
X113792023Y-77477380D01*
X114030119Y-76810714D02*
X114553928Y-76810714D01*
X114030119Y-77477380D01*
X114553928Y-77477380D01*
X95504285Y-114113571D02*
X96004285Y-115613571D01*
X96504285Y-114113571D01*
X96932857Y-114256428D02*
X97004285Y-114185000D01*
X97147142Y-114113571D01*
X97504285Y-114113571D01*
X97647142Y-114185000D01*
X97718571Y-114256428D01*
X97790000Y-114399285D01*
X97790000Y-114542142D01*
X97718571Y-114756428D01*
X96861428Y-115613571D01*
X97790000Y-115613571D01*
X98432857Y-115470714D02*
X98504285Y-115542142D01*
X98432857Y-115613571D01*
X98361428Y-115542142D01*
X98432857Y-115470714D01*
X98432857Y-115613571D01*
X99932857Y-115613571D02*
X99075714Y-115613571D01*
X99504285Y-115613571D02*
X99504285Y-114113571D01*
X99361428Y-114327857D01*
X99218571Y-114470714D01*
X99075714Y-114542142D01*
X178697380Y-100861190D02*
X177697380Y-100861190D01*
X177697380Y-100480238D01*
X177745000Y-100385000D01*
X177792619Y-100337380D01*
X177887857Y-100289761D01*
X178030714Y-100289761D01*
X178125952Y-100337380D01*
X178173571Y-100385000D01*
X178221190Y-100480238D01*
X178221190Y-100861190D01*
X178697380Y-99718333D02*
X178649761Y-99813571D01*
X178602142Y-99861190D01*
X178506904Y-99908809D01*
X178221190Y-99908809D01*
X178125952Y-99861190D01*
X178078333Y-99813571D01*
X178030714Y-99718333D01*
X178030714Y-99575476D01*
X178078333Y-99480238D01*
X178125952Y-99432619D01*
X178221190Y-99385000D01*
X178506904Y-99385000D01*
X178602142Y-99432619D01*
X178649761Y-99480238D01*
X178697380Y-99575476D01*
X178697380Y-99718333D01*
X178030714Y-99099285D02*
X178030714Y-98718333D01*
X177697380Y-98956428D02*
X178554523Y-98956428D01*
X178649761Y-98908809D01*
X178697380Y-98813571D01*
X178697380Y-98718333D01*
X178649761Y-98004047D02*
X178697380Y-98099285D01*
X178697380Y-98289761D01*
X178649761Y-98385000D01*
X178554523Y-98432619D01*
X178173571Y-98432619D01*
X178078333Y-98385000D01*
X178030714Y-98289761D01*
X178030714Y-98099285D01*
X178078333Y-98004047D01*
X178173571Y-97956428D01*
X178268809Y-97956428D01*
X178364047Y-98432619D01*
X178030714Y-97527857D02*
X178697380Y-97527857D01*
X178125952Y-97527857D02*
X178078333Y-97480238D01*
X178030714Y-97385000D01*
X178030714Y-97242142D01*
X178078333Y-97146904D01*
X178173571Y-97099285D01*
X178697380Y-97099285D01*
X178030714Y-96765952D02*
X178030714Y-96385000D01*
X177697380Y-96623095D02*
X178554523Y-96623095D01*
X178649761Y-96575476D01*
X178697380Y-96480238D01*
X178697380Y-96385000D01*
X178697380Y-96051666D02*
X178030714Y-96051666D01*
X177697380Y-96051666D02*
X177745000Y-96099285D01*
X177792619Y-96051666D01*
X177745000Y-96004047D01*
X177697380Y-96051666D01*
X177792619Y-96051666D01*
X178697380Y-95432619D02*
X178649761Y-95527857D01*
X178602142Y-95575476D01*
X178506904Y-95623095D01*
X178221190Y-95623095D01*
X178125952Y-95575476D01*
X178078333Y-95527857D01*
X178030714Y-95432619D01*
X178030714Y-95289761D01*
X178078333Y-95194523D01*
X178125952Y-95146904D01*
X178221190Y-95099285D01*
X178506904Y-95099285D01*
X178602142Y-95146904D01*
X178649761Y-95194523D01*
X178697380Y-95289761D01*
X178697380Y-95432619D01*
X178697380Y-94670714D02*
X178030714Y-94670714D01*
X178125952Y-94670714D02*
X178078333Y-94623095D01*
X178030714Y-94527857D01*
X178030714Y-94385000D01*
X178078333Y-94289761D01*
X178173571Y-94242142D01*
X178697380Y-94242142D01*
X178173571Y-94242142D02*
X178078333Y-94194523D01*
X178030714Y-94099285D01*
X178030714Y-93956428D01*
X178078333Y-93861190D01*
X178173571Y-93813571D01*
X178697380Y-93813571D01*
X178649761Y-92956428D02*
X178697380Y-93051666D01*
X178697380Y-93242142D01*
X178649761Y-93337380D01*
X178554523Y-93385000D01*
X178173571Y-93385000D01*
X178078333Y-93337380D01*
X178030714Y-93242142D01*
X178030714Y-93051666D01*
X178078333Y-92956428D01*
X178173571Y-92908809D01*
X178268809Y-92908809D01*
X178364047Y-93385000D01*
X178030714Y-92623095D02*
X178030714Y-92242142D01*
X177697380Y-92480238D02*
X178554523Y-92480238D01*
X178649761Y-92432619D01*
X178697380Y-92337380D01*
X178697380Y-92242142D01*
X178649761Y-91527857D02*
X178697380Y-91623095D01*
X178697380Y-91813571D01*
X178649761Y-91908809D01*
X178554523Y-91956428D01*
X178173571Y-91956428D01*
X178078333Y-91908809D01*
X178030714Y-91813571D01*
X178030714Y-91623095D01*
X178078333Y-91527857D01*
X178173571Y-91480238D01*
X178268809Y-91480238D01*
X178364047Y-91956428D01*
X178697380Y-91051666D02*
X178030714Y-91051666D01*
X178221190Y-91051666D02*
X178125952Y-91004047D01*
X178078333Y-90956428D01*
X178030714Y-90861190D01*
X178030714Y-90765952D01*
X179347380Y-100551666D02*
X180156904Y-100551666D01*
X180252142Y-100504047D01*
X180299761Y-100456428D01*
X180347380Y-100361190D01*
X180347380Y-100170714D01*
X180299761Y-100075476D01*
X180252142Y-100027857D01*
X180156904Y-99980238D01*
X179347380Y-99980238D01*
X179680714Y-99504047D02*
X180347380Y-99504047D01*
X179775952Y-99504047D02*
X179728333Y-99456428D01*
X179680714Y-99361190D01*
X179680714Y-99218333D01*
X179728333Y-99123095D01*
X179823571Y-99075476D01*
X180347380Y-99075476D01*
X180299761Y-98170714D02*
X180347380Y-98265952D01*
X180347380Y-98456428D01*
X180299761Y-98551666D01*
X180252142Y-98599285D01*
X180156904Y-98646904D01*
X179871190Y-98646904D01*
X179775952Y-98599285D01*
X179728333Y-98551666D01*
X179680714Y-98456428D01*
X179680714Y-98265952D01*
X179728333Y-98170714D01*
X180347380Y-97313571D02*
X179823571Y-97313571D01*
X179728333Y-97361190D01*
X179680714Y-97456428D01*
X179680714Y-97646904D01*
X179728333Y-97742142D01*
X180299761Y-97313571D02*
X180347380Y-97408809D01*
X180347380Y-97646904D01*
X180299761Y-97742142D01*
X180204523Y-97789761D01*
X180109285Y-97789761D01*
X180014047Y-97742142D01*
X179966428Y-97646904D01*
X179966428Y-97408809D01*
X179918809Y-97313571D01*
X180347380Y-96694523D02*
X180299761Y-96789761D01*
X180204523Y-96837380D01*
X179347380Y-96837380D01*
X180299761Y-95599285D02*
X180347380Y-95456428D01*
X180347380Y-95218333D01*
X180299761Y-95123095D01*
X180252142Y-95075476D01*
X180156904Y-95027857D01*
X180061666Y-95027857D01*
X179966428Y-95075476D01*
X179918809Y-95123095D01*
X179871190Y-95218333D01*
X179823571Y-95408809D01*
X179775952Y-95504047D01*
X179728333Y-95551666D01*
X179633095Y-95599285D01*
X179537857Y-95599285D01*
X179442619Y-95551666D01*
X179395000Y-95504047D01*
X179347380Y-95408809D01*
X179347380Y-95170714D01*
X179395000Y-95027857D01*
X179680714Y-94694523D02*
X180347380Y-94504047D01*
X179871190Y-94313571D01*
X180347380Y-94123095D01*
X179680714Y-93932619D01*
X180347380Y-93551666D02*
X179680714Y-93551666D01*
X179347380Y-93551666D02*
X179395000Y-93599285D01*
X179442619Y-93551666D01*
X179395000Y-93504047D01*
X179347380Y-93551666D01*
X179442619Y-93551666D01*
X179680714Y-93218333D02*
X179680714Y-92837380D01*
X179347380Y-93075476D02*
X180204523Y-93075476D01*
X180299761Y-93027857D01*
X180347380Y-92932619D01*
X180347380Y-92837380D01*
X180299761Y-92075476D02*
X180347380Y-92170714D01*
X180347380Y-92361190D01*
X180299761Y-92456428D01*
X180252142Y-92504047D01*
X180156904Y-92551666D01*
X179871190Y-92551666D01*
X179775952Y-92504047D01*
X179728333Y-92456428D01*
X179680714Y-92361190D01*
X179680714Y-92170714D01*
X179728333Y-92075476D01*
X180347380Y-91646904D02*
X179347380Y-91646904D01*
X180347380Y-91218333D02*
X179823571Y-91218333D01*
X179728333Y-91265952D01*
X179680714Y-91361190D01*
X179680714Y-91504047D01*
X179728333Y-91599285D01*
X179775952Y-91646904D01*
X108577619Y-104592380D02*
X108577619Y-103592380D01*
X108910952Y-104306666D01*
X109244285Y-103592380D01*
X109244285Y-104592380D01*
X109863333Y-104592380D02*
X109768095Y-104544761D01*
X109720476Y-104497142D01*
X109672857Y-104401904D01*
X109672857Y-104116190D01*
X109720476Y-104020952D01*
X109768095Y-103973333D01*
X109863333Y-103925714D01*
X110006190Y-103925714D01*
X110101428Y-103973333D01*
X110149047Y-104020952D01*
X110196666Y-104116190D01*
X110196666Y-104401904D01*
X110149047Y-104497142D01*
X110101428Y-104544761D01*
X110006190Y-104592380D01*
X109863333Y-104592380D01*
X110625238Y-103925714D02*
X110625238Y-104592380D01*
X110625238Y-104020952D02*
X110672857Y-103973333D01*
X110768095Y-103925714D01*
X110910952Y-103925714D01*
X111006190Y-103973333D01*
X111053809Y-104068571D01*
X111053809Y-104592380D01*
X111530000Y-104592380D02*
X111530000Y-103925714D01*
X111530000Y-103592380D02*
X111482380Y-103640000D01*
X111530000Y-103687619D01*
X111577619Y-103640000D01*
X111530000Y-103592380D01*
X111530000Y-103687619D01*
X111863333Y-103925714D02*
X112244285Y-103925714D01*
X112006190Y-103592380D02*
X112006190Y-104449523D01*
X112053809Y-104544761D01*
X112149047Y-104592380D01*
X112244285Y-104592380D01*
X112720476Y-104592380D02*
X112625238Y-104544761D01*
X112577619Y-104497142D01*
X112530000Y-104401904D01*
X112530000Y-104116190D01*
X112577619Y-104020952D01*
X112625238Y-103973333D01*
X112720476Y-103925714D01*
X112863333Y-103925714D01*
X112958571Y-103973333D01*
X113006190Y-104020952D01*
X113053809Y-104116190D01*
X113053809Y-104401904D01*
X113006190Y-104497142D01*
X112958571Y-104544761D01*
X112863333Y-104592380D01*
X112720476Y-104592380D01*
X113482380Y-104592380D02*
X113482380Y-103925714D01*
X113482380Y-104116190D02*
X113530000Y-104020952D01*
X113577619Y-103973333D01*
X113672857Y-103925714D01*
X113768095Y-103925714D01*
X114815714Y-104306666D02*
X115291904Y-104306666D01*
X114720476Y-104592380D02*
X115053809Y-103592380D01*
X115387142Y-104592380D01*
X115720476Y-104592380D02*
X115720476Y-103925714D01*
X115720476Y-104020952D02*
X115768095Y-103973333D01*
X115863333Y-103925714D01*
X116006190Y-103925714D01*
X116101428Y-103973333D01*
X116149047Y-104068571D01*
X116149047Y-104592380D01*
X116149047Y-104068571D02*
X116196666Y-103973333D01*
X116291904Y-103925714D01*
X116434761Y-103925714D01*
X116530000Y-103973333D01*
X116577619Y-104068571D01*
X116577619Y-104592380D01*
X117053809Y-103925714D02*
X117053809Y-104925714D01*
X117053809Y-103973333D02*
X117149047Y-103925714D01*
X117339523Y-103925714D01*
X117434761Y-103973333D01*
X117482380Y-104020952D01*
X117530000Y-104116190D01*
X117530000Y-104401904D01*
X117482380Y-104497142D01*
X117434761Y-104544761D01*
X117339523Y-104592380D01*
X117149047Y-104592380D01*
X117053809Y-104544761D01*
X135136666Y-104592380D02*
X135136666Y-103592380D01*
X135517619Y-103592380D01*
X135612857Y-103640000D01*
X135660476Y-103687619D01*
X135708095Y-103782857D01*
X135708095Y-103925714D01*
X135660476Y-104020952D01*
X135612857Y-104068571D01*
X135517619Y-104116190D01*
X135136666Y-104116190D01*
X136565238Y-103925714D02*
X136565238Y-104592380D01*
X136136666Y-103925714D02*
X136136666Y-104449523D01*
X136184285Y-104544761D01*
X136279523Y-104592380D01*
X136422380Y-104592380D01*
X136517619Y-104544761D01*
X136565238Y-104497142D01*
X136993809Y-104544761D02*
X137089047Y-104592380D01*
X137279523Y-104592380D01*
X137374761Y-104544761D01*
X137422380Y-104449523D01*
X137422380Y-104401904D01*
X137374761Y-104306666D01*
X137279523Y-104259047D01*
X137136666Y-104259047D01*
X137041428Y-104211428D01*
X136993809Y-104116190D01*
X136993809Y-104068571D01*
X137041428Y-103973333D01*
X137136666Y-103925714D01*
X137279523Y-103925714D01*
X137374761Y-103973333D01*
X137850952Y-104592380D02*
X137850952Y-103592380D01*
X138279523Y-104592380D02*
X138279523Y-104068571D01*
X138231904Y-103973333D01*
X138136666Y-103925714D01*
X137993809Y-103925714D01*
X137898571Y-103973333D01*
X137850952Y-104020952D01*
X138755714Y-104592380D02*
X138755714Y-103592380D01*
X138755714Y-103973333D02*
X138850952Y-103925714D01*
X139041428Y-103925714D01*
X139136666Y-103973333D01*
X139184285Y-104020952D01*
X139231904Y-104116190D01*
X139231904Y-104401904D01*
X139184285Y-104497142D01*
X139136666Y-104544761D01*
X139041428Y-104592380D01*
X138850952Y-104592380D01*
X138755714Y-104544761D01*
X140089047Y-103925714D02*
X140089047Y-104592380D01*
X139660476Y-103925714D02*
X139660476Y-104449523D01*
X139708095Y-104544761D01*
X139803333Y-104592380D01*
X139946190Y-104592380D01*
X140041428Y-104544761D01*
X140089047Y-104497142D01*
X140422380Y-103925714D02*
X140803333Y-103925714D01*
X140565238Y-103592380D02*
X140565238Y-104449523D01*
X140612857Y-104544761D01*
X140708095Y-104592380D01*
X140803333Y-104592380D01*
X140993809Y-103925714D02*
X141374761Y-103925714D01*
X141136666Y-103592380D02*
X141136666Y-104449523D01*
X141184285Y-104544761D01*
X141279523Y-104592380D01*
X141374761Y-104592380D01*
X141850952Y-104592380D02*
X141755714Y-104544761D01*
X141708095Y-104497142D01*
X141660476Y-104401904D01*
X141660476Y-104116190D01*
X141708095Y-104020952D01*
X141755714Y-103973333D01*
X141850952Y-103925714D01*
X141993809Y-103925714D01*
X142089047Y-103973333D01*
X142136666Y-104020952D01*
X142184285Y-104116190D01*
X142184285Y-104401904D01*
X142136666Y-104497142D01*
X142089047Y-104544761D01*
X141993809Y-104592380D01*
X141850952Y-104592380D01*
X142612857Y-103925714D02*
X142612857Y-104592380D01*
X142612857Y-104020952D02*
X142660476Y-103973333D01*
X142755714Y-103925714D01*
X142898571Y-103925714D01*
X142993809Y-103973333D01*
X143041428Y-104068571D01*
X143041428Y-104592380D01*
X144279523Y-104592380D02*
X144279523Y-103592380D01*
X144660476Y-103592380D01*
X144755714Y-103640000D01*
X144803333Y-103687619D01*
X144850952Y-103782857D01*
X144850952Y-103925714D01*
X144803333Y-104020952D01*
X144755714Y-104068571D01*
X144660476Y-104116190D01*
X144279523Y-104116190D01*
X145850952Y-104497142D02*
X145803333Y-104544761D01*
X145660476Y-104592380D01*
X145565238Y-104592380D01*
X145422380Y-104544761D01*
X145327142Y-104449523D01*
X145279523Y-104354285D01*
X145231904Y-104163809D01*
X145231904Y-104020952D01*
X145279523Y-103830476D01*
X145327142Y-103735238D01*
X145422380Y-103640000D01*
X145565238Y-103592380D01*
X145660476Y-103592380D01*
X145803333Y-103640000D01*
X145850952Y-103687619D01*
X146612857Y-104068571D02*
X146755714Y-104116190D01*
X146803333Y-104163809D01*
X146850952Y-104259047D01*
X146850952Y-104401904D01*
X146803333Y-104497142D01*
X146755714Y-104544761D01*
X146660476Y-104592380D01*
X146279523Y-104592380D01*
X146279523Y-103592380D01*
X146612857Y-103592380D01*
X146708095Y-103640000D01*
X146755714Y-103687619D01*
X146803333Y-103782857D01*
X146803333Y-103878095D01*
X146755714Y-103973333D01*
X146708095Y-104020952D01*
X146612857Y-104068571D01*
X146279523Y-104068571D01*
X122856904Y-77732380D02*
X122856904Y-76732380D01*
X122856904Y-77208571D02*
X123428333Y-77208571D01*
X123428333Y-77732380D02*
X123428333Y-76732380D01*
X124285476Y-77684761D02*
X124190238Y-77732380D01*
X123999761Y-77732380D01*
X123904523Y-77684761D01*
X123856904Y-77589523D01*
X123856904Y-77208571D01*
X123904523Y-77113333D01*
X123999761Y-77065714D01*
X124190238Y-77065714D01*
X124285476Y-77113333D01*
X124333095Y-77208571D01*
X124333095Y-77303809D01*
X123856904Y-77399047D01*
X125190238Y-77732380D02*
X125190238Y-77208571D01*
X125142619Y-77113333D01*
X125047380Y-77065714D01*
X124856904Y-77065714D01*
X124761666Y-77113333D01*
X125190238Y-77684761D02*
X125095000Y-77732380D01*
X124856904Y-77732380D01*
X124761666Y-77684761D01*
X124714047Y-77589523D01*
X124714047Y-77494285D01*
X124761666Y-77399047D01*
X124856904Y-77351428D01*
X125095000Y-77351428D01*
X125190238Y-77303809D01*
X126095000Y-77732380D02*
X126095000Y-76732380D01*
X126095000Y-77684761D02*
X125999761Y-77732380D01*
X125809285Y-77732380D01*
X125714047Y-77684761D01*
X125666428Y-77637142D01*
X125618809Y-77541904D01*
X125618809Y-77256190D01*
X125666428Y-77160952D01*
X125714047Y-77113333D01*
X125809285Y-77065714D01*
X125999761Y-77065714D01*
X126095000Y-77113333D01*
X126571190Y-77351428D02*
X127333095Y-77351428D01*
X123095000Y-78715714D02*
X123095000Y-79715714D01*
X123095000Y-78763333D02*
X123190238Y-78715714D01*
X123380714Y-78715714D01*
X123475952Y-78763333D01*
X123523571Y-78810952D01*
X123571190Y-78906190D01*
X123571190Y-79191904D01*
X123523571Y-79287142D01*
X123475952Y-79334761D01*
X123380714Y-79382380D01*
X123190238Y-79382380D01*
X123095000Y-79334761D01*
X123999761Y-79382380D02*
X123999761Y-78382380D01*
X124428333Y-79382380D02*
X124428333Y-78858571D01*
X124380714Y-78763333D01*
X124285476Y-78715714D01*
X124142619Y-78715714D01*
X124047380Y-78763333D01*
X123999761Y-78810952D01*
X125047380Y-79382380D02*
X124952142Y-79334761D01*
X124904523Y-79287142D01*
X124856904Y-79191904D01*
X124856904Y-78906190D01*
X124904523Y-78810952D01*
X124952142Y-78763333D01*
X125047380Y-78715714D01*
X125190238Y-78715714D01*
X125285476Y-78763333D01*
X125333095Y-78810952D01*
X125380714Y-78906190D01*
X125380714Y-79191904D01*
X125333095Y-79287142D01*
X125285476Y-79334761D01*
X125190238Y-79382380D01*
X125047380Y-79382380D01*
X125809285Y-78715714D02*
X125809285Y-79382380D01*
X125809285Y-78810952D02*
X125856904Y-78763333D01*
X125952142Y-78715714D01*
X126095000Y-78715714D01*
X126190238Y-78763333D01*
X126237857Y-78858571D01*
X126237857Y-79382380D01*
X127095000Y-79334761D02*
X126999761Y-79382380D01*
X126809285Y-79382380D01*
X126714047Y-79334761D01*
X126666428Y-79239523D01*
X126666428Y-78858571D01*
X126714047Y-78763333D01*
X126809285Y-78715714D01*
X126999761Y-78715714D01*
X127095000Y-78763333D01*
X127142619Y-78858571D01*
X127142619Y-78953809D01*
X126666428Y-79049047D01*
X171862857Y-78827380D02*
X172196190Y-79827380D01*
X172529523Y-78827380D01*
X172862857Y-78827380D02*
X172862857Y-79636904D01*
X172910476Y-79732142D01*
X172958095Y-79779761D01*
X173053333Y-79827380D01*
X173243809Y-79827380D01*
X173339047Y-79779761D01*
X173386666Y-79732142D01*
X173434285Y-79636904D01*
X173434285Y-78827380D01*
X115578571Y-96333571D02*
X116078571Y-97833571D01*
X116578571Y-96333571D01*
X117078571Y-96333571D02*
X117078571Y-97547857D01*
X117150000Y-97690714D01*
X117221428Y-97762142D01*
X117364285Y-97833571D01*
X117650000Y-97833571D01*
X117792857Y-97762142D01*
X117864285Y-97690714D01*
X117935714Y-97547857D01*
X117935714Y-96333571D01*
X118650000Y-97262142D02*
X119792857Y-97262142D01*
X121221428Y-97833571D02*
X120507142Y-97833571D01*
X120507142Y-96333571D01*
X122292857Y-97762142D02*
X122150000Y-97833571D01*
X121864285Y-97833571D01*
X121721428Y-97762142D01*
X121650000Y-97619285D01*
X121650000Y-97047857D01*
X121721428Y-96905000D01*
X121864285Y-96833571D01*
X122150000Y-96833571D01*
X122292857Y-96905000D01*
X122364285Y-97047857D01*
X122364285Y-97190714D01*
X121650000Y-97333571D01*
X122864285Y-96833571D02*
X123221428Y-97833571D01*
X123578571Y-96833571D01*
X124721428Y-97762142D02*
X124578571Y-97833571D01*
X124292857Y-97833571D01*
X124150000Y-97762142D01*
X124078571Y-97619285D01*
X124078571Y-97047857D01*
X124150000Y-96905000D01*
X124292857Y-96833571D01*
X124578571Y-96833571D01*
X124721428Y-96905000D01*
X124792857Y-97047857D01*
X124792857Y-97190714D01*
X124078571Y-97333571D01*
X125650000Y-97833571D02*
X125507142Y-97762142D01*
X125435714Y-97619285D01*
X125435714Y-96333571D01*
X108890714Y-97833571D02*
X108176428Y-97833571D01*
X108176428Y-96333571D01*
X109390714Y-97047857D02*
X109890714Y-97047857D01*
X110105000Y-97833571D02*
X109390714Y-97833571D01*
X109390714Y-96333571D01*
X110105000Y-96333571D01*
X110747857Y-97833571D02*
X110747857Y-96333571D01*
X111105000Y-96333571D01*
X111319285Y-96405000D01*
X111462142Y-96547857D01*
X111533571Y-96690714D01*
X111605000Y-96976428D01*
X111605000Y-97190714D01*
X111533571Y-97476428D01*
X111462142Y-97619285D01*
X111319285Y-97762142D01*
X111105000Y-97833571D01*
X110747857Y-97833571D01*
D11*
X140335000Y-115570000D02*
X140335000Y-120015000D01*
D12*
X140970000Y-109595000D02*
X140970000Y-112895000D01*
D10*
X139192000Y-109595000D02*
X139192000Y-108703000D01*
X139192000Y-119117000D02*
X139446000Y-119371000D01*
X140208000Y-119117000D02*
X140208000Y-112897000D01*
X140208000Y-119117000D02*
X139192000Y-119117000D01*
X139954000Y-119371000D02*
X140208000Y-119117000D01*
X139192000Y-112897000D02*
X139192000Y-119117000D01*
X139446000Y-119371000D02*
X139954000Y-119371000D01*
X139700000Y-119371000D02*
X139700000Y-120133000D01*
X140208000Y-109595000D02*
X140208000Y-108703000D01*
X137414000Y-119371000D02*
X137668000Y-119117000D01*
X137668000Y-109595000D02*
X137668000Y-108703000D01*
X136906000Y-119371000D02*
X137414000Y-119371000D01*
X136652000Y-112897000D02*
X136652000Y-119117000D01*
X136652000Y-109595000D02*
X136652000Y-108703000D01*
X137668000Y-119117000D02*
X137668000Y-112897000D01*
X136652000Y-119117000D02*
X136906000Y-119371000D01*
X137668000Y-119117000D02*
X136652000Y-119117000D01*
X135128000Y-119117000D02*
X134112000Y-119117000D01*
X134112000Y-112897000D02*
X134112000Y-119117000D01*
X134112000Y-109595000D02*
X134112000Y-108703000D01*
X135128000Y-109595000D02*
X135128000Y-108703000D01*
X134874000Y-119371000D02*
X135128000Y-119117000D01*
X135128000Y-119117000D02*
X135128000Y-112897000D01*
X134112000Y-119117000D02*
X134366000Y-119371000D01*
X134366000Y-119371000D02*
X134874000Y-119371000D01*
X131572000Y-109595000D02*
X131572000Y-108703000D01*
X132588000Y-109595000D02*
X132588000Y-108703000D01*
X132588000Y-119117000D02*
X131572000Y-119117000D01*
X132334000Y-119371000D02*
X132588000Y-119117000D01*
X131572000Y-119117000D02*
X131826000Y-119371000D01*
X131826000Y-119371000D02*
X132334000Y-119371000D01*
X132588000Y-119117000D02*
X132588000Y-112897000D01*
X131572000Y-112897000D02*
X131572000Y-119117000D01*
X127508000Y-109595000D02*
X127508000Y-108703000D01*
X130048000Y-109595000D02*
X130048000Y-108703000D01*
X129032000Y-112897000D02*
X129032000Y-119117000D01*
X129032000Y-109595000D02*
X129032000Y-108703000D01*
X130048000Y-119117000D02*
X130048000Y-112897000D01*
X126492000Y-119117000D02*
X127508000Y-119117000D01*
X129032000Y-119117000D02*
X129286000Y-119371000D01*
X130048000Y-119117000D02*
X129032000Y-119117000D01*
X129794000Y-119371000D02*
X130048000Y-119117000D01*
X129286000Y-119371000D02*
X129794000Y-119371000D01*
X126492000Y-119117000D02*
X126492000Y-112897000D01*
X126746000Y-119371000D02*
X126492000Y-119117000D01*
X127000000Y-119371000D02*
X126746000Y-119371000D01*
X127254000Y-119371000D02*
X127000000Y-119371000D01*
X127508000Y-119117000D02*
X127254000Y-119371000D01*
X127508000Y-112897000D02*
X127508000Y-119117000D01*
X126492000Y-108703000D02*
X126492000Y-109595000D01*
X127762000Y-120895000D02*
X138938000Y-120895000D01*
X127000000Y-119371000D02*
X127000000Y-120133000D01*
D12*
X140970000Y-112895000D02*
X125730000Y-112895000D01*
X125730000Y-109595000D02*
X140970000Y-109595000D01*
X125730000Y-109595000D02*
X125730000Y-112895000D01*
D10*
X139700000Y-120133000D02*
G75*
G02*
X138938000Y-120895000I-762000J0D01*
G01*
X127762000Y-120895000D02*
G75*
G02*
X127000000Y-120133000I0J762000D01*
G01*
D12*
X157480000Y-109595000D02*
X157480000Y-112895000D01*
D10*
X155702000Y-109595000D02*
X155702000Y-108703000D01*
X155702000Y-119117000D02*
X155956000Y-119371000D01*
X156718000Y-119117000D02*
X156718000Y-112897000D01*
X156718000Y-119117000D02*
X155702000Y-119117000D01*
X156464000Y-119371000D02*
X156718000Y-119117000D01*
X155702000Y-112897000D02*
X155702000Y-119117000D01*
X155956000Y-119371000D02*
X156464000Y-119371000D01*
X156210000Y-119371000D02*
X156210000Y-120133000D01*
X156718000Y-109595000D02*
X156718000Y-108703000D01*
X153924000Y-119371000D02*
X154178000Y-119117000D01*
X154178000Y-109595000D02*
X154178000Y-108703000D01*
X153416000Y-119371000D02*
X153924000Y-119371000D01*
X153162000Y-112897000D02*
X153162000Y-119117000D01*
X153162000Y-109595000D02*
X153162000Y-108703000D01*
X154178000Y-119117000D02*
X154178000Y-112897000D01*
X153162000Y-119117000D02*
X153416000Y-119371000D01*
X154178000Y-119117000D02*
X153162000Y-119117000D01*
X151638000Y-119117000D02*
X150622000Y-119117000D01*
X150622000Y-112897000D02*
X150622000Y-119117000D01*
X150622000Y-109595000D02*
X150622000Y-108703000D01*
X151638000Y-109595000D02*
X151638000Y-108703000D01*
X151384000Y-119371000D02*
X151638000Y-119117000D01*
X151638000Y-119117000D02*
X151638000Y-112897000D01*
X150622000Y-119117000D02*
X150876000Y-119371000D01*
X150876000Y-119371000D02*
X151384000Y-119371000D01*
X148082000Y-109595000D02*
X148082000Y-108703000D01*
X149098000Y-109595000D02*
X149098000Y-108703000D01*
X149098000Y-119117000D02*
X148082000Y-119117000D01*
X148844000Y-119371000D02*
X149098000Y-119117000D01*
X148082000Y-119117000D02*
X148336000Y-119371000D01*
X148336000Y-119371000D02*
X148844000Y-119371000D01*
X149098000Y-119117000D02*
X149098000Y-112897000D01*
X148082000Y-112897000D02*
X148082000Y-119117000D01*
X144018000Y-109595000D02*
X144018000Y-108703000D01*
X146558000Y-109595000D02*
X146558000Y-108703000D01*
X145542000Y-112897000D02*
X145542000Y-119117000D01*
X145542000Y-109595000D02*
X145542000Y-108703000D01*
X146558000Y-119117000D02*
X146558000Y-112897000D01*
X143002000Y-119117000D02*
X144018000Y-119117000D01*
X145542000Y-119117000D02*
X145796000Y-119371000D01*
X146558000Y-119117000D02*
X145542000Y-119117000D01*
X146304000Y-119371000D02*
X146558000Y-119117000D01*
X145796000Y-119371000D02*
X146304000Y-119371000D01*
X143002000Y-119117000D02*
X143002000Y-112897000D01*
X143256000Y-119371000D02*
X143002000Y-119117000D01*
X143510000Y-119371000D02*
X143256000Y-119371000D01*
X143764000Y-119371000D02*
X143510000Y-119371000D01*
X144018000Y-119117000D02*
X143764000Y-119371000D01*
X144018000Y-112897000D02*
X144018000Y-119117000D01*
X143002000Y-108703000D02*
X143002000Y-109595000D01*
X144272000Y-120895000D02*
X155448000Y-120895000D01*
X143510000Y-119371000D02*
X143510000Y-120133000D01*
D12*
X157480000Y-112895000D02*
X142240000Y-112895000D01*
X142240000Y-109595000D02*
X157480000Y-109595000D01*
X142240000Y-109595000D02*
X142240000Y-112895000D01*
D10*
X156210000Y-120133000D02*
G75*
G02*
X155448000Y-120895000I-762000J0D01*
G01*
X144272000Y-120895000D02*
G75*
G02*
X143510000Y-120133000I0J762000D01*
G01*
X118872000Y-119117000D02*
X119126000Y-119371000D01*
X118872000Y-112897000D02*
X118872000Y-119117000D01*
X119126000Y-119371000D02*
X119634000Y-119371000D01*
X118872000Y-109595000D02*
X118872000Y-108703000D01*
X119888000Y-119117000D02*
X118872000Y-119117000D01*
X119634000Y-119371000D02*
X119888000Y-119117000D01*
X119888000Y-109595000D02*
X119888000Y-108703000D01*
X119888000Y-119117000D02*
X119888000Y-112897000D01*
X121920000Y-119371000D02*
X121920000Y-120133000D01*
X121412000Y-119117000D02*
X121666000Y-119371000D01*
X121412000Y-112897000D02*
X121412000Y-119117000D01*
X121666000Y-119371000D02*
X122174000Y-119371000D01*
X121412000Y-109595000D02*
X121412000Y-108703000D01*
X122428000Y-119117000D02*
X121412000Y-119117000D01*
X122174000Y-119371000D02*
X122428000Y-119117000D01*
X122428000Y-109595000D02*
X122428000Y-108703000D01*
X122428000Y-119117000D02*
X122428000Y-112897000D01*
D12*
X123190000Y-109595000D02*
X123190000Y-112895000D01*
D10*
X116332000Y-109595000D02*
X116332000Y-108703000D01*
X116332000Y-119117000D02*
X116586000Y-119371000D01*
X117348000Y-119117000D02*
X117348000Y-112897000D01*
X117348000Y-119117000D02*
X116332000Y-119117000D01*
X117094000Y-119371000D02*
X117348000Y-119117000D01*
X116332000Y-112897000D02*
X116332000Y-119117000D01*
X116586000Y-119371000D02*
X117094000Y-119371000D01*
X117348000Y-109595000D02*
X117348000Y-108703000D01*
X114554000Y-119371000D02*
X114808000Y-119117000D01*
X114808000Y-109595000D02*
X114808000Y-108703000D01*
X114046000Y-119371000D02*
X114554000Y-119371000D01*
X113792000Y-112897000D02*
X113792000Y-119117000D01*
X113792000Y-109595000D02*
X113792000Y-108703000D01*
X114808000Y-119117000D02*
X114808000Y-112897000D01*
X113792000Y-119117000D02*
X114046000Y-119371000D01*
X114808000Y-119117000D02*
X113792000Y-119117000D01*
X112268000Y-119117000D02*
X111252000Y-119117000D01*
X111252000Y-112897000D02*
X111252000Y-119117000D01*
X111252000Y-109595000D02*
X111252000Y-108703000D01*
X112268000Y-109595000D02*
X112268000Y-108703000D01*
X112014000Y-119371000D02*
X112268000Y-119117000D01*
X112268000Y-119117000D02*
X112268000Y-112897000D01*
X111252000Y-119117000D02*
X111506000Y-119371000D01*
X111506000Y-119371000D02*
X112014000Y-119371000D01*
X108712000Y-109595000D02*
X108712000Y-108703000D01*
X109728000Y-109595000D02*
X109728000Y-108703000D01*
X109728000Y-119117000D02*
X108712000Y-119117000D01*
X109474000Y-119371000D02*
X109728000Y-119117000D01*
X108712000Y-119117000D02*
X108966000Y-119371000D01*
X108966000Y-119371000D02*
X109474000Y-119371000D01*
X109728000Y-119117000D02*
X109728000Y-112897000D01*
X108712000Y-112897000D02*
X108712000Y-119117000D01*
X104648000Y-109595000D02*
X104648000Y-108703000D01*
X107188000Y-109595000D02*
X107188000Y-108703000D01*
X106172000Y-112897000D02*
X106172000Y-119117000D01*
X106172000Y-109595000D02*
X106172000Y-108703000D01*
X107188000Y-119117000D02*
X107188000Y-112897000D01*
X103632000Y-119117000D02*
X104648000Y-119117000D01*
X106172000Y-119117000D02*
X106426000Y-119371000D01*
X107188000Y-119117000D02*
X106172000Y-119117000D01*
X106934000Y-119371000D02*
X107188000Y-119117000D01*
X106426000Y-119371000D02*
X106934000Y-119371000D01*
X103632000Y-119117000D02*
X103632000Y-112897000D01*
X103886000Y-119371000D02*
X103632000Y-119117000D01*
X104140000Y-119371000D02*
X103886000Y-119371000D01*
X104394000Y-119371000D02*
X104140000Y-119371000D01*
X104648000Y-119117000D02*
X104394000Y-119371000D01*
X104648000Y-112897000D02*
X104648000Y-119117000D01*
X103632000Y-108703000D02*
X103632000Y-109595000D01*
X104902000Y-120895000D02*
X121158000Y-120895000D01*
X104140000Y-119371000D02*
X104140000Y-120133000D01*
D12*
X123190000Y-112895000D02*
X102870000Y-112895000D01*
X102870000Y-109595000D02*
X123190000Y-109595000D01*
X102870000Y-109595000D02*
X102870000Y-112895000D01*
D10*
X121920000Y-120133000D02*
G75*
G02*
X121158000Y-120895000I-762000J0D01*
G01*
X104902000Y-120895000D02*
G75*
G02*
X104140000Y-120133000I0J762000D01*
G01*
X176022000Y-119117000D02*
X176276000Y-119371000D01*
X176022000Y-112897000D02*
X176022000Y-119117000D01*
X176276000Y-119371000D02*
X176784000Y-119371000D01*
X176022000Y-109595000D02*
X176022000Y-108703000D01*
X177038000Y-119117000D02*
X176022000Y-119117000D01*
X176784000Y-119371000D02*
X177038000Y-119117000D01*
X177038000Y-109595000D02*
X177038000Y-108703000D01*
X177038000Y-119117000D02*
X177038000Y-112897000D01*
X179070000Y-119371000D02*
X179070000Y-120133000D01*
X178562000Y-119117000D02*
X178816000Y-119371000D01*
X178562000Y-112897000D02*
X178562000Y-119117000D01*
X178816000Y-119371000D02*
X179324000Y-119371000D01*
X178562000Y-109595000D02*
X178562000Y-108703000D01*
X179578000Y-119117000D02*
X178562000Y-119117000D01*
X179324000Y-119371000D02*
X179578000Y-119117000D01*
X179578000Y-109595000D02*
X179578000Y-108703000D01*
X179578000Y-119117000D02*
X179578000Y-112897000D01*
D12*
X180340000Y-109595000D02*
X180340000Y-112895000D01*
D10*
X173482000Y-109595000D02*
X173482000Y-108703000D01*
X173482000Y-119117000D02*
X173736000Y-119371000D01*
X174498000Y-119117000D02*
X174498000Y-112897000D01*
X174498000Y-119117000D02*
X173482000Y-119117000D01*
X174244000Y-119371000D02*
X174498000Y-119117000D01*
X173482000Y-112897000D02*
X173482000Y-119117000D01*
X173736000Y-119371000D02*
X174244000Y-119371000D01*
X174498000Y-109595000D02*
X174498000Y-108703000D01*
X171704000Y-119371000D02*
X171958000Y-119117000D01*
X171958000Y-109595000D02*
X171958000Y-108703000D01*
X171196000Y-119371000D02*
X171704000Y-119371000D01*
X170942000Y-112897000D02*
X170942000Y-119117000D01*
X170942000Y-109595000D02*
X170942000Y-108703000D01*
X171958000Y-119117000D02*
X171958000Y-112897000D01*
X170942000Y-119117000D02*
X171196000Y-119371000D01*
X171958000Y-119117000D02*
X170942000Y-119117000D01*
X169418000Y-119117000D02*
X168402000Y-119117000D01*
X168402000Y-112897000D02*
X168402000Y-119117000D01*
X168402000Y-109595000D02*
X168402000Y-108703000D01*
X169418000Y-109595000D02*
X169418000Y-108703000D01*
X169164000Y-119371000D02*
X169418000Y-119117000D01*
X169418000Y-119117000D02*
X169418000Y-112897000D01*
X168402000Y-119117000D02*
X168656000Y-119371000D01*
X168656000Y-119371000D02*
X169164000Y-119371000D01*
X165862000Y-109595000D02*
X165862000Y-108703000D01*
X166878000Y-109595000D02*
X166878000Y-108703000D01*
X166878000Y-119117000D02*
X165862000Y-119117000D01*
X166624000Y-119371000D02*
X166878000Y-119117000D01*
X165862000Y-119117000D02*
X166116000Y-119371000D01*
X166116000Y-119371000D02*
X166624000Y-119371000D01*
X166878000Y-119117000D02*
X166878000Y-112897000D01*
X165862000Y-112897000D02*
X165862000Y-119117000D01*
X161798000Y-109595000D02*
X161798000Y-108703000D01*
X164338000Y-109595000D02*
X164338000Y-108703000D01*
X163322000Y-112897000D02*
X163322000Y-119117000D01*
X163322000Y-109595000D02*
X163322000Y-108703000D01*
X164338000Y-119117000D02*
X164338000Y-112897000D01*
X160782000Y-119117000D02*
X161798000Y-119117000D01*
X163322000Y-119117000D02*
X163576000Y-119371000D01*
X164338000Y-119117000D02*
X163322000Y-119117000D01*
X164084000Y-119371000D02*
X164338000Y-119117000D01*
X163576000Y-119371000D02*
X164084000Y-119371000D01*
X160782000Y-119117000D02*
X160782000Y-112897000D01*
X161036000Y-119371000D02*
X160782000Y-119117000D01*
X161290000Y-119371000D02*
X161036000Y-119371000D01*
X161544000Y-119371000D02*
X161290000Y-119371000D01*
X161798000Y-119117000D02*
X161544000Y-119371000D01*
X161798000Y-112897000D02*
X161798000Y-119117000D01*
X160782000Y-108703000D02*
X160782000Y-109595000D01*
X162052000Y-120895000D02*
X178308000Y-120895000D01*
X161290000Y-119371000D02*
X161290000Y-120133000D01*
D12*
X180340000Y-112895000D02*
X160020000Y-112895000D01*
X160020000Y-109595000D02*
X180340000Y-109595000D01*
X160020000Y-109595000D02*
X160020000Y-112895000D01*
D10*
X179070000Y-120133000D02*
G75*
G02*
X178308000Y-120895000I-762000J0D01*
G01*
X162052000Y-120895000D02*
G75*
G02*
X161290000Y-120133000I0J762000D01*
G01*
X194682000Y-90043000D02*
X194936000Y-89789000D01*
X188462000Y-90043000D02*
X194682000Y-90043000D01*
X194936000Y-89789000D02*
X194936000Y-89281000D01*
X185160000Y-90043000D02*
X184268000Y-90043000D01*
X194682000Y-89027000D02*
X194682000Y-90043000D01*
X194936000Y-89281000D02*
X194682000Y-89027000D01*
X185160000Y-89027000D02*
X184268000Y-89027000D01*
X194682000Y-89027000D02*
X188462000Y-89027000D01*
X194936000Y-86995000D02*
X195698000Y-86995000D01*
X194682000Y-87503000D02*
X194936000Y-87249000D01*
X188462000Y-87503000D02*
X194682000Y-87503000D01*
X194936000Y-87249000D02*
X194936000Y-86741000D01*
X185160000Y-87503000D02*
X184268000Y-87503000D01*
X194682000Y-86487000D02*
X194682000Y-87503000D01*
X194936000Y-86741000D02*
X194682000Y-86487000D01*
X185160000Y-86487000D02*
X184268000Y-86487000D01*
X194682000Y-86487000D02*
X188462000Y-86487000D01*
D12*
X185160000Y-85725000D02*
X188460000Y-85725000D01*
D10*
X185160000Y-92583000D02*
X184268000Y-92583000D01*
X194682000Y-92583000D02*
X194936000Y-92329000D01*
X194682000Y-91567000D02*
X188462000Y-91567000D01*
X194682000Y-91567000D02*
X194682000Y-92583000D01*
X194936000Y-91821000D02*
X194682000Y-91567000D01*
X188462000Y-92583000D02*
X194682000Y-92583000D01*
X194936000Y-92329000D02*
X194936000Y-91821000D01*
X185160000Y-91567000D02*
X184268000Y-91567000D01*
X194936000Y-94361000D02*
X194682000Y-94107000D01*
X185160000Y-94107000D02*
X184268000Y-94107000D01*
X194936000Y-94869000D02*
X194936000Y-94361000D01*
X188462000Y-95123000D02*
X194682000Y-95123000D01*
X185160000Y-95123000D02*
X184268000Y-95123000D01*
X194682000Y-94107000D02*
X188462000Y-94107000D01*
X194682000Y-95123000D02*
X194936000Y-94869000D01*
X194682000Y-94107000D02*
X194682000Y-95123000D01*
X194682000Y-96647000D02*
X194682000Y-97663000D01*
X188462000Y-97663000D02*
X194682000Y-97663000D01*
X185160000Y-97663000D02*
X184268000Y-97663000D01*
X185160000Y-96647000D02*
X184268000Y-96647000D01*
X194936000Y-96901000D02*
X194682000Y-96647000D01*
X194682000Y-96647000D02*
X188462000Y-96647000D01*
X194682000Y-97663000D02*
X194936000Y-97409000D01*
X194936000Y-97409000D02*
X194936000Y-96901000D01*
X185160000Y-100203000D02*
X184268000Y-100203000D01*
X185160000Y-99187000D02*
X184268000Y-99187000D01*
X194682000Y-99187000D02*
X194682000Y-100203000D01*
X194936000Y-99441000D02*
X194682000Y-99187000D01*
X194682000Y-100203000D02*
X194936000Y-99949000D01*
X194936000Y-99949000D02*
X194936000Y-99441000D01*
X194682000Y-99187000D02*
X188462000Y-99187000D01*
X188462000Y-100203000D02*
X194682000Y-100203000D01*
X185160000Y-104267000D02*
X184268000Y-104267000D01*
X185160000Y-101727000D02*
X184268000Y-101727000D01*
X188462000Y-102743000D02*
X194682000Y-102743000D01*
X185160000Y-102743000D02*
X184268000Y-102743000D01*
X194682000Y-101727000D02*
X188462000Y-101727000D01*
X194682000Y-105283000D02*
X194682000Y-104267000D01*
X194682000Y-102743000D02*
X194936000Y-102489000D01*
X194682000Y-101727000D02*
X194682000Y-102743000D01*
X194936000Y-101981000D02*
X194682000Y-101727000D01*
X194936000Y-102489000D02*
X194936000Y-101981000D01*
X194682000Y-105283000D02*
X188462000Y-105283000D01*
X194936000Y-105029000D02*
X194682000Y-105283000D01*
X194936000Y-104775000D02*
X194936000Y-105029000D01*
X194936000Y-104521000D02*
X194936000Y-104775000D01*
X194682000Y-104267000D02*
X194936000Y-104521000D01*
X188462000Y-104267000D02*
X194682000Y-104267000D01*
X184268000Y-105283000D02*
X185160000Y-105283000D01*
X196460000Y-104013000D02*
X196460000Y-87757000D01*
X194936000Y-104775000D02*
X195698000Y-104775000D01*
D12*
X188460000Y-85725000D02*
X188460000Y-106045000D01*
X185160000Y-106045000D02*
X185160000Y-85725000D01*
X185160000Y-106045000D02*
X188460000Y-106045000D01*
D10*
X195698000Y-86995000D02*
G75*
G02*
X196460000Y-87757000I0J-762000D01*
G01*
X196460000Y-104013000D02*
G75*
G02*
X195698000Y-104775000I-762000J0D01*
G01*
X168012000Y-75057000D02*
X168012000Y-76073000D01*
X161792000Y-76073000D02*
X168012000Y-76073000D01*
X158490000Y-76073000D02*
X157598000Y-76073000D01*
X158490000Y-75057000D02*
X157598000Y-75057000D01*
X168266000Y-75311000D02*
X168012000Y-75057000D01*
X168012000Y-75057000D02*
X161792000Y-75057000D01*
X168012000Y-76073000D02*
X168266000Y-75819000D01*
X168266000Y-75819000D02*
X168266000Y-75311000D01*
X158490000Y-78613000D02*
X157598000Y-78613000D01*
X158490000Y-77597000D02*
X157598000Y-77597000D01*
X168012000Y-77597000D02*
X168012000Y-78613000D01*
X168266000Y-77851000D02*
X168012000Y-77597000D01*
X168012000Y-78613000D02*
X168266000Y-78359000D01*
X168266000Y-78359000D02*
X168266000Y-77851000D01*
X168012000Y-77597000D02*
X161792000Y-77597000D01*
X161792000Y-78613000D02*
X168012000Y-78613000D01*
X158490000Y-82677000D02*
X157598000Y-82677000D01*
X158490000Y-80137000D02*
X157598000Y-80137000D01*
X161792000Y-81153000D02*
X168012000Y-81153000D01*
X158490000Y-81153000D02*
X157598000Y-81153000D01*
X168012000Y-80137000D02*
X161792000Y-80137000D01*
X168012000Y-83693000D02*
X168012000Y-82677000D01*
X168012000Y-81153000D02*
X168266000Y-80899000D01*
X168012000Y-80137000D02*
X168012000Y-81153000D01*
X168266000Y-80391000D02*
X168012000Y-80137000D01*
X168266000Y-80899000D02*
X168266000Y-80391000D01*
X168012000Y-83693000D02*
X161792000Y-83693000D01*
X168266000Y-83439000D02*
X168012000Y-83693000D01*
X168266000Y-83185000D02*
X168266000Y-83439000D01*
X168266000Y-82931000D02*
X168266000Y-83185000D01*
X168012000Y-82677000D02*
X168266000Y-82931000D01*
X161792000Y-82677000D02*
X168012000Y-82677000D01*
X157598000Y-83693000D02*
X158490000Y-83693000D01*
X169790000Y-82423000D02*
X169790000Y-76327000D01*
X168266000Y-75565000D02*
X169028000Y-75565000D01*
X168266000Y-83185000D02*
X169028000Y-83185000D01*
D12*
X161790000Y-74295000D02*
X161790000Y-84455000D01*
X158490000Y-74295000D02*
X161790000Y-74295000D01*
X158490000Y-84455000D02*
X158490000Y-74295000D01*
X158490000Y-84455000D02*
X161790000Y-84455000D01*
D10*
X169028000Y-75565000D02*
G75*
G02*
X169790000Y-76327000I0J-762000D01*
G01*
X169790000Y-82423000D02*
G75*
G02*
X169028000Y-83185000I-762000J0D01*
G01*
X139325000Y-80137000D02*
X140217000Y-80137000D01*
X139325000Y-81153000D02*
X140217000Y-81153000D01*
X129803000Y-81153000D02*
X129803000Y-80137000D01*
X129549000Y-80899000D02*
X129803000Y-81153000D01*
X129803000Y-80137000D02*
X129549000Y-80391000D01*
X129549000Y-80391000D02*
X129549000Y-80899000D01*
X129803000Y-81153000D02*
X136023000Y-81153000D01*
X136023000Y-80137000D02*
X129803000Y-80137000D01*
X139325000Y-76073000D02*
X140217000Y-76073000D01*
X139325000Y-78613000D02*
X140217000Y-78613000D01*
X136023000Y-77597000D02*
X129803000Y-77597000D01*
X139325000Y-77597000D02*
X140217000Y-77597000D01*
X129803000Y-78613000D02*
X136023000Y-78613000D01*
X129803000Y-75057000D02*
X129803000Y-76073000D01*
X129803000Y-77597000D02*
X129549000Y-77851000D01*
X129803000Y-78613000D02*
X129803000Y-77597000D01*
X129549000Y-78359000D02*
X129803000Y-78613000D01*
X129549000Y-77851000D02*
X129549000Y-78359000D01*
X129803000Y-75057000D02*
X136023000Y-75057000D01*
X129549000Y-75311000D02*
X129803000Y-75057000D01*
X129549000Y-75565000D02*
X129549000Y-75311000D01*
X129549000Y-75819000D02*
X129549000Y-75565000D01*
X129803000Y-76073000D02*
X129549000Y-75819000D01*
X136023000Y-76073000D02*
X129803000Y-76073000D01*
X140217000Y-75057000D02*
X139325000Y-75057000D01*
X128025000Y-76327000D02*
X128025000Y-79883000D01*
X129549000Y-80645000D02*
X128787000Y-80645000D01*
X129549000Y-75565000D02*
X128787000Y-75565000D01*
D12*
X136025000Y-81915000D02*
X136025000Y-74295000D01*
X139325000Y-81915000D02*
X136025000Y-81915000D01*
X139325000Y-74295000D02*
X139325000Y-81915000D01*
X139325000Y-74295000D02*
X136025000Y-74295000D01*
D10*
X128787000Y-80645000D02*
G75*
G02*
X128025000Y-79883000I0J762000D01*
G01*
X128025000Y-76327000D02*
G75*
G02*
X128787000Y-75565000I762000J0D01*
G01*
X88274000Y-104521000D02*
X88274000Y-105029000D01*
X98050000Y-104267000D02*
X98942000Y-104267000D01*
X88528000Y-104267000D02*
X88274000Y-104521000D01*
X88528000Y-105283000D02*
X94748000Y-105283000D01*
X98050000Y-105283000D02*
X98942000Y-105283000D01*
X88274000Y-105029000D02*
X88528000Y-105283000D01*
X94748000Y-104267000D02*
X88528000Y-104267000D01*
X88528000Y-105283000D02*
X88528000Y-104267000D01*
X88274000Y-101981000D02*
X88274000Y-102489000D01*
X98050000Y-101727000D02*
X98942000Y-101727000D01*
X98050000Y-102743000D02*
X98942000Y-102743000D01*
X88528000Y-102743000D02*
X88528000Y-101727000D01*
X88274000Y-102489000D02*
X88528000Y-102743000D01*
X88528000Y-102743000D02*
X94748000Y-102743000D01*
X94748000Y-101727000D02*
X88528000Y-101727000D01*
X88528000Y-101727000D02*
X88274000Y-101981000D01*
X88528000Y-96647000D02*
X88274000Y-96901000D01*
X94748000Y-96647000D02*
X88528000Y-96647000D01*
X88274000Y-96901000D02*
X88274000Y-97409000D01*
X98050000Y-96647000D02*
X98942000Y-96647000D01*
X88528000Y-97663000D02*
X88528000Y-96647000D01*
X88274000Y-97409000D02*
X88528000Y-97663000D01*
X98050000Y-97663000D02*
X98942000Y-97663000D01*
X88528000Y-97663000D02*
X94748000Y-97663000D01*
X88274000Y-104775000D02*
X87512000Y-104775000D01*
X88528000Y-99187000D02*
X88274000Y-99441000D01*
X94748000Y-99187000D02*
X88528000Y-99187000D01*
X88274000Y-99441000D02*
X88274000Y-99949000D01*
X98050000Y-99187000D02*
X98942000Y-99187000D01*
X88528000Y-100203000D02*
X88528000Y-99187000D01*
X88274000Y-99949000D02*
X88528000Y-100203000D01*
X98050000Y-100203000D02*
X98942000Y-100203000D01*
X88528000Y-100203000D02*
X94748000Y-100203000D01*
D12*
X98050000Y-106045000D02*
X94750000Y-106045000D01*
D10*
X98050000Y-94107000D02*
X98942000Y-94107000D01*
X88528000Y-94107000D02*
X88274000Y-94361000D01*
X88528000Y-95123000D02*
X94748000Y-95123000D01*
X88528000Y-95123000D02*
X88528000Y-94107000D01*
X88274000Y-94869000D02*
X88528000Y-95123000D01*
X94748000Y-94107000D02*
X88528000Y-94107000D01*
X88274000Y-94361000D02*
X88274000Y-94869000D01*
X98050000Y-95123000D02*
X98942000Y-95123000D01*
X88274000Y-92329000D02*
X88528000Y-92583000D01*
X98050000Y-92583000D02*
X98942000Y-92583000D01*
X88274000Y-91821000D02*
X88274000Y-92329000D01*
X94748000Y-91567000D02*
X88528000Y-91567000D01*
X98050000Y-91567000D02*
X98942000Y-91567000D01*
X88528000Y-92583000D02*
X94748000Y-92583000D01*
X88528000Y-91567000D02*
X88274000Y-91821000D01*
X88528000Y-92583000D02*
X88528000Y-91567000D01*
X88528000Y-90043000D02*
X88528000Y-89027000D01*
X94748000Y-89027000D02*
X88528000Y-89027000D01*
X98050000Y-89027000D02*
X98942000Y-89027000D01*
X98050000Y-90043000D02*
X98942000Y-90043000D01*
X88274000Y-89789000D02*
X88528000Y-90043000D01*
X88528000Y-90043000D02*
X94748000Y-90043000D01*
X88528000Y-89027000D02*
X88274000Y-89281000D01*
X88274000Y-89281000D02*
X88274000Y-89789000D01*
X98050000Y-86487000D02*
X98942000Y-86487000D01*
X98050000Y-87503000D02*
X98942000Y-87503000D01*
X88528000Y-87503000D02*
X88528000Y-86487000D01*
X88274000Y-87249000D02*
X88528000Y-87503000D01*
X88528000Y-86487000D02*
X88274000Y-86741000D01*
X88274000Y-86741000D02*
X88274000Y-87249000D01*
X88528000Y-87503000D02*
X94748000Y-87503000D01*
X94748000Y-86487000D02*
X88528000Y-86487000D01*
X98050000Y-82423000D02*
X98942000Y-82423000D01*
X98050000Y-84963000D02*
X98942000Y-84963000D01*
X94748000Y-83947000D02*
X88528000Y-83947000D01*
X98050000Y-83947000D02*
X98942000Y-83947000D01*
X88528000Y-84963000D02*
X94748000Y-84963000D01*
X88528000Y-81407000D02*
X88528000Y-82423000D01*
X88528000Y-83947000D02*
X88274000Y-84201000D01*
X88528000Y-84963000D02*
X88528000Y-83947000D01*
X88274000Y-84709000D02*
X88528000Y-84963000D01*
X88274000Y-84201000D02*
X88274000Y-84709000D01*
X88528000Y-81407000D02*
X94748000Y-81407000D01*
X88274000Y-81661000D02*
X88528000Y-81407000D01*
X88274000Y-81915000D02*
X88274000Y-81661000D01*
X88274000Y-82169000D02*
X88274000Y-81915000D01*
X88528000Y-82423000D02*
X88274000Y-82169000D01*
X94748000Y-82423000D02*
X88528000Y-82423000D01*
X98942000Y-81407000D02*
X98050000Y-81407000D01*
X86750000Y-82677000D02*
X86750000Y-104013000D01*
X88274000Y-81915000D02*
X87512000Y-81915000D01*
D12*
X94750000Y-106045000D02*
X94750000Y-80645000D01*
X98050000Y-80645000D02*
X98050000Y-106045000D01*
X98050000Y-80645000D02*
X94750000Y-80645000D01*
D10*
X87512000Y-104775000D02*
G75*
G02*
X86750000Y-104013000I0J762000D01*
G01*
X86750000Y-82677000D02*
G75*
G02*
X87512000Y-81915000I762000J0D01*
G01*
D12*
X125535000Y-94405000D02*
X115765000Y-94405000D01*
X125535000Y-84635000D02*
X115765000Y-84635000D01*
X115765000Y-84635000D02*
X115765000Y-94405000D01*
X125535000Y-84635000D02*
X125535000Y-94405000D01*
X114740000Y-94405000D02*
X104970000Y-94405000D01*
X114740000Y-84635000D02*
X104970000Y-84635000D01*
X104970000Y-84635000D02*
X104970000Y-94405000D01*
X114740000Y-84635000D02*
X114740000Y-94405000D01*
X166580000Y-96960000D02*
X166580000Y-87190000D01*
X176350000Y-96960000D02*
X176350000Y-87190000D01*
X176350000Y-87190000D02*
X166580000Y-87190000D01*
X176350000Y-96960000D02*
X166580000Y-96960000D01*
X155150000Y-96960000D02*
X155150000Y-87190000D01*
X164920000Y-96960000D02*
X164920000Y-87190000D01*
X164920000Y-87190000D02*
X155150000Y-87190000D01*
X164920000Y-96960000D02*
X155150000Y-96960000D01*
D10*
X139600000Y-89535000D02*
G75*
G03*
X139600000Y-89535000I-6250000J0D01*
G01*
X152300000Y-89535000D02*
G75*
G03*
X152300000Y-89535000I-6250000J0D01*
G01*
X136890000Y-98790000D02*
X129890000Y-98790000D01*
X129890000Y-98790000D02*
X129890000Y-96790000D01*
X129890000Y-96790000D02*
X136890000Y-96790000D01*
X136890000Y-96790000D02*
X136890000Y-98790000D01*
X133350000Y-102870000D02*
X128270000Y-102870000D01*
X128270000Y-102870000D02*
X128270000Y-100330000D01*
X128270000Y-100330000D02*
X133350000Y-100330000D01*
X133350000Y-100330000D02*
X133350000Y-102870000D01*
X133350000Y-101600000D02*
X134620000Y-101600000D01*
X128270000Y-101600000D02*
X127000000Y-101600000D01*
X143510000Y-100330000D02*
X148590000Y-100330000D01*
X148590000Y-100330000D02*
X148590000Y-102870000D01*
X148590000Y-102870000D02*
X143510000Y-102870000D01*
X143510000Y-102870000D02*
X143510000Y-100330000D01*
X143510000Y-101600000D02*
X142240000Y-101600000D01*
X148590000Y-101600000D02*
X149860000Y-101600000D01*
X143510000Y-96520000D02*
X148590000Y-96520000D01*
X148590000Y-96520000D02*
X148590000Y-99060000D01*
X148590000Y-99060000D02*
X143510000Y-99060000D01*
X143510000Y-99060000D02*
X143510000Y-96520000D01*
X143510000Y-97790000D02*
X142240000Y-97790000D01*
X148590000Y-97790000D02*
X149860000Y-97790000D01*
X91331051Y-76200000D02*
G75*
G03*
X91331051Y-76200000I-1796051J0D01*
G01*
X196106051Y-76200000D02*
G75*
G03*
X196106051Y-76200000I-1796051J0D01*
G01*
X196106051Y-118110000D02*
G75*
G03*
X196106051Y-118110000I-1796051J0D01*
G01*
X91331051Y-118110000D02*
G75*
G03*
X91331051Y-118110000I-1796051J0D01*
G01*
D13*
X134300000Y-93035000D02*
G75*
G03*
X134300000Y-93035000I-950000J0D01*
G01*
X132400000Y-85085000D02*
X132400000Y-86985000D01*
X134300000Y-86985000D01*
X134300000Y-85085000D01*
X132400000Y-85085000D01*
X147000000Y-86035000D02*
G75*
G03*
X147000000Y-86035000I-950000J0D01*
G01*
X145100000Y-92085000D02*
X145100000Y-93985000D01*
X147000000Y-93985000D01*
X147000000Y-92085000D01*
X145100000Y-92085000D01*
X135290000Y-97190000D02*
X135290000Y-98390000D01*
X136490000Y-98390000D01*
X136490000Y-97190000D01*
X135290000Y-97190000D01*
X131490000Y-97790000D02*
G75*
G03*
X131490000Y-97790000I-600000J0D01*
G01*
X136839490Y-101600000D02*
G75*
G03*
X136839490Y-101600000I-949490J0D01*
G01*
X126679490Y-101600000D02*
G75*
G03*
X126679490Y-101600000I-949490J0D01*
G01*
X141919490Y-101600000D02*
G75*
G03*
X141919490Y-101600000I-949490J0D01*
G01*
X152079490Y-101600000D02*
G75*
G03*
X152079490Y-101600000I-949490J0D01*
G01*
X141919490Y-97790000D02*
G75*
G03*
X141919490Y-97790000I-949490J0D01*
G01*
X152079490Y-97790000D02*
G75*
G03*
X152079490Y-97790000I-949490J0D01*
G01*
D10*
X126666666Y-103592380D02*
X126666666Y-104306666D01*
X126619047Y-104449523D01*
X126523809Y-104544761D01*
X126380952Y-104592380D01*
X126285714Y-104592380D01*
X127571428Y-103592380D02*
X127380952Y-103592380D01*
X127285714Y-103640000D01*
X127238095Y-103687619D01*
X127142857Y-103830476D01*
X127095238Y-104020952D01*
X127095238Y-104401904D01*
X127142857Y-104497142D01*
X127190476Y-104544761D01*
X127285714Y-104592380D01*
X127476190Y-104592380D01*
X127571428Y-104544761D01*
X127619047Y-104497142D01*
X127666666Y-104401904D01*
X127666666Y-104163809D01*
X127619047Y-104068571D01*
X127571428Y-104020952D01*
X127476190Y-103973333D01*
X127285714Y-103973333D01*
X127190476Y-104020952D01*
X127142857Y-104068571D01*
X127095238Y-104163809D01*
X155876666Y-103592380D02*
X155876666Y-104306666D01*
X155829047Y-104449523D01*
X155733809Y-104544761D01*
X155590952Y-104592380D01*
X155495714Y-104592380D01*
X156257619Y-103592380D02*
X156924285Y-103592380D01*
X156495714Y-104592380D01*
X103806666Y-103592380D02*
X103806666Y-104306666D01*
X103759047Y-104449523D01*
X103663809Y-104544761D01*
X103520952Y-104592380D01*
X103425714Y-104592380D01*
X104711428Y-103925714D02*
X104711428Y-104592380D01*
X104473333Y-103544761D02*
X104235238Y-104259047D01*
X104854285Y-104259047D01*
X169846666Y-103592380D02*
X169846666Y-104306666D01*
X169799047Y-104449523D01*
X169703809Y-104544761D01*
X169560952Y-104592380D01*
X169465714Y-104592380D01*
X170799047Y-103592380D02*
X170322857Y-103592380D01*
X170275238Y-104068571D01*
X170322857Y-104020952D01*
X170418095Y-103973333D01*
X170656190Y-103973333D01*
X170751428Y-104020952D01*
X170799047Y-104068571D01*
X170846666Y-104163809D01*
X170846666Y-104401904D01*
X170799047Y-104497142D01*
X170751428Y-104544761D01*
X170656190Y-104592380D01*
X170418095Y-104592380D01*
X170322857Y-104544761D01*
X170275238Y-104497142D01*
X179157380Y-104473333D02*
X179871666Y-104473333D01*
X180014523Y-104520952D01*
X180109761Y-104616190D01*
X180157380Y-104759047D01*
X180157380Y-104854285D01*
X179585952Y-103854285D02*
X179538333Y-103949523D01*
X179490714Y-103997142D01*
X179395476Y-104044761D01*
X179347857Y-104044761D01*
X179252619Y-103997142D01*
X179205000Y-103949523D01*
X179157380Y-103854285D01*
X179157380Y-103663809D01*
X179205000Y-103568571D01*
X179252619Y-103520952D01*
X179347857Y-103473333D01*
X179395476Y-103473333D01*
X179490714Y-103520952D01*
X179538333Y-103568571D01*
X179585952Y-103663809D01*
X179585952Y-103854285D01*
X179633571Y-103949523D01*
X179681190Y-103997142D01*
X179776428Y-104044761D01*
X179966904Y-104044761D01*
X180062142Y-103997142D01*
X180109761Y-103949523D01*
X180157380Y-103854285D01*
X180157380Y-103663809D01*
X180109761Y-103568571D01*
X180062142Y-103520952D01*
X179966904Y-103473333D01*
X179776428Y-103473333D01*
X179681190Y-103520952D01*
X179633571Y-103568571D01*
X179585952Y-103663809D01*
X152487380Y-79708333D02*
X153201666Y-79708333D01*
X153344523Y-79755952D01*
X153439761Y-79851190D01*
X153487380Y-79994047D01*
X153487380Y-80089285D01*
X153487380Y-78708333D02*
X153487380Y-79279761D01*
X153487380Y-78994047D02*
X152487380Y-78994047D01*
X152630238Y-79089285D01*
X152725476Y-79184523D01*
X152773095Y-79279761D01*
X144232380Y-78438333D02*
X144946666Y-78438333D01*
X145089523Y-78485952D01*
X145184761Y-78581190D01*
X145232380Y-78724047D01*
X145232380Y-78819285D01*
X144232380Y-78057380D02*
X144232380Y-77438333D01*
X144613333Y-77771666D01*
X144613333Y-77628809D01*
X144660952Y-77533571D01*
X144708571Y-77485952D01*
X144803809Y-77438333D01*
X145041904Y-77438333D01*
X145137142Y-77485952D01*
X145184761Y-77533571D01*
X145232380Y-77628809D01*
X145232380Y-77914523D01*
X145184761Y-78009761D01*
X145137142Y-78057380D01*
X102957380Y-93678333D02*
X103671666Y-93678333D01*
X103814523Y-93725952D01*
X103909761Y-93821190D01*
X103957380Y-93964047D01*
X103957380Y-94059285D01*
X103052619Y-93249761D02*
X103005000Y-93202142D01*
X102957380Y-93106904D01*
X102957380Y-92868809D01*
X103005000Y-92773571D01*
X103052619Y-92725952D01*
X103147857Y-92678333D01*
X103243095Y-92678333D01*
X103385952Y-92725952D01*
X103957380Y-93297380D01*
X103957380Y-92678333D01*
X120483333Y-83637380D02*
X120150000Y-83161190D01*
X119911904Y-83637380D02*
X119911904Y-82637380D01*
X120292857Y-82637380D01*
X120388095Y-82685000D01*
X120435714Y-82732619D01*
X120483333Y-82827857D01*
X120483333Y-82970714D01*
X120435714Y-83065952D01*
X120388095Y-83113571D01*
X120292857Y-83161190D01*
X119911904Y-83161190D01*
X120864285Y-82732619D02*
X120911904Y-82685000D01*
X121007142Y-82637380D01*
X121245238Y-82637380D01*
X121340476Y-82685000D01*
X121388095Y-82732619D01*
X121435714Y-82827857D01*
X121435714Y-82923095D01*
X121388095Y-83065952D01*
X120816666Y-83637380D01*
X121435714Y-83637380D01*
X109688333Y-83637380D02*
X109355000Y-83161190D01*
X109116904Y-83637380D02*
X109116904Y-82637380D01*
X109497857Y-82637380D01*
X109593095Y-82685000D01*
X109640714Y-82732619D01*
X109688333Y-82827857D01*
X109688333Y-82970714D01*
X109640714Y-83065952D01*
X109593095Y-83113571D01*
X109497857Y-83161190D01*
X109116904Y-83161190D01*
X110640714Y-83637380D02*
X110069285Y-83637380D01*
X110355000Y-83637380D02*
X110355000Y-82637380D01*
X110259761Y-82780238D01*
X110164523Y-82875476D01*
X110069285Y-82923095D01*
X170807142Y-86812380D02*
X170473809Y-86336190D01*
X170235714Y-86812380D02*
X170235714Y-85812380D01*
X170616666Y-85812380D01*
X170711904Y-85860000D01*
X170759523Y-85907619D01*
X170807142Y-86002857D01*
X170807142Y-86145714D01*
X170759523Y-86240952D01*
X170711904Y-86288571D01*
X170616666Y-86336190D01*
X170235714Y-86336190D01*
X171759523Y-86812380D02*
X171188095Y-86812380D01*
X171473809Y-86812380D02*
X171473809Y-85812380D01*
X171378571Y-85955238D01*
X171283333Y-86050476D01*
X171188095Y-86098095D01*
X172140476Y-85907619D02*
X172188095Y-85860000D01*
X172283333Y-85812380D01*
X172521428Y-85812380D01*
X172616666Y-85860000D01*
X172664285Y-85907619D01*
X172711904Y-86002857D01*
X172711904Y-86098095D01*
X172664285Y-86240952D01*
X172092857Y-86812380D01*
X172711904Y-86812380D01*
X159392142Y-86812380D02*
X159058809Y-86336190D01*
X158820714Y-86812380D02*
X158820714Y-85812380D01*
X159201666Y-85812380D01*
X159296904Y-85860000D01*
X159344523Y-85907619D01*
X159392142Y-86002857D01*
X159392142Y-86145714D01*
X159344523Y-86240952D01*
X159296904Y-86288571D01*
X159201666Y-86336190D01*
X158820714Y-86336190D01*
X160344523Y-86812380D02*
X159773095Y-86812380D01*
X160058809Y-86812380D02*
X160058809Y-85812380D01*
X159963571Y-85955238D01*
X159868333Y-86050476D01*
X159773095Y-86098095D01*
X160677857Y-85812380D02*
X161296904Y-85812380D01*
X160963571Y-86193333D01*
X161106428Y-86193333D01*
X161201666Y-86240952D01*
X161249285Y-86288571D01*
X161296904Y-86383809D01*
X161296904Y-86621904D01*
X161249285Y-86717142D01*
X161201666Y-86764761D01*
X161106428Y-86812380D01*
X160820714Y-86812380D01*
X160725476Y-86764761D01*
X160677857Y-86717142D01*
X131262380Y-89701666D02*
X131262380Y-90177857D01*
X130262380Y-90177857D01*
X130357619Y-89415952D02*
X130310000Y-89368333D01*
X130262380Y-89273095D01*
X130262380Y-89035000D01*
X130310000Y-88939761D01*
X130357619Y-88892142D01*
X130452857Y-88844523D01*
X130548095Y-88844523D01*
X130690952Y-88892142D01*
X131262380Y-89463571D01*
X131262380Y-88844523D01*
X149042380Y-89701666D02*
X149042380Y-90177857D01*
X148042380Y-90177857D01*
X149042380Y-88844523D02*
X149042380Y-89415952D01*
X149042380Y-89130238D02*
X148042380Y-89130238D01*
X148185238Y-89225476D01*
X148280476Y-89320714D01*
X148328095Y-89415952D01*
X133183333Y-98147142D02*
X133135714Y-98194761D01*
X132992857Y-98242380D01*
X132897619Y-98242380D01*
X132754761Y-98194761D01*
X132659523Y-98099523D01*
X132611904Y-98004285D01*
X132564285Y-97813809D01*
X132564285Y-97670952D01*
X132611904Y-97480476D01*
X132659523Y-97385238D01*
X132754761Y-97290000D01*
X132897619Y-97242380D01*
X132992857Y-97242380D01*
X133135714Y-97290000D01*
X133183333Y-97337619D01*
X134135714Y-98242380D02*
X133564285Y-98242380D01*
X133850000Y-98242380D02*
X133850000Y-97242380D01*
X133754761Y-97385238D01*
X133659523Y-97480476D01*
X133564285Y-97528095D01*
X130167142Y-102052380D02*
X129833809Y-101576190D01*
X129595714Y-102052380D02*
X129595714Y-101052380D01*
X129976666Y-101052380D01*
X130071904Y-101100000D01*
X130119523Y-101147619D01*
X130167142Y-101242857D01*
X130167142Y-101385714D01*
X130119523Y-101480952D01*
X130071904Y-101528571D01*
X129976666Y-101576190D01*
X129595714Y-101576190D01*
X131119523Y-102052380D02*
X130548095Y-102052380D01*
X130833809Y-102052380D02*
X130833809Y-101052380D01*
X130738571Y-101195238D01*
X130643333Y-101290476D01*
X130548095Y-101338095D01*
X132071904Y-102052380D02*
X131500476Y-102052380D01*
X131786190Y-102052380D02*
X131786190Y-101052380D01*
X131690952Y-101195238D01*
X131595714Y-101290476D01*
X131500476Y-101338095D01*
X145407142Y-102052380D02*
X145073809Y-101576190D01*
X144835714Y-102052380D02*
X144835714Y-101052380D01*
X145216666Y-101052380D01*
X145311904Y-101100000D01*
X145359523Y-101147619D01*
X145407142Y-101242857D01*
X145407142Y-101385714D01*
X145359523Y-101480952D01*
X145311904Y-101528571D01*
X145216666Y-101576190D01*
X144835714Y-101576190D01*
X146359523Y-102052380D02*
X145788095Y-102052380D01*
X146073809Y-102052380D02*
X146073809Y-101052380D01*
X145978571Y-101195238D01*
X145883333Y-101290476D01*
X145788095Y-101338095D01*
X147216666Y-101385714D02*
X147216666Y-102052380D01*
X146978571Y-101004761D02*
X146740476Y-101719047D01*
X147359523Y-101719047D01*
X145407142Y-98242380D02*
X145073809Y-97766190D01*
X144835714Y-98242380D02*
X144835714Y-97242380D01*
X145216666Y-97242380D01*
X145311904Y-97290000D01*
X145359523Y-97337619D01*
X145407142Y-97432857D01*
X145407142Y-97575714D01*
X145359523Y-97670952D01*
X145311904Y-97718571D01*
X145216666Y-97766190D01*
X144835714Y-97766190D01*
X146359523Y-98242380D02*
X145788095Y-98242380D01*
X146073809Y-98242380D02*
X146073809Y-97242380D01*
X145978571Y-97385238D01*
X145883333Y-97480476D01*
X145788095Y-97528095D01*
X147264285Y-97242380D02*
X146788095Y-97242380D01*
X146740476Y-97718571D01*
X146788095Y-97670952D01*
X146883333Y-97623333D01*
X147121428Y-97623333D01*
X147216666Y-97670952D01*
X147264285Y-97718571D01*
X147311904Y-97813809D01*
X147311904Y-98051904D01*
X147264285Y-98147142D01*
X147216666Y-98194761D01*
X147121428Y-98242380D01*
X146883333Y-98242380D01*
X146788095Y-98194761D01*
X146740476Y-98147142D01*
M02*
