G04 #@! TF.GenerationSoftware,KiCad,Pcbnew,(5.1.9-0-10_14)*
G04 #@! TF.CreationDate,2020-12-29T17:03:32+01:00*
G04 #@! TF.ProjectId,Attentuator Board V2,41747465-6e74-4756-9174-6f7220426f61,2.1*
G04 #@! TF.SameCoordinates,Original*
G04 #@! TF.FileFunction,Copper,L1,Top*
G04 #@! TF.FilePolarity,Positive*
%FSLAX46Y46*%
G04 Gerber Fmt 4.6, Leading zero omitted, Abs format (unit mm)*
G04 Created by KiCad (PCBNEW (5.1.9-0-10_14)) date 2020-12-29 17:03:32*
%MOMM*%
%LPD*%
G01*
G04 APERTURE LIST*
G04 #@! TA.AperFunction,ComponentPad*
%ADD10O,1.740000X2.200000*%
G04 #@! TD*
G04 #@! TA.AperFunction,ComponentPad*
%ADD11R,1.740000X2.200000*%
G04 #@! TD*
G04 #@! TA.AperFunction,ComponentPad*
%ADD12O,2.200000X1.740000*%
G04 #@! TD*
G04 #@! TA.AperFunction,ComponentPad*
%ADD13R,2.200000X1.740000*%
G04 #@! TD*
G04 #@! TA.AperFunction,ComponentPad*
%ADD14C,1.440000*%
G04 #@! TD*
G04 #@! TA.AperFunction,ComponentPad*
%ADD15C,2.000000*%
G04 #@! TD*
G04 #@! TA.AperFunction,ComponentPad*
%ADD16R,2.000000X2.000000*%
G04 #@! TD*
G04 #@! TA.AperFunction,ComponentPad*
%ADD17R,1.300000X1.300000*%
G04 #@! TD*
G04 #@! TA.AperFunction,ComponentPad*
%ADD18C,1.300000*%
G04 #@! TD*
G04 #@! TA.AperFunction,ComponentPad*
%ADD19C,1.998980*%
G04 #@! TD*
G04 #@! TA.AperFunction,ViaPad*
%ADD20C,1.500000*%
G04 #@! TD*
G04 #@! TA.AperFunction,Conductor*
%ADD21C,0.600000*%
G04 #@! TD*
G04 APERTURE END LIST*
D10*
X139700000Y-107315000D03*
X137160000Y-107315000D03*
X134620000Y-107315000D03*
X132080000Y-107315000D03*
X129540000Y-107315000D03*
D11*
X127000000Y-107315000D03*
D10*
X156210000Y-107315000D03*
X153670000Y-107315000D03*
X151130000Y-107315000D03*
X148590000Y-107315000D03*
X146050000Y-107315000D03*
D11*
X143510000Y-107315000D03*
D10*
X119380000Y-107315000D03*
X121920000Y-107315000D03*
X116840000Y-107315000D03*
X114300000Y-107315000D03*
X111760000Y-107315000D03*
X109220000Y-107315000D03*
X106680000Y-107315000D03*
D11*
X104140000Y-107315000D03*
D10*
X176530000Y-107315000D03*
X179070000Y-107315000D03*
X173990000Y-107315000D03*
X171450000Y-107315000D03*
X168910000Y-107315000D03*
X166370000Y-107315000D03*
X163830000Y-107315000D03*
D11*
X161290000Y-107315000D03*
D12*
X182880000Y-89535000D03*
X182880000Y-86995000D03*
X182880000Y-92075000D03*
X182880000Y-94615000D03*
X182880000Y-97155000D03*
X182880000Y-99695000D03*
X182880000Y-102235000D03*
D13*
X182880000Y-104775000D03*
D12*
X156210000Y-75565000D03*
X156210000Y-78105000D03*
X156210000Y-80645000D03*
D13*
X156210000Y-83185000D03*
D12*
X141605000Y-80645000D03*
X141605000Y-78105000D03*
D13*
X141605000Y-75565000D03*
D12*
X100330000Y-104775000D03*
X100330000Y-102235000D03*
X100330000Y-97155000D03*
X100330000Y-99695000D03*
X100330000Y-94615000D03*
X100330000Y-92075000D03*
X100330000Y-89535000D03*
X100330000Y-86995000D03*
X100330000Y-84455000D03*
D13*
X100330000Y-81915000D03*
D14*
X118110000Y-89535000D03*
X120650000Y-92075000D03*
X123190000Y-89535000D03*
X107315000Y-89535000D03*
X109855000Y-92075000D03*
X112395000Y-89535000D03*
X171450000Y-89535000D03*
X168910000Y-92075000D03*
X171450000Y-94615000D03*
X160020000Y-89535000D03*
X157480000Y-92075000D03*
X160020000Y-94615000D03*
D15*
X133350000Y-93035000D03*
D16*
X133350000Y-86035000D03*
D15*
X146050000Y-86035000D03*
D16*
X146050000Y-93035000D03*
D17*
X135890000Y-97790000D03*
D18*
X130890000Y-97790000D03*
D19*
X135890000Y-101600000D03*
X125730000Y-101600000D03*
X140970000Y-101600000D03*
X151130000Y-101600000D03*
X140970000Y-97790000D03*
X151130000Y-97790000D03*
D20*
X118745000Y-83185000D03*
X123190000Y-112395000D03*
X114300000Y-112395000D03*
X106680000Y-112395000D03*
X127635000Y-86995000D03*
X121285000Y-101600000D03*
X117475000Y-101600000D03*
X108585000Y-100965000D03*
X112395000Y-97155000D03*
X168910000Y-112395000D03*
X168910000Y-104140000D03*
X142875000Y-95885000D03*
X154940000Y-95885000D03*
X132715000Y-101600000D03*
D21*
X182880000Y-89535000D02*
X178435000Y-89535000D01*
X178435000Y-89535000D02*
X175260000Y-92710000D01*
X175260000Y-92710000D02*
X175260000Y-100330000D01*
X171450000Y-104140000D02*
X171450000Y-107315000D01*
X175260000Y-100330000D02*
X171450000Y-104140000D01*
X146050000Y-93035000D02*
X148900000Y-93035000D01*
X148900000Y-93035000D02*
X155575000Y-86360000D01*
X155575000Y-86360000D02*
X176530000Y-86360000D01*
X176530000Y-86360000D02*
X178435000Y-84455000D01*
X178435000Y-84455000D02*
X184785000Y-84455000D01*
X184785000Y-84455000D02*
X186055000Y-85725000D01*
X186055000Y-85725000D02*
X186055000Y-88265000D01*
X184785000Y-89535000D02*
X182880000Y-89535000D01*
X186055000Y-88265000D02*
X184785000Y-89535000D01*
X146050000Y-93035000D02*
X138740000Y-93035000D01*
X135890000Y-95885000D02*
X135890000Y-97790000D01*
X138740000Y-93035000D02*
X135890000Y-95885000D01*
X156210000Y-83185000D02*
X153670000Y-83185000D01*
X147320000Y-89535000D02*
X123190000Y-89535000D01*
X153670000Y-83185000D02*
X147320000Y-89535000D01*
X118745000Y-83185000D02*
X149225000Y-83185000D01*
X151765000Y-80645000D02*
X156210000Y-80645000D01*
X149225000Y-83185000D02*
X151765000Y-80645000D01*
X156210000Y-78105000D02*
X152400000Y-78105000D01*
X152400000Y-78105000D02*
X147955000Y-73660000D01*
X147955000Y-73660000D02*
X99060000Y-73660000D01*
X99060000Y-73660000D02*
X92710000Y-80010000D01*
X92710000Y-80010000D02*
X92710000Y-98425000D01*
X96520000Y-102235000D02*
X100330000Y-102235000D01*
X92710000Y-98425000D02*
X96520000Y-102235000D01*
X100330000Y-92075000D02*
X102235000Y-92075000D01*
X102235000Y-92075000D02*
X105410000Y-88900000D01*
X105410000Y-88900000D02*
X105410000Y-88265000D01*
X105410000Y-88265000D02*
X106045000Y-87630000D01*
X106045000Y-87630000D02*
X107950000Y-87630000D01*
X107950000Y-87630000D02*
X109220000Y-88900000D01*
X109220000Y-88900000D02*
X109220000Y-90170000D01*
X106680000Y-92710000D02*
X106680000Y-107315000D01*
X109220000Y-90170000D02*
X106680000Y-92710000D01*
X123190000Y-112395000D02*
X114300000Y-112395000D01*
X106680000Y-112395000D02*
X106680000Y-107315000D01*
X127635000Y-86995000D02*
X117475000Y-86995000D01*
X117475000Y-86995000D02*
X113665000Y-83185000D01*
X113665000Y-83185000D02*
X106045000Y-83185000D01*
X104775000Y-81915000D02*
X100330000Y-81915000D01*
X106045000Y-83185000D02*
X104775000Y-81915000D01*
X115570000Y-103505000D02*
X116840000Y-104775000D01*
X115570000Y-88265000D02*
X115570000Y-103505000D01*
X113030000Y-85725000D02*
X115570000Y-88265000D01*
X116840000Y-104775000D02*
X116840000Y-107315000D01*
X103505000Y-86995000D02*
X104775000Y-85725000D01*
X104775000Y-85725000D02*
X113030000Y-85725000D01*
X100330000Y-86995000D02*
X103505000Y-86995000D01*
X104140000Y-92710000D02*
X107315000Y-89535000D01*
X104140000Y-107315000D02*
X104140000Y-92710000D01*
X121285000Y-101600000D02*
X117475000Y-101600000D01*
X141605000Y-80645000D02*
X110490000Y-80645000D01*
X110490000Y-80645000D02*
X107950000Y-78105000D01*
X107950000Y-78105000D02*
X99060000Y-78105000D01*
X99060000Y-78105000D02*
X95250000Y-81915000D01*
X95250000Y-81915000D02*
X95250000Y-95250000D01*
X97155000Y-97155000D02*
X100330000Y-97155000D01*
X95250000Y-95250000D02*
X97155000Y-97155000D01*
X96520000Y-99695000D02*
X100330000Y-99695000D01*
X93980000Y-97155000D02*
X96520000Y-99695000D01*
X93980000Y-80645000D02*
X93980000Y-97155000D01*
X99060000Y-75565000D02*
X93980000Y-80645000D01*
X141605000Y-75565000D02*
X99060000Y-75565000D01*
X108585000Y-100965000D02*
X111760000Y-97790000D01*
X111760000Y-97790000D02*
X112395000Y-97155000D01*
X182880000Y-94615000D02*
X179070000Y-94615000D01*
X179070000Y-94615000D02*
X177165000Y-96520000D01*
X177165000Y-96520000D02*
X177165000Y-101600000D01*
X177165000Y-101600000D02*
X173990000Y-104775000D01*
X173990000Y-104775000D02*
X173990000Y-107315000D01*
X172720000Y-114935000D02*
X113030000Y-114935000D01*
X173990000Y-113665000D02*
X172720000Y-114935000D01*
X109220000Y-111125000D02*
X109220000Y-107315000D01*
X113030000Y-114935000D02*
X109220000Y-111125000D01*
X173990000Y-107315000D02*
X173990000Y-113665000D01*
X127000000Y-107315000D02*
X127000000Y-104775000D01*
X127000000Y-104775000D02*
X127635000Y-104140000D01*
X127635000Y-104140000D02*
X160020000Y-104140000D01*
X161290000Y-105410000D02*
X161290000Y-107315000D01*
X160020000Y-104140000D02*
X161290000Y-105410000D01*
X129540000Y-107315000D02*
X129540000Y-106045000D01*
X161290000Y-112395000D02*
X163830000Y-109855000D01*
X163830000Y-109855000D02*
X163830000Y-107315000D01*
X132080000Y-112395000D02*
X161290000Y-112395000D01*
X129540000Y-109855000D02*
X132080000Y-112395000D01*
X129540000Y-107315000D02*
X129540000Y-109855000D01*
X168910000Y-107315000D02*
X168910000Y-112395000D01*
X168910000Y-104140000D02*
X163830000Y-104140000D01*
X163830000Y-104140000D02*
X159385000Y-99695000D01*
X137795000Y-99695000D02*
X135890000Y-101600000D01*
X159385000Y-99695000D02*
X137795000Y-99695000D01*
X168910000Y-104140000D02*
X168910000Y-98425000D01*
X168910000Y-98425000D02*
X165735000Y-95250000D01*
X165735000Y-95250000D02*
X165735000Y-91440000D01*
X167640000Y-89535000D02*
X171450000Y-89535000D01*
X165735000Y-91440000D02*
X167640000Y-89535000D01*
X142875000Y-95885000D02*
X154940000Y-95885000D01*
X132715000Y-101600000D02*
X125730000Y-101600000D01*
M02*
