M48
; DRILL file {KiCad (5.1.9-0-10_14)} date Tuesday, December 29, 2020 at 05:04:24 PM
; FORMAT={-:-/ absolute / inch / decimal}
; #@! TF.CreationDate,2020-12-29T17:04:24+01:00
; #@! TF.GenerationSoftware,Kicad,Pcbnew,(5.1.9-0-10_14)
; #@! TF.FileFunction,Plated,1,2,PTH
FMAT,2
INCH
T1C0.0315
T2C0.0394
T3C0.0394
T4C0.0472
T5C0.1457
%
G90
G05
T1
X4.2Y-4.425
X4.225Y-3.525
X4.275Y-3.975
X4.325Y-3.625
X4.425Y-3.525
X4.425Y-3.825
X4.5Y-4.425
X4.625Y-4.0
X4.65Y-3.525
X4.675Y-3.275
X4.75Y-3.625
X4.775Y-4.0
X4.85Y-3.525
X4.85Y-4.425
X5.025Y-3.425
X5.1531Y-3.85
X5.225Y-4.0
X5.35Y-3.85
X5.625Y-3.775
X6.1Y-3.775
X6.2Y-3.625
X6.3Y-3.525
X6.3Y-3.725
X6.65Y-3.625
X6.65Y-4.1
X6.65Y-4.425
X6.75Y-3.525
X6.75Y-3.725
T2
X5.25Y-3.3872
X5.25Y-3.6628
X5.75Y-3.3872
X5.75Y-3.6628
T3
X4.95Y-4.0
X5.35Y-4.0
X5.55Y-3.85
X5.55Y-4.0
X5.95Y-3.85
X5.95Y-4.0
T4
X3.95Y-3.225
X3.95Y-3.325
X3.95Y-3.425
X3.95Y-3.525
X3.95Y-3.625
X3.95Y-3.725
X3.95Y-3.825
X3.95Y-3.925
X3.95Y-4.025
X3.95Y-4.125
X4.1Y-4.225
X4.2Y-4.225
X4.3Y-4.225
X4.4Y-4.225
X4.5Y-4.225
X4.6Y-4.225
X4.7Y-4.225
X4.8Y-4.225
X5.0Y-4.225
X5.1Y-4.225
X5.2Y-4.225
X5.3Y-4.225
X5.4Y-4.225
X5.5Y-4.225
X5.575Y-2.975
X5.575Y-3.075
X5.575Y-3.175
X5.65Y-4.225
X5.75Y-4.225
X5.85Y-4.225
X5.95Y-4.225
X6.05Y-4.225
X6.15Y-2.975
X6.15Y-3.075
X6.15Y-3.175
X6.15Y-3.275
X6.15Y-4.225
X6.35Y-4.225
X6.45Y-4.225
X6.55Y-4.225
X6.65Y-4.225
X6.75Y-4.225
X6.85Y-4.225
X6.95Y-4.225
X7.05Y-4.225
X7.2Y-3.425
X7.2Y-3.525
X7.2Y-3.625
X7.2Y-3.725
X7.2Y-3.825
X7.2Y-3.925
X7.2Y-4.025
X7.2Y-4.125
T5
X3.525Y-3.0
X3.525Y-4.65
X7.65Y-3.0
X7.65Y-4.65
T0
M30
