M48
; DRILL file {KiCad (5.1.6-0-10_14)} date Tuesday, November 10, 2020 at 11:23:44 PM
; FORMAT={-:-/ absolute / inch / decimal}
; #@! TF.CreationDate,2020-11-10T23:23:44+01:00
; #@! TF.GenerationSoftware,Kicad,Pcbnew,(5.1.6-0-10_14)
; #@! TF.FileFunction,Plated,1,2,PTH
FMAT,2
INCH
T1C0.0315
T2C0.0315
T3C0.0394
T4C0.1142
%
G90
G05
T1
X6.55Y-4.075
X6.95Y-4.075
X3.825Y-3.25
X4.225Y-3.25
X2.7Y-1.9185
X2.7Y-2.0185
X2.7Y-2.1185
X2.7Y-2.2185
X2.7Y-2.3185
X2.7Y-2.4185
X2.7Y-2.5185
X2.7Y-2.6185
X2.7Y-2.7185
X2.7Y-2.8185
X2.7Y-2.9185
X2.7Y-3.0185
X2.7Y-3.1185
X2.7Y-3.2185
X2.7Y-3.3185
X2.7Y-3.4185
X2.7Y-3.5185
X2.7Y-3.6185
X2.7Y-3.7185
X2.7Y-3.8185
X2.7Y-3.9185
X2.7Y-4.0185
X2.7Y-4.1185
X2.7Y-4.2185
X2.7Y-4.3185
X2.7Y-4.4185
X2.7Y-4.5185
X2.7Y-4.6185
X2.7Y-4.7185
X2.7Y-4.8185
X2.7Y-4.9185
X2.7Y-5.0185
X2.8Y-1.9185
X2.8Y-2.0185
X2.8Y-2.1185
X2.8Y-2.2185
X2.8Y-2.3185
X2.8Y-2.4185
X2.8Y-2.5185
X2.8Y-2.6185
X2.8Y-2.7185
X2.8Y-2.8185
X2.8Y-2.9185
X2.8Y-3.0185
X2.8Y-3.1185
X2.8Y-3.2185
X2.8Y-3.3185
X2.8Y-3.4185
X2.8Y-3.5185
X2.8Y-3.6185
X2.8Y-3.7185
X2.8Y-3.8185
X2.8Y-3.9185
X2.8Y-4.0185
X2.8Y-4.1185
X2.8Y-4.2185
X2.8Y-4.3185
X2.8Y-4.4185
X2.8Y-4.5185
X2.8Y-4.6185
X2.8Y-4.7185
X2.8Y-4.8185
X2.8Y-4.9185
X2.8Y-5.0185
X3.95Y-1.925
X3.95Y-2.325
X4.575Y-1.925
X4.575Y-2.325
X6.375Y-3.0781
X6.375Y-3.275
X6.8Y-1.925
X6.8Y-2.325
X4.7281Y-4.775
X4.925Y-4.775
X7.4Y-4.075
X7.4Y-4.475
X6.65Y-4.675
X6.65Y-5.075
X6.4Y-3.8281
X6.4Y-4.025
X4.075Y-1.925
X4.075Y-2.325
X3.875Y-3.575
X3.875Y-3.875
X3.975Y-3.575
X3.975Y-3.875
X4.075Y-3.575
X4.075Y-3.875
X4.175Y-3.575
X4.175Y-3.875
X4.275Y-3.575
X4.275Y-3.875
X4.375Y-3.575
X4.375Y-3.875
X4.475Y-3.575
X4.475Y-3.875
X3.9Y-4.675
X3.9Y-5.075
X6.55Y-4.2
X6.95Y-4.2
X3.675Y-2.45
X4.075Y-2.45
X7.175Y-1.925
X7.175Y-2.325
X4.11Y-4.875
X4.25Y-4.8
X4.25Y-4.95
X3.825Y-4.2
X4.225Y-4.2
X6.525Y-2.025
X6.525Y-2.2219
X3.825Y-4.325
X4.225Y-4.325
X8.225Y-1.65
X8.225Y-1.85
X8.325Y-1.75
X7.2031Y-4.975
X7.4Y-4.975
X7.6Y-2.975
X7.6Y-3.375
X6.45Y-2.45
X6.85Y-2.45
X3.825Y-3.125
X4.225Y-3.125
X7.525Y-4.075
X7.525Y-4.475
X6.61Y-3.575
X6.61Y-3.875
X6.71Y-3.575
X6.71Y-3.875
X6.81Y-3.575
X6.81Y-3.875
X6.91Y-3.575
X6.91Y-3.875
X7.01Y-3.575
X7.01Y-3.875
X7.11Y-3.575
X7.11Y-3.875
X7.21Y-3.575
X7.21Y-3.875
X4.675Y-2.675
X4.775Y-2.575
X4.875Y-2.675
X7.525Y-3.525
X7.525Y-3.925
X7.2031Y-4.775
X7.4Y-4.775
X7.125Y-2.975
X7.125Y-3.375
X6.91Y-4.875
X7.05Y-4.8
X7.05Y-4.95
X3.675Y-4.75
X3.675Y-4.9469
X6.55Y-3.125
X6.95Y-3.125
X3.675Y-3.5
X3.675Y-3.6969
X4.675Y-3.525
X4.675Y-3.925
X7.4Y-3.525
X7.4Y-3.925
X3.825Y-3.375
X4.225Y-3.375
X7.425Y-1.925
X7.425Y-2.325
X4.55Y-4.675
X4.55Y-5.075
X4.7281Y-4.975
X4.925Y-4.975
X4.125Y-2.6
X4.125Y-2.75
X4.265Y-2.675
X4.425Y-4.075
X4.425Y-4.475
X6.375Y-2.7281
X6.375Y-2.925
X7.0Y-2.45
X7.4Y-2.45
X7.05Y-1.925
X7.05Y-2.325
X6.675Y-1.925
X6.675Y-2.325
X8.225Y-2.725
X8.225Y-2.925
X8.325Y-2.825
X7.125Y-2.6
X7.125Y-2.75
X7.265Y-2.675
X6.4Y-3.5
X6.4Y-3.6969
X4.025Y-4.675
X4.025Y-5.075
X4.45Y-1.925
X4.45Y-2.325
X6.575Y-2.65
X6.65Y-2.79
X6.725Y-2.65
X4.8Y-3.525
X4.8Y-3.925
X6.55Y-4.325
X6.95Y-4.325
X6.55Y-3.25
X6.95Y-3.25
X4.525Y-2.975
X4.525Y-3.375
X6.875Y-2.6
X6.875Y-2.75
X7.015Y-2.675
X3.825Y-2.65
X3.9Y-2.79
X3.975Y-2.65
X6.775Y-4.675
X6.775Y-5.075
X4.2Y-1.925
X4.2Y-2.325
X4.275Y-2.45
X4.675Y-2.45
X4.325Y-1.925
X4.325Y-2.325
X6.925Y-1.925
X6.925Y-2.325
X3.825Y-4.075
X4.225Y-4.075
X7.25Y-2.975
X7.25Y-3.375
X4.7Y-1.925
X4.7Y-2.325
X4.675Y-4.075
X4.675Y-4.475
X7.125Y-4.625
X7.525Y-4.625
X7.15Y-4.075
X7.15Y-4.475
X7.3Y-1.925
X7.3Y-2.325
X6.55Y-3.375
X6.95Y-3.375
X4.425Y-4.675
X4.425Y-5.075
X7.275Y-4.075
X7.275Y-4.475
X6.45Y-4.775
X6.45Y-4.9719
X4.375Y-2.6
X4.375Y-2.75
X4.515Y-2.675
X3.675Y-3.8281
X3.675Y-4.025
X7.4Y-2.675
X7.5Y-2.575
X7.6Y-2.675
X4.875Y-2.975
X4.875Y-3.375
X4.4Y-2.975
X4.4Y-3.375
X4.55Y-4.075
X4.55Y-4.475
T2
X4.925Y-3.525
X5.075Y-5.075
X5.075Y-1.925
X5.075Y-2.325
X6.25Y-2.325
X7.65Y-3.525
X5.075Y-4.675
X6.25Y-1.925
X7.65Y-3.925
X4.925Y-3.925
T3
X4.7Y-3.0797
X4.7Y-3.375
X6.5563Y-4.5
X6.95Y-4.5
X6.5563Y-2.95
X6.95Y-2.95
X3.8313Y-4.5
X4.225Y-4.5
X3.8313Y-2.95
X4.225Y-2.95
X7.425Y-3.0797
X7.425Y-3.375
T4
X2.6Y-1.7185
X2.6Y-5.2185
T0
M30
