G04 #@! TF.GenerationSoftware,KiCad,Pcbnew,(5.1.6-0-10_14)*
G04 #@! TF.CreationDate,2020-11-10T23:23:31+01:00*
G04 #@! TF.ProjectId,Overload Detector Card,4f766572-6c6f-4616-9420-446574656374,1.0*
G04 #@! TF.SameCoordinates,Original*
G04 #@! TF.FileFunction,Legend,Top*
G04 #@! TF.FilePolarity,Positive*
%FSLAX46Y46*%
G04 Gerber Fmt 4.6, Leading zero omitted, Abs format (unit mm)*
G04 Created by KiCad (PCBNEW (5.1.6-0-10_14)) date 2020-11-10 23:23:31*
%MOMM*%
%LPD*%
G01*
G04 APERTURE LIST*
%ADD10C,0.200000*%
%ADD11C,0.300000*%
%ADD12C,0.500000*%
%ADD13C,0.120000*%
%ADD14C,0.150000*%
%ADD15C,0.100000*%
G04 APERTURE END LIST*
D10*
X194310000Y-90805000D02*
X194310000Y-98425000D01*
X128905000Y-120015000D02*
X128905000Y-127635000D01*
X125095000Y-90805000D02*
X125095000Y-98425000D01*
X158750000Y-50165000D02*
X158750000Y-57785000D01*
X128905000Y-50165000D02*
X128905000Y-57785000D01*
D11*
X201144371Y-80672714D02*
X201072942Y-80744142D01*
X200858657Y-80815571D01*
X200715800Y-80815571D01*
X200501514Y-80744142D01*
X200358657Y-80601285D01*
X200287228Y-80458428D01*
X200215800Y-80172714D01*
X200215800Y-79958428D01*
X200287228Y-79672714D01*
X200358657Y-79529857D01*
X200501514Y-79387000D01*
X200715800Y-79315571D01*
X200858657Y-79315571D01*
X201072942Y-79387000D01*
X201144371Y-79458428D01*
X201787228Y-80815571D02*
X201787228Y-79315571D01*
X202430085Y-80815571D02*
X202430085Y-80029857D01*
X202358657Y-79887000D01*
X202215800Y-79815571D01*
X202001514Y-79815571D01*
X201858657Y-79887000D01*
X201787228Y-79958428D01*
X203787228Y-80815571D02*
X203787228Y-80029857D01*
X203715800Y-79887000D01*
X203572942Y-79815571D01*
X203287228Y-79815571D01*
X203144371Y-79887000D01*
X203787228Y-80744142D02*
X203644371Y-80815571D01*
X203287228Y-80815571D01*
X203144371Y-80744142D01*
X203072942Y-80601285D01*
X203072942Y-80458428D01*
X203144371Y-80315571D01*
X203287228Y-80244142D01*
X203644371Y-80244142D01*
X203787228Y-80172714D01*
X204501514Y-79815571D02*
X204501514Y-80815571D01*
X204501514Y-79958428D02*
X204572942Y-79887000D01*
X204715800Y-79815571D01*
X204930085Y-79815571D01*
X205072942Y-79887000D01*
X205144371Y-80029857D01*
X205144371Y-80815571D01*
X205858657Y-79815571D02*
X205858657Y-80815571D01*
X205858657Y-79958428D02*
X205930085Y-79887000D01*
X206072942Y-79815571D01*
X206287228Y-79815571D01*
X206430085Y-79887000D01*
X206501514Y-80029857D01*
X206501514Y-80815571D01*
X207787228Y-80744142D02*
X207644371Y-80815571D01*
X207358657Y-80815571D01*
X207215800Y-80744142D01*
X207144371Y-80601285D01*
X207144371Y-80029857D01*
X207215800Y-79887000D01*
X207358657Y-79815571D01*
X207644371Y-79815571D01*
X207787228Y-79887000D01*
X207858657Y-80029857D01*
X207858657Y-80172714D01*
X207144371Y-80315571D01*
X208715800Y-80815571D02*
X208572942Y-80744142D01*
X208501514Y-80601285D01*
X208501514Y-79315571D01*
X210358657Y-79458428D02*
X210430085Y-79387000D01*
X210572942Y-79315571D01*
X210930085Y-79315571D01*
X211072942Y-79387000D01*
X211144371Y-79458428D01*
X211215800Y-79601285D01*
X211215800Y-79744142D01*
X211144371Y-79958428D01*
X210287228Y-80815571D01*
X211215800Y-80815571D01*
X213001514Y-80815571D02*
X213001514Y-79315571D01*
X213572942Y-79315571D01*
X213715800Y-79387000D01*
X213787228Y-79458428D01*
X213858657Y-79601285D01*
X213858657Y-79815571D01*
X213787228Y-79958428D01*
X213715800Y-80029857D01*
X213572942Y-80101285D01*
X213001514Y-80101285D01*
X215072942Y-80744142D02*
X214930085Y-80815571D01*
X214644371Y-80815571D01*
X214501514Y-80744142D01*
X214430085Y-80601285D01*
X214430085Y-80029857D01*
X214501514Y-79887000D01*
X214644371Y-79815571D01*
X214930085Y-79815571D01*
X215072942Y-79887000D01*
X215144371Y-80029857D01*
X215144371Y-80172714D01*
X214430085Y-80315571D01*
X216430085Y-80815571D02*
X216430085Y-80029857D01*
X216358657Y-79887000D01*
X216215800Y-79815571D01*
X215930085Y-79815571D01*
X215787228Y-79887000D01*
X216430085Y-80744142D02*
X216287228Y-80815571D01*
X215930085Y-80815571D01*
X215787228Y-80744142D01*
X215715800Y-80601285D01*
X215715800Y-80458428D01*
X215787228Y-80315571D01*
X215930085Y-80244142D01*
X216287228Y-80244142D01*
X216430085Y-80172714D01*
X217144371Y-80815571D02*
X217144371Y-79315571D01*
X217287228Y-80244142D02*
X217715800Y-80815571D01*
X217715800Y-79815571D02*
X217144371Y-80387000D01*
X201144371Y-53240714D02*
X201072942Y-53312142D01*
X200858657Y-53383571D01*
X200715800Y-53383571D01*
X200501514Y-53312142D01*
X200358657Y-53169285D01*
X200287228Y-53026428D01*
X200215800Y-52740714D01*
X200215800Y-52526428D01*
X200287228Y-52240714D01*
X200358657Y-52097857D01*
X200501514Y-51955000D01*
X200715800Y-51883571D01*
X200858657Y-51883571D01*
X201072942Y-51955000D01*
X201144371Y-52026428D01*
X201787228Y-53383571D02*
X201787228Y-51883571D01*
X202430085Y-53383571D02*
X202430085Y-52597857D01*
X202358657Y-52455000D01*
X202215800Y-52383571D01*
X202001514Y-52383571D01*
X201858657Y-52455000D01*
X201787228Y-52526428D01*
X203787228Y-53383571D02*
X203787228Y-52597857D01*
X203715800Y-52455000D01*
X203572942Y-52383571D01*
X203287228Y-52383571D01*
X203144371Y-52455000D01*
X203787228Y-53312142D02*
X203644371Y-53383571D01*
X203287228Y-53383571D01*
X203144371Y-53312142D01*
X203072942Y-53169285D01*
X203072942Y-53026428D01*
X203144371Y-52883571D01*
X203287228Y-52812142D01*
X203644371Y-52812142D01*
X203787228Y-52740714D01*
X204501514Y-52383571D02*
X204501514Y-53383571D01*
X204501514Y-52526428D02*
X204572942Y-52455000D01*
X204715800Y-52383571D01*
X204930085Y-52383571D01*
X205072942Y-52455000D01*
X205144371Y-52597857D01*
X205144371Y-53383571D01*
X205858657Y-52383571D02*
X205858657Y-53383571D01*
X205858657Y-52526428D02*
X205930085Y-52455000D01*
X206072942Y-52383571D01*
X206287228Y-52383571D01*
X206430085Y-52455000D01*
X206501514Y-52597857D01*
X206501514Y-53383571D01*
X207787228Y-53312142D02*
X207644371Y-53383571D01*
X207358657Y-53383571D01*
X207215800Y-53312142D01*
X207144371Y-53169285D01*
X207144371Y-52597857D01*
X207215800Y-52455000D01*
X207358657Y-52383571D01*
X207644371Y-52383571D01*
X207787228Y-52455000D01*
X207858657Y-52597857D01*
X207858657Y-52740714D01*
X207144371Y-52883571D01*
X208715800Y-53383571D02*
X208572942Y-53312142D01*
X208501514Y-53169285D01*
X208501514Y-51883571D01*
X211215800Y-53383571D02*
X210358657Y-53383571D01*
X210787228Y-53383571D02*
X210787228Y-51883571D01*
X210644371Y-52097857D01*
X210501514Y-52240714D01*
X210358657Y-52312142D01*
X213001514Y-53383571D02*
X213001514Y-51883571D01*
X213572942Y-51883571D01*
X213715800Y-51955000D01*
X213787228Y-52026428D01*
X213858657Y-52169285D01*
X213858657Y-52383571D01*
X213787228Y-52526428D01*
X213715800Y-52597857D01*
X213572942Y-52669285D01*
X213001514Y-52669285D01*
X215072942Y-53312142D02*
X214930085Y-53383571D01*
X214644371Y-53383571D01*
X214501514Y-53312142D01*
X214430085Y-53169285D01*
X214430085Y-52597857D01*
X214501514Y-52455000D01*
X214644371Y-52383571D01*
X214930085Y-52383571D01*
X215072942Y-52455000D01*
X215144371Y-52597857D01*
X215144371Y-52740714D01*
X214430085Y-52883571D01*
X216430085Y-53383571D02*
X216430085Y-52597857D01*
X216358657Y-52455000D01*
X216215800Y-52383571D01*
X215930085Y-52383571D01*
X215787228Y-52455000D01*
X216430085Y-53312142D02*
X216287228Y-53383571D01*
X215930085Y-53383571D01*
X215787228Y-53312142D01*
X215715800Y-53169285D01*
X215715800Y-53026428D01*
X215787228Y-52883571D01*
X215930085Y-52812142D01*
X216287228Y-52812142D01*
X216430085Y-52740714D01*
X217144371Y-53383571D02*
X217144371Y-51883571D01*
X217287228Y-52812142D02*
X217715800Y-53383571D01*
X217715800Y-52383571D02*
X217144371Y-52955000D01*
D12*
X134532219Y-101373323D02*
X134817933Y-101468561D01*
X135294123Y-101468561D01*
X135484600Y-101373323D01*
X135579838Y-101278085D01*
X135675076Y-101087609D01*
X135675076Y-100897133D01*
X135579838Y-100706657D01*
X135484600Y-100611419D01*
X135294123Y-100516180D01*
X134913171Y-100420942D01*
X134722695Y-100325704D01*
X134627457Y-100230466D01*
X134532219Y-100039990D01*
X134532219Y-99849514D01*
X134627457Y-99659038D01*
X134722695Y-99563800D01*
X134913171Y-99468561D01*
X135389361Y-99468561D01*
X135675076Y-99563800D01*
X136246504Y-99468561D02*
X137389361Y-99468561D01*
X136817933Y-101468561D02*
X136817933Y-99468561D01*
X138056028Y-99468561D02*
X138056028Y-101087609D01*
X138151266Y-101278085D01*
X138246504Y-101373323D01*
X138436980Y-101468561D01*
X138817933Y-101468561D01*
X139008409Y-101373323D01*
X139103647Y-101278085D01*
X139198885Y-101087609D01*
X139198885Y-99468561D01*
X140151266Y-101468561D02*
X140151266Y-99468561D01*
X140627457Y-99468561D01*
X140913171Y-99563800D01*
X141103647Y-99754276D01*
X141198885Y-99944752D01*
X141294123Y-100325704D01*
X141294123Y-100611419D01*
X141198885Y-100992371D01*
X141103647Y-101182847D01*
X140913171Y-101373323D01*
X140627457Y-101468561D01*
X140151266Y-101468561D01*
X142151266Y-100420942D02*
X142817933Y-100420942D01*
X143103647Y-101468561D02*
X142151266Y-101468561D01*
X142151266Y-99468561D01*
X143103647Y-99468561D01*
X145103647Y-101468561D02*
X144436980Y-100516180D01*
X143960790Y-101468561D02*
X143960790Y-99468561D01*
X144722695Y-99468561D01*
X144913171Y-99563800D01*
X145008409Y-99659038D01*
X145103647Y-99849514D01*
X145103647Y-100135228D01*
X145008409Y-100325704D01*
X144913171Y-100420942D01*
X144722695Y-100516180D01*
X143960790Y-100516180D01*
X148151266Y-100420942D02*
X148436980Y-100516180D01*
X148532219Y-100611419D01*
X148627457Y-100801895D01*
X148627457Y-101087609D01*
X148532219Y-101278085D01*
X148436980Y-101373323D01*
X148246504Y-101468561D01*
X147484600Y-101468561D01*
X147484600Y-99468561D01*
X148151266Y-99468561D01*
X148341742Y-99563800D01*
X148436980Y-99659038D01*
X148532219Y-99849514D01*
X148532219Y-100039990D01*
X148436980Y-100230466D01*
X148341742Y-100325704D01*
X148151266Y-100420942D01*
X147484600Y-100420942D01*
X150341742Y-99468561D02*
X149960790Y-99468561D01*
X149770314Y-99563800D01*
X149675076Y-99659038D01*
X149484600Y-99944752D01*
X149389361Y-100325704D01*
X149389361Y-101087609D01*
X149484600Y-101278085D01*
X149579838Y-101373323D01*
X149770314Y-101468561D01*
X150151266Y-101468561D01*
X150341742Y-101373323D01*
X150436980Y-101278085D01*
X150532219Y-101087609D01*
X150532219Y-100611419D01*
X150436980Y-100420942D01*
X150341742Y-100325704D01*
X150151266Y-100230466D01*
X149770314Y-100230466D01*
X149579838Y-100325704D01*
X149484600Y-100420942D01*
X149389361Y-100611419D01*
X151198885Y-99468561D02*
X152532219Y-99468561D01*
X151675076Y-101468561D01*
X130817933Y-102968561D02*
X131198885Y-102968561D01*
X131389361Y-103063800D01*
X131579838Y-103254276D01*
X131675076Y-103635228D01*
X131675076Y-104301895D01*
X131579838Y-104682847D01*
X131389361Y-104873323D01*
X131198885Y-104968561D01*
X130817933Y-104968561D01*
X130627457Y-104873323D01*
X130436980Y-104682847D01*
X130341742Y-104301895D01*
X130341742Y-103635228D01*
X130436980Y-103254276D01*
X130627457Y-103063800D01*
X130817933Y-102968561D01*
X132341742Y-103635228D02*
X132817933Y-104968561D01*
X133294123Y-103635228D01*
X134817933Y-104873323D02*
X134627457Y-104968561D01*
X134246504Y-104968561D01*
X134056028Y-104873323D01*
X133960790Y-104682847D01*
X133960790Y-103920942D01*
X134056028Y-103730466D01*
X134246504Y-103635228D01*
X134627457Y-103635228D01*
X134817933Y-103730466D01*
X134913171Y-103920942D01*
X134913171Y-104111419D01*
X133960790Y-104301895D01*
X135770314Y-104968561D02*
X135770314Y-103635228D01*
X135770314Y-104016180D02*
X135865552Y-103825704D01*
X135960790Y-103730466D01*
X136151266Y-103635228D01*
X136341742Y-103635228D01*
X137294123Y-104968561D02*
X137103647Y-104873323D01*
X137008409Y-104682847D01*
X137008409Y-102968561D01*
X138341742Y-104968561D02*
X138151266Y-104873323D01*
X138056028Y-104778085D01*
X137960790Y-104587609D01*
X137960790Y-104016180D01*
X138056028Y-103825704D01*
X138151266Y-103730466D01*
X138341742Y-103635228D01*
X138627457Y-103635228D01*
X138817933Y-103730466D01*
X138913171Y-103825704D01*
X139008409Y-104016180D01*
X139008409Y-104587609D01*
X138913171Y-104778085D01*
X138817933Y-104873323D01*
X138627457Y-104968561D01*
X138341742Y-104968561D01*
X140722695Y-104968561D02*
X140722695Y-103920942D01*
X140627457Y-103730466D01*
X140436980Y-103635228D01*
X140056028Y-103635228D01*
X139865552Y-103730466D01*
X140722695Y-104873323D02*
X140532219Y-104968561D01*
X140056028Y-104968561D01*
X139865552Y-104873323D01*
X139770314Y-104682847D01*
X139770314Y-104492371D01*
X139865552Y-104301895D01*
X140056028Y-104206657D01*
X140532219Y-104206657D01*
X140722695Y-104111419D01*
X142532219Y-104968561D02*
X142532219Y-102968561D01*
X142532219Y-104873323D02*
X142341742Y-104968561D01*
X141960790Y-104968561D01*
X141770314Y-104873323D01*
X141675076Y-104778085D01*
X141579838Y-104587609D01*
X141579838Y-104016180D01*
X141675076Y-103825704D01*
X141770314Y-103730466D01*
X141960790Y-103635228D01*
X142341742Y-103635228D01*
X142532219Y-103730466D01*
X145008409Y-104968561D02*
X145008409Y-102968561D01*
X145484600Y-102968561D01*
X145770314Y-103063800D01*
X145960790Y-103254276D01*
X146056028Y-103444752D01*
X146151266Y-103825704D01*
X146151266Y-104111419D01*
X146056028Y-104492371D01*
X145960790Y-104682847D01*
X145770314Y-104873323D01*
X145484600Y-104968561D01*
X145008409Y-104968561D01*
X147770314Y-104873323D02*
X147579838Y-104968561D01*
X147198885Y-104968561D01*
X147008409Y-104873323D01*
X146913171Y-104682847D01*
X146913171Y-103920942D01*
X147008409Y-103730466D01*
X147198885Y-103635228D01*
X147579838Y-103635228D01*
X147770314Y-103730466D01*
X147865552Y-103920942D01*
X147865552Y-104111419D01*
X146913171Y-104301895D01*
X148436980Y-103635228D02*
X149198885Y-103635228D01*
X148722695Y-102968561D02*
X148722695Y-104682847D01*
X148817933Y-104873323D01*
X149008409Y-104968561D01*
X149198885Y-104968561D01*
X150627457Y-104873323D02*
X150436980Y-104968561D01*
X150056028Y-104968561D01*
X149865552Y-104873323D01*
X149770314Y-104682847D01*
X149770314Y-103920942D01*
X149865552Y-103730466D01*
X150056028Y-103635228D01*
X150436980Y-103635228D01*
X150627457Y-103730466D01*
X150722695Y-103920942D01*
X150722695Y-104111419D01*
X149770314Y-104301895D01*
X152436980Y-104873323D02*
X152246504Y-104968561D01*
X151865552Y-104968561D01*
X151675076Y-104873323D01*
X151579838Y-104778085D01*
X151484600Y-104587609D01*
X151484600Y-104016180D01*
X151579838Y-103825704D01*
X151675076Y-103730466D01*
X151865552Y-103635228D01*
X152246504Y-103635228D01*
X152436980Y-103730466D01*
X153008409Y-103635228D02*
X153770314Y-103635228D01*
X153294123Y-102968561D02*
X153294123Y-104682847D01*
X153389361Y-104873323D01*
X153579838Y-104968561D01*
X153770314Y-104968561D01*
X154722695Y-104968561D02*
X154532219Y-104873323D01*
X154436980Y-104778085D01*
X154341742Y-104587609D01*
X154341742Y-104016180D01*
X154436980Y-103825704D01*
X154532219Y-103730466D01*
X154722695Y-103635228D01*
X155008409Y-103635228D01*
X155198885Y-103730466D01*
X155294123Y-103825704D01*
X155389361Y-104016180D01*
X155389361Y-104587609D01*
X155294123Y-104778085D01*
X155198885Y-104873323D01*
X155008409Y-104968561D01*
X154722695Y-104968561D01*
X156246504Y-104968561D02*
X156246504Y-103635228D01*
X156246504Y-104016180D02*
X156341742Y-103825704D01*
X156436980Y-103730466D01*
X156627457Y-103635228D01*
X156817933Y-103635228D01*
X134246504Y-108468561D02*
X133103647Y-108468561D01*
X133675076Y-108468561D02*
X133675076Y-106468561D01*
X133484600Y-106754276D01*
X133294123Y-106944752D01*
X133103647Y-107039990D01*
X135103647Y-108278085D02*
X135198885Y-108373323D01*
X135103647Y-108468561D01*
X135008409Y-108373323D01*
X135103647Y-108278085D01*
X135103647Y-108468561D01*
X136436980Y-106468561D02*
X136627457Y-106468561D01*
X136817933Y-106563800D01*
X136913171Y-106659038D01*
X137008409Y-106849514D01*
X137103647Y-107230466D01*
X137103647Y-107706657D01*
X137008409Y-108087609D01*
X136913171Y-108278085D01*
X136817933Y-108373323D01*
X136627457Y-108468561D01*
X136436980Y-108468561D01*
X136246504Y-108373323D01*
X136151266Y-108278085D01*
X136056028Y-108087609D01*
X135960790Y-107706657D01*
X135960790Y-107230466D01*
X136056028Y-106849514D01*
X136151266Y-106659038D01*
X136246504Y-106563800D01*
X136436980Y-106468561D01*
X138817933Y-106468561D02*
X138436980Y-106468561D01*
X138246504Y-106563800D01*
X138151266Y-106659038D01*
X137960790Y-106944752D01*
X137865552Y-107325704D01*
X137865552Y-108087609D01*
X137960790Y-108278085D01*
X138056028Y-108373323D01*
X138246504Y-108468561D01*
X138627457Y-108468561D01*
X138817933Y-108373323D01*
X138913171Y-108278085D01*
X139008409Y-108087609D01*
X139008409Y-107611419D01*
X138913171Y-107420942D01*
X138817933Y-107325704D01*
X138627457Y-107230466D01*
X138246504Y-107230466D01*
X138056028Y-107325704D01*
X137960790Y-107420942D01*
X137865552Y-107611419D01*
X139675076Y-106468561D02*
X141008409Y-106468561D01*
X140151266Y-108468561D01*
X141770314Y-108278085D02*
X141865552Y-108373323D01*
X141770314Y-108468561D01*
X141675076Y-108373323D01*
X141770314Y-108278085D01*
X141770314Y-108468561D01*
X142532219Y-106468561D02*
X143865552Y-106468561D01*
X143008409Y-108468561D01*
X144532219Y-106659038D02*
X144627457Y-106563800D01*
X144817933Y-106468561D01*
X145294123Y-106468561D01*
X145484600Y-106563800D01*
X145579838Y-106659038D01*
X145675076Y-106849514D01*
X145675076Y-107039990D01*
X145579838Y-107325704D01*
X144436980Y-108468561D01*
X145675076Y-108468561D01*
X146436980Y-106659038D02*
X146532219Y-106563800D01*
X146722695Y-106468561D01*
X147198885Y-106468561D01*
X147389361Y-106563800D01*
X147484600Y-106659038D01*
X147579838Y-106849514D01*
X147579838Y-107039990D01*
X147484600Y-107325704D01*
X146341742Y-108468561D01*
X147579838Y-108468561D01*
X148436980Y-107706657D02*
X149960790Y-107706657D01*
X151960790Y-108468561D02*
X150817933Y-108468561D01*
X151389361Y-108468561D02*
X151389361Y-106468561D01*
X151198885Y-106754276D01*
X151008409Y-106944752D01*
X150817933Y-107039990D01*
X153865552Y-108468561D02*
X152722695Y-108468561D01*
X153294123Y-108468561D02*
X153294123Y-106468561D01*
X153103647Y-106754276D01*
X152913171Y-106944752D01*
X152722695Y-107039990D01*
D13*
X93333800Y-121704912D02*
X93333800Y-122154912D01*
X93558800Y-121929912D02*
X93108800Y-121929912D01*
X92285000Y-125269740D02*
G75*
G02*
X92285000Y-121030259I1060000J2119740D01*
G01*
X94405000Y-125269740D02*
G75*
G03*
X94405000Y-121030259I-1060000J2119740D01*
G01*
X124040088Y-121273800D02*
X123590088Y-121273800D01*
X123815088Y-121498800D02*
X123815088Y-121048800D01*
X120475260Y-120225000D02*
G75*
G02*
X124714741Y-120225000I2119740J-1060000D01*
G01*
X120475260Y-122345000D02*
G75*
G03*
X124714741Y-122345000I2119740J1060000D01*
G01*
X124040088Y-126353800D02*
X123590088Y-126353800D01*
X123815088Y-126578800D02*
X123815088Y-126128800D01*
X120475260Y-125305000D02*
G75*
G02*
X124714741Y-125305000I2119740J-1060000D01*
G01*
X120475260Y-127425000D02*
G75*
G03*
X124714741Y-127425000I2119740J1060000D01*
G01*
X163818800Y-122339912D02*
X163818800Y-122789912D01*
X164043800Y-122564912D02*
X163593800Y-122564912D01*
X162770000Y-125904740D02*
G75*
G02*
X162770000Y-121665259I1060000J2119740D01*
G01*
X164890000Y-125904740D02*
G75*
G03*
X164890000Y-121665259I-1060000J2119740D01*
G01*
X186905088Y-126353800D02*
X186455088Y-126353800D01*
X186680088Y-126578800D02*
X186680088Y-126128800D01*
X183340260Y-125305000D02*
G75*
G02*
X187579741Y-125305000I2119740J-1060000D01*
G01*
X183340260Y-127425000D02*
G75*
G03*
X187579741Y-127425000I2119740J1060000D01*
G01*
X186905088Y-121273800D02*
X186455088Y-121273800D01*
X186680088Y-121498800D02*
X186680088Y-121048800D01*
X183340260Y-120225000D02*
G75*
G02*
X187579741Y-120225000I2119740J-1060000D01*
G01*
X183340260Y-122345000D02*
G75*
G03*
X187579741Y-122345000I2119740J1060000D01*
G01*
X97477669Y-66007719D02*
X96565501Y-65095552D01*
X96565501Y-65095552D02*
X95575552Y-66085501D01*
X95575552Y-66085501D02*
X96139000Y-66675000D01*
X99949001Y-71501000D02*
G75*
G03*
X101981000Y-67691000I-889001J2921000D01*
G01*
X100993357Y-66259972D02*
G75*
G03*
X97477669Y-66007719I-1933357J-2320028D01*
G01*
X96176181Y-67576929D02*
G75*
G03*
X98171000Y-71501000I2883819J-1003071D01*
G01*
X109252281Y-122242669D02*
X110164448Y-121330501D01*
X110164448Y-121330501D02*
X109174499Y-120340552D01*
X109174499Y-120340552D02*
X108585000Y-120904000D01*
X103759000Y-124714001D02*
G75*
G03*
X107569000Y-126746000I2921000J889001D01*
G01*
X109000028Y-125758357D02*
G75*
G03*
X109252281Y-122242669I-2320028J1933357D01*
G01*
X107683071Y-120941181D02*
G75*
G03*
X103759000Y-122936000I-1003071J-2883819D01*
G01*
X103472719Y-69527331D02*
X102560552Y-70439499D01*
X102560552Y-70439499D02*
X103550501Y-71429448D01*
X103550501Y-71429448D02*
X104140000Y-70866000D01*
X108966000Y-67055999D02*
G75*
G03*
X105156000Y-65024000I-2921000J-889001D01*
G01*
X103724972Y-66011643D02*
G75*
G03*
X103472719Y-69527331I2320028J-1933357D01*
G01*
X105041929Y-70828819D02*
G75*
G03*
X108966000Y-68834000I1003071J2883819D01*
G01*
X109822719Y-69527331D02*
X108910552Y-70439499D01*
X108910552Y-70439499D02*
X109900501Y-71429448D01*
X109900501Y-71429448D02*
X110490000Y-70866000D01*
X115316000Y-67055999D02*
G75*
G03*
X111506000Y-65024000I-2921000J-889001D01*
G01*
X110074972Y-66011643D02*
G75*
G03*
X109822719Y-69527331I2320028J-1933357D01*
G01*
X111391929Y-70828819D02*
G75*
G03*
X115316000Y-68834000I1003071J2883819D01*
G01*
X167327669Y-66007719D02*
X166415501Y-65095552D01*
X166415501Y-65095552D02*
X165425552Y-66085501D01*
X165425552Y-66085501D02*
X165989000Y-66675000D01*
X169799001Y-71501000D02*
G75*
G03*
X171831000Y-67691000I-889001J2921000D01*
G01*
X170843357Y-66259972D02*
G75*
G03*
X167327669Y-66007719I-1933357J-2320028D01*
G01*
X166026181Y-67576929D02*
G75*
G03*
X168021000Y-71501000I2883819J-1003071D01*
G01*
X180372281Y-122242669D02*
X181284448Y-121330501D01*
X181284448Y-121330501D02*
X180294499Y-120340552D01*
X180294499Y-120340552D02*
X179705000Y-120904000D01*
X174879000Y-124714001D02*
G75*
G03*
X178689000Y-126746000I2921000J889001D01*
G01*
X180120028Y-125758357D02*
G75*
G03*
X180372281Y-122242669I-2320028J1933357D01*
G01*
X178803071Y-120941181D02*
G75*
G03*
X174879000Y-122936000I-1003071J-2883819D01*
G01*
X173322719Y-69527331D02*
X172410552Y-70439499D01*
X172410552Y-70439499D02*
X173400501Y-71429448D01*
X173400501Y-71429448D02*
X173990000Y-70866000D01*
X178816000Y-67055999D02*
G75*
G03*
X175006000Y-65024000I-2921000J-889001D01*
G01*
X173574972Y-66011643D02*
G75*
G03*
X173322719Y-69527331I2320028J-1933357D01*
G01*
X174891929Y-70828819D02*
G75*
G03*
X178816000Y-68834000I1003071J2883819D01*
G01*
X179672719Y-69527331D02*
X178760552Y-70439499D01*
X178760552Y-70439499D02*
X179750501Y-71429448D01*
X179750501Y-71429448D02*
X180340000Y-70866000D01*
X185166000Y-67055999D02*
G75*
G03*
X181356000Y-65024000I-2921000J-889001D01*
G01*
X179924972Y-66011643D02*
G75*
G03*
X179672719Y-69527331I2320028J-1933357D01*
G01*
X181241929Y-70828819D02*
G75*
G03*
X185166000Y-68834000I1003071J2883819D01*
G01*
D14*
X63246000Y-132550000D02*
X56134000Y-132550000D01*
X56134000Y-132550000D02*
X56134000Y-43650000D01*
X56134000Y-43650000D02*
X63246000Y-43650000D01*
X68580000Y-135217000D02*
X68580000Y-128867000D01*
X68580000Y-135217000D02*
X63246000Y-135217000D01*
X63246000Y-135217000D02*
X63246000Y-40983000D01*
X63246000Y-40983000D02*
X68580000Y-40983000D01*
X68580000Y-40983000D02*
X68580000Y-46952000D01*
D13*
X97095000Y-95615000D02*
X97095000Y-96865000D01*
X97095000Y-96865000D02*
X114995000Y-96865000D01*
X114995000Y-96865000D02*
X114995000Y-92365000D01*
X114995000Y-92365000D02*
X97095000Y-92365000D01*
X97095000Y-92365000D02*
X97095000Y-93615000D01*
X97035000Y-99865000D02*
X115055000Y-99865000D01*
X115055000Y-99865000D02*
X115055000Y-89365000D01*
X115055000Y-89365000D02*
X97035000Y-89365000D01*
X97035000Y-89365000D02*
X97035000Y-99865000D01*
X97095000Y-93615000D02*
G75*
G02*
X97095000Y-95615000I0J-1000000D01*
G01*
X166564000Y-95615000D02*
X166564000Y-96865000D01*
X166564000Y-96865000D02*
X184464000Y-96865000D01*
X184464000Y-96865000D02*
X184464000Y-92365000D01*
X184464000Y-92365000D02*
X166564000Y-92365000D01*
X166564000Y-92365000D02*
X166564000Y-93615000D01*
X166504000Y-99865000D02*
X184524000Y-99865000D01*
X184524000Y-99865000D02*
X184524000Y-89365000D01*
X184524000Y-89365000D02*
X166504000Y-89365000D01*
X166504000Y-89365000D02*
X166504000Y-99865000D01*
X166564000Y-93615000D02*
G75*
G02*
X166564000Y-95615000I0J-1000000D01*
G01*
X95695000Y-116420000D02*
X95695000Y-112180000D01*
X108935000Y-116420000D02*
X108935000Y-112180000D01*
X108935000Y-112180000D02*
X95695000Y-112180000D01*
X108935000Y-116420000D02*
X95695000Y-116420000D01*
X108935000Y-77050000D02*
X95695000Y-77050000D01*
X108935000Y-72810000D02*
X95695000Y-72810000D01*
X108935000Y-77050000D02*
X108935000Y-72810000D01*
X95695000Y-77050000D02*
X95695000Y-72810000D01*
X164910000Y-116420000D02*
X164910000Y-112180000D01*
X178150000Y-116420000D02*
X178150000Y-112180000D01*
X178150000Y-112180000D02*
X164910000Y-112180000D01*
X178150000Y-116420000D02*
X164910000Y-116420000D01*
X164910000Y-77050000D02*
X164910000Y-72810000D01*
X178150000Y-77050000D02*
X178150000Y-72810000D01*
X178150000Y-72810000D02*
X164910000Y-72810000D01*
X178150000Y-77050000D02*
X164910000Y-77050000D01*
X103755000Y-107800000D02*
X103755000Y-105560000D01*
X103515000Y-107800000D02*
X103515000Y-105560000D01*
X103635000Y-107800000D02*
X103635000Y-105560000D01*
X98195000Y-106680000D02*
X100115000Y-106680000D01*
X106275000Y-106680000D02*
X104355000Y-106680000D01*
X100115000Y-107800000D02*
X104355000Y-107800000D01*
X100115000Y-105560000D02*
X100115000Y-107800000D01*
X104355000Y-105560000D02*
X100115000Y-105560000D01*
X104355000Y-107800000D02*
X104355000Y-105560000D01*
X104355000Y-83670000D02*
X104355000Y-81430000D01*
X104355000Y-81430000D02*
X100115000Y-81430000D01*
X100115000Y-81430000D02*
X100115000Y-83670000D01*
X100115000Y-83670000D02*
X104355000Y-83670000D01*
X106275000Y-82550000D02*
X104355000Y-82550000D01*
X98195000Y-82550000D02*
X100115000Y-82550000D01*
X103635000Y-83670000D02*
X103635000Y-81430000D01*
X103515000Y-83670000D02*
X103515000Y-81430000D01*
X103755000Y-83670000D02*
X103755000Y-81430000D01*
X111275000Y-110705000D02*
X113515000Y-110705000D01*
X113515000Y-110705000D02*
X113515000Y-106465000D01*
X113515000Y-106465000D02*
X111275000Y-106465000D01*
X111275000Y-106465000D02*
X111275000Y-110705000D01*
X112395000Y-112625000D02*
X112395000Y-110705000D01*
X112395000Y-104545000D02*
X112395000Y-106465000D01*
X111275000Y-109985000D02*
X113515000Y-109985000D01*
X111275000Y-109865000D02*
X113515000Y-109865000D01*
X111275000Y-110105000D02*
X113515000Y-110105000D01*
X173570000Y-107800000D02*
X173570000Y-105560000D01*
X173570000Y-105560000D02*
X169330000Y-105560000D01*
X169330000Y-105560000D02*
X169330000Y-107800000D01*
X169330000Y-107800000D02*
X173570000Y-107800000D01*
X175490000Y-106680000D02*
X173570000Y-106680000D01*
X167410000Y-106680000D02*
X169330000Y-106680000D01*
X172850000Y-107800000D02*
X172850000Y-105560000D01*
X172730000Y-107800000D02*
X172730000Y-105560000D01*
X172970000Y-107800000D02*
X172970000Y-105560000D01*
X172970000Y-83670000D02*
X172970000Y-81430000D01*
X172730000Y-83670000D02*
X172730000Y-81430000D01*
X172850000Y-83670000D02*
X172850000Y-81430000D01*
X167410000Y-82550000D02*
X169330000Y-82550000D01*
X175490000Y-82550000D02*
X173570000Y-82550000D01*
X169330000Y-83670000D02*
X173570000Y-83670000D01*
X169330000Y-81430000D02*
X169330000Y-83670000D01*
X173570000Y-81430000D02*
X169330000Y-81430000D01*
X173570000Y-83670000D02*
X173570000Y-81430000D01*
X180490000Y-110105000D02*
X182730000Y-110105000D01*
X180490000Y-109865000D02*
X182730000Y-109865000D01*
X180490000Y-109985000D02*
X182730000Y-109985000D01*
X181610000Y-104545000D02*
X181610000Y-106465000D01*
X181610000Y-112625000D02*
X181610000Y-110705000D01*
X180490000Y-106465000D02*
X180490000Y-110705000D01*
X182730000Y-106465000D02*
X180490000Y-106465000D01*
X182730000Y-110705000D02*
X182730000Y-106465000D01*
X180490000Y-110705000D02*
X182730000Y-110705000D01*
X100430000Y-120555000D02*
X97690000Y-120555000D01*
X97690000Y-120555000D02*
X97690000Y-127095000D01*
X97690000Y-127095000D02*
X100430000Y-127095000D01*
X100430000Y-127095000D02*
X100430000Y-120555000D01*
X99060000Y-119785000D02*
X99060000Y-120555000D01*
X99060000Y-127865000D02*
X99060000Y-127095000D01*
X102235000Y-127865000D02*
X102235000Y-127095000D01*
X102235000Y-119785000D02*
X102235000Y-120555000D01*
X103605000Y-127095000D02*
X103605000Y-120555000D01*
X100865000Y-127095000D02*
X103605000Y-127095000D01*
X100865000Y-120555000D02*
X100865000Y-127095000D01*
X103605000Y-120555000D02*
X100865000Y-120555000D01*
X106275000Y-109855000D02*
X105505000Y-109855000D01*
X98195000Y-109855000D02*
X98965000Y-109855000D01*
X105505000Y-108485000D02*
X98965000Y-108485000D01*
X105505000Y-111225000D02*
X105505000Y-108485000D01*
X98965000Y-111225000D02*
X105505000Y-111225000D01*
X98965000Y-108485000D02*
X98965000Y-111225000D01*
X106275000Y-103505000D02*
X105505000Y-103505000D01*
X98195000Y-103505000D02*
X98965000Y-103505000D01*
X105505000Y-102135000D02*
X98965000Y-102135000D01*
X105505000Y-104875000D02*
X105505000Y-102135000D01*
X98965000Y-104875000D02*
X105505000Y-104875000D01*
X98965000Y-102135000D02*
X98965000Y-104875000D01*
X98965000Y-84355000D02*
X98965000Y-87095000D01*
X98965000Y-87095000D02*
X105505000Y-87095000D01*
X105505000Y-87095000D02*
X105505000Y-84355000D01*
X105505000Y-84355000D02*
X98965000Y-84355000D01*
X98195000Y-85725000D02*
X98965000Y-85725000D01*
X106275000Y-85725000D02*
X105505000Y-85725000D01*
X106275000Y-79375000D02*
X105505000Y-79375000D01*
X98195000Y-79375000D02*
X98965000Y-79375000D01*
X105505000Y-78005000D02*
X98965000Y-78005000D01*
X105505000Y-80745000D02*
X105505000Y-78005000D01*
X98965000Y-80745000D02*
X105505000Y-80745000D01*
X98965000Y-78005000D02*
X98965000Y-80745000D01*
X94385000Y-62230000D02*
X95155000Y-62230000D01*
X102465000Y-62230000D02*
X101695000Y-62230000D01*
X95155000Y-63600000D02*
X101695000Y-63600000D01*
X95155000Y-60860000D02*
X95155000Y-63600000D01*
X101695000Y-60860000D02*
X95155000Y-60860000D01*
X101695000Y-63600000D02*
X101695000Y-60860000D01*
X100330000Y-49935000D02*
X100330000Y-50705000D01*
X100330000Y-58015000D02*
X100330000Y-57245000D01*
X98960000Y-50705000D02*
X98960000Y-57245000D01*
X101700000Y-50705000D02*
X98960000Y-50705000D01*
X101700000Y-57245000D02*
X101700000Y-50705000D01*
X98960000Y-57245000D02*
X101700000Y-57245000D01*
X102135000Y-57245000D02*
X104875000Y-57245000D01*
X104875000Y-57245000D02*
X104875000Y-50705000D01*
X104875000Y-50705000D02*
X102135000Y-50705000D01*
X102135000Y-50705000D02*
X102135000Y-57245000D01*
X103505000Y-58015000D02*
X103505000Y-57245000D01*
X103505000Y-49935000D02*
X103505000Y-50705000D01*
X106680000Y-58015000D02*
X106680000Y-57245000D01*
X106680000Y-49935000D02*
X106680000Y-50705000D01*
X108050000Y-57245000D02*
X108050000Y-50705000D01*
X105310000Y-57245000D02*
X108050000Y-57245000D01*
X105310000Y-50705000D02*
X105310000Y-57245000D01*
X108050000Y-50705000D02*
X105310000Y-50705000D01*
X111225000Y-50705000D02*
X108485000Y-50705000D01*
X108485000Y-50705000D02*
X108485000Y-57245000D01*
X108485000Y-57245000D02*
X111225000Y-57245000D01*
X111225000Y-57245000D02*
X111225000Y-50705000D01*
X109855000Y-49935000D02*
X109855000Y-50705000D01*
X109855000Y-58015000D02*
X109855000Y-57245000D01*
X112395000Y-119785000D02*
X112395000Y-120555000D01*
X112395000Y-127865000D02*
X112395000Y-127095000D01*
X111025000Y-120555000D02*
X111025000Y-127095000D01*
X113765000Y-120555000D02*
X111025000Y-120555000D01*
X113765000Y-127095000D02*
X113765000Y-120555000D01*
X111025000Y-127095000D02*
X113765000Y-127095000D01*
X110390000Y-83915000D02*
X113130000Y-83915000D01*
X113130000Y-83915000D02*
X113130000Y-77375000D01*
X113130000Y-77375000D02*
X110390000Y-77375000D01*
X110390000Y-77375000D02*
X110390000Y-83915000D01*
X111760000Y-84685000D02*
X111760000Y-83915000D01*
X111760000Y-76605000D02*
X111760000Y-77375000D01*
X110395000Y-60860000D02*
X110395000Y-63600000D01*
X110395000Y-63600000D02*
X116935000Y-63600000D01*
X116935000Y-63600000D02*
X116935000Y-60860000D01*
X116935000Y-60860000D02*
X110395000Y-60860000D01*
X109625000Y-62230000D02*
X110395000Y-62230000D01*
X117705000Y-62230000D02*
X116935000Y-62230000D01*
X113030000Y-49935000D02*
X113030000Y-50705000D01*
X113030000Y-58015000D02*
X113030000Y-57245000D01*
X111660000Y-50705000D02*
X111660000Y-57245000D01*
X114400000Y-50705000D02*
X111660000Y-50705000D01*
X114400000Y-57245000D02*
X114400000Y-50705000D01*
X111660000Y-57245000D02*
X114400000Y-57245000D01*
X116940000Y-120555000D02*
X114200000Y-120555000D01*
X114200000Y-120555000D02*
X114200000Y-127095000D01*
X114200000Y-127095000D02*
X116940000Y-127095000D01*
X116940000Y-127095000D02*
X116940000Y-120555000D01*
X115570000Y-119785000D02*
X115570000Y-120555000D01*
X115570000Y-127865000D02*
X115570000Y-127095000D01*
X114200000Y-111855000D02*
X116940000Y-111855000D01*
X116940000Y-111855000D02*
X116940000Y-105315000D01*
X116940000Y-105315000D02*
X114200000Y-105315000D01*
X114200000Y-105315000D02*
X114200000Y-111855000D01*
X115570000Y-112625000D02*
X115570000Y-111855000D01*
X115570000Y-104545000D02*
X115570000Y-105315000D01*
X113565000Y-83915000D02*
X116305000Y-83915000D01*
X116305000Y-83915000D02*
X116305000Y-77375000D01*
X116305000Y-77375000D02*
X113565000Y-77375000D01*
X113565000Y-77375000D02*
X113565000Y-83915000D01*
X114935000Y-84685000D02*
X114935000Y-83915000D01*
X114935000Y-76605000D02*
X114935000Y-77375000D01*
X120115000Y-105315000D02*
X117375000Y-105315000D01*
X117375000Y-105315000D02*
X117375000Y-111855000D01*
X117375000Y-111855000D02*
X120115000Y-111855000D01*
X120115000Y-111855000D02*
X120115000Y-105315000D01*
X118745000Y-104545000D02*
X118745000Y-105315000D01*
X118745000Y-112625000D02*
X118745000Y-111855000D01*
X118745000Y-98655000D02*
X118745000Y-97885000D01*
X118745000Y-90575000D02*
X118745000Y-91345000D01*
X120115000Y-97885000D02*
X120115000Y-91345000D01*
X117375000Y-97885000D02*
X120115000Y-97885000D01*
X117375000Y-91345000D02*
X117375000Y-97885000D01*
X120115000Y-91345000D02*
X117375000Y-91345000D01*
X116205000Y-58015000D02*
X116205000Y-57245000D01*
X116205000Y-49935000D02*
X116205000Y-50705000D01*
X117575000Y-57245000D02*
X117575000Y-50705000D01*
X114835000Y-57245000D02*
X117575000Y-57245000D01*
X114835000Y-50705000D02*
X114835000Y-57245000D01*
X117575000Y-50705000D02*
X114835000Y-50705000D01*
X120750000Y-50705000D02*
X118010000Y-50705000D01*
X118010000Y-50705000D02*
X118010000Y-57245000D01*
X118010000Y-57245000D02*
X120750000Y-57245000D01*
X120750000Y-57245000D02*
X120750000Y-50705000D01*
X119380000Y-49935000D02*
X119380000Y-50705000D01*
X119380000Y-58015000D02*
X119380000Y-57245000D01*
X121920000Y-98655000D02*
X121920000Y-97885000D01*
X121920000Y-90575000D02*
X121920000Y-91345000D01*
X123290000Y-97885000D02*
X123290000Y-91345000D01*
X120550000Y-97885000D02*
X123290000Y-97885000D01*
X120550000Y-91345000D02*
X120550000Y-97885000D01*
X123290000Y-91345000D02*
X120550000Y-91345000D01*
X123825000Y-84685000D02*
X123825000Y-83915000D01*
X123825000Y-76605000D02*
X123825000Y-77375000D01*
X125195000Y-83915000D02*
X125195000Y-77375000D01*
X122455000Y-83915000D02*
X125195000Y-83915000D01*
X122455000Y-77375000D02*
X122455000Y-83915000D01*
X125195000Y-77375000D02*
X122455000Y-77375000D01*
X170280000Y-120555000D02*
X167540000Y-120555000D01*
X167540000Y-120555000D02*
X167540000Y-127095000D01*
X167540000Y-127095000D02*
X170280000Y-127095000D01*
X170280000Y-127095000D02*
X170280000Y-120555000D01*
X168910000Y-119785000D02*
X168910000Y-120555000D01*
X168910000Y-127865000D02*
X168910000Y-127095000D01*
X172085000Y-127865000D02*
X172085000Y-127095000D01*
X172085000Y-119785000D02*
X172085000Y-120555000D01*
X173455000Y-127095000D02*
X173455000Y-120555000D01*
X170715000Y-127095000D02*
X173455000Y-127095000D01*
X170715000Y-120555000D02*
X170715000Y-127095000D01*
X173455000Y-120555000D02*
X170715000Y-120555000D01*
X175490000Y-109855000D02*
X174720000Y-109855000D01*
X167410000Y-109855000D02*
X168180000Y-109855000D01*
X174720000Y-108485000D02*
X168180000Y-108485000D01*
X174720000Y-111225000D02*
X174720000Y-108485000D01*
X168180000Y-111225000D02*
X174720000Y-111225000D01*
X168180000Y-108485000D02*
X168180000Y-111225000D01*
X175490000Y-103505000D02*
X174720000Y-103505000D01*
X167410000Y-103505000D02*
X168180000Y-103505000D01*
X174720000Y-102135000D02*
X168180000Y-102135000D01*
X174720000Y-104875000D02*
X174720000Y-102135000D01*
X168180000Y-104875000D02*
X174720000Y-104875000D01*
X168180000Y-102135000D02*
X168180000Y-104875000D01*
X175490000Y-85725000D02*
X174720000Y-85725000D01*
X167410000Y-85725000D02*
X168180000Y-85725000D01*
X174720000Y-84355000D02*
X168180000Y-84355000D01*
X174720000Y-87095000D02*
X174720000Y-84355000D01*
X168180000Y-87095000D02*
X174720000Y-87095000D01*
X168180000Y-84355000D02*
X168180000Y-87095000D01*
X168180000Y-78005000D02*
X168180000Y-80745000D01*
X168180000Y-80745000D02*
X174720000Y-80745000D01*
X174720000Y-80745000D02*
X174720000Y-78005000D01*
X174720000Y-78005000D02*
X168180000Y-78005000D01*
X167410000Y-79375000D02*
X168180000Y-79375000D01*
X175490000Y-79375000D02*
X174720000Y-79375000D01*
X164870000Y-62230000D02*
X165640000Y-62230000D01*
X172950000Y-62230000D02*
X172180000Y-62230000D01*
X165640000Y-63600000D02*
X172180000Y-63600000D01*
X165640000Y-60860000D02*
X165640000Y-63600000D01*
X172180000Y-60860000D02*
X165640000Y-60860000D01*
X172180000Y-63600000D02*
X172180000Y-60860000D01*
X168175000Y-57245000D02*
X170915000Y-57245000D01*
X170915000Y-57245000D02*
X170915000Y-50705000D01*
X170915000Y-50705000D02*
X168175000Y-50705000D01*
X168175000Y-50705000D02*
X168175000Y-57245000D01*
X169545000Y-58015000D02*
X169545000Y-57245000D01*
X169545000Y-49935000D02*
X169545000Y-50705000D01*
X172720000Y-49935000D02*
X172720000Y-50705000D01*
X172720000Y-58015000D02*
X172720000Y-57245000D01*
X171350000Y-50705000D02*
X171350000Y-57245000D01*
X174090000Y-50705000D02*
X171350000Y-50705000D01*
X174090000Y-57245000D02*
X174090000Y-50705000D01*
X171350000Y-57245000D02*
X174090000Y-57245000D01*
X177265000Y-50705000D02*
X174525000Y-50705000D01*
X174525000Y-50705000D02*
X174525000Y-57245000D01*
X174525000Y-57245000D02*
X177265000Y-57245000D01*
X177265000Y-57245000D02*
X177265000Y-50705000D01*
X175895000Y-49935000D02*
X175895000Y-50705000D01*
X175895000Y-58015000D02*
X175895000Y-57245000D01*
X179070000Y-58015000D02*
X179070000Y-57245000D01*
X179070000Y-49935000D02*
X179070000Y-50705000D01*
X180440000Y-57245000D02*
X180440000Y-50705000D01*
X177700000Y-57245000D02*
X180440000Y-57245000D01*
X177700000Y-50705000D02*
X177700000Y-57245000D01*
X180440000Y-50705000D02*
X177700000Y-50705000D01*
X179605000Y-83915000D02*
X182345000Y-83915000D01*
X182345000Y-83915000D02*
X182345000Y-77375000D01*
X182345000Y-77375000D02*
X179605000Y-77375000D01*
X179605000Y-77375000D02*
X179605000Y-83915000D01*
X180975000Y-84685000D02*
X180975000Y-83915000D01*
X180975000Y-76605000D02*
X180975000Y-77375000D01*
X184150000Y-76605000D02*
X184150000Y-77375000D01*
X184150000Y-84685000D02*
X184150000Y-83915000D01*
X182780000Y-77375000D02*
X182780000Y-83915000D01*
X185520000Y-77375000D02*
X182780000Y-77375000D01*
X185520000Y-83915000D02*
X185520000Y-77375000D01*
X182780000Y-83915000D02*
X185520000Y-83915000D01*
X186920000Y-62230000D02*
X186150000Y-62230000D01*
X178840000Y-62230000D02*
X179610000Y-62230000D01*
X186150000Y-60860000D02*
X179610000Y-60860000D01*
X186150000Y-63600000D02*
X186150000Y-60860000D01*
X179610000Y-63600000D02*
X186150000Y-63600000D01*
X179610000Y-60860000D02*
X179610000Y-63600000D01*
X182245000Y-49935000D02*
X182245000Y-50705000D01*
X182245000Y-58015000D02*
X182245000Y-57245000D01*
X180875000Y-50705000D02*
X180875000Y-57245000D01*
X183615000Y-50705000D02*
X180875000Y-50705000D01*
X183615000Y-57245000D02*
X183615000Y-50705000D01*
X180875000Y-57245000D02*
X183615000Y-57245000D01*
X182785000Y-116105000D02*
X182785000Y-118845000D01*
X182785000Y-118845000D02*
X189325000Y-118845000D01*
X189325000Y-118845000D02*
X189325000Y-116105000D01*
X189325000Y-116105000D02*
X182785000Y-116105000D01*
X182015000Y-117475000D02*
X182785000Y-117475000D01*
X190095000Y-117475000D02*
X189325000Y-117475000D01*
X186155000Y-105315000D02*
X183415000Y-105315000D01*
X183415000Y-105315000D02*
X183415000Y-111855000D01*
X183415000Y-111855000D02*
X186155000Y-111855000D01*
X186155000Y-111855000D02*
X186155000Y-105315000D01*
X184785000Y-104545000D02*
X184785000Y-105315000D01*
X184785000Y-112625000D02*
X184785000Y-111855000D01*
X186790000Y-50705000D02*
X184050000Y-50705000D01*
X184050000Y-50705000D02*
X184050000Y-57245000D01*
X184050000Y-57245000D02*
X186790000Y-57245000D01*
X186790000Y-57245000D02*
X186790000Y-50705000D01*
X185420000Y-49935000D02*
X185420000Y-50705000D01*
X185420000Y-58015000D02*
X185420000Y-57245000D01*
X187960000Y-104545000D02*
X187960000Y-105315000D01*
X187960000Y-112625000D02*
X187960000Y-111855000D01*
X186590000Y-105315000D02*
X186590000Y-111855000D01*
X189330000Y-105315000D02*
X186590000Y-105315000D01*
X189330000Y-111855000D02*
X189330000Y-105315000D01*
X186590000Y-111855000D02*
X189330000Y-111855000D01*
X189330000Y-91345000D02*
X186590000Y-91345000D01*
X186590000Y-91345000D02*
X186590000Y-97885000D01*
X186590000Y-97885000D02*
X189330000Y-97885000D01*
X189330000Y-97885000D02*
X189330000Y-91345000D01*
X187960000Y-90575000D02*
X187960000Y-91345000D01*
X187960000Y-98655000D02*
X187960000Y-97885000D01*
X189965000Y-50705000D02*
X187225000Y-50705000D01*
X187225000Y-50705000D02*
X187225000Y-57245000D01*
X187225000Y-57245000D02*
X189965000Y-57245000D01*
X189965000Y-57245000D02*
X189965000Y-50705000D01*
X188595000Y-49935000D02*
X188595000Y-50705000D01*
X188595000Y-58015000D02*
X188595000Y-57245000D01*
X192505000Y-105315000D02*
X189765000Y-105315000D01*
X189765000Y-105315000D02*
X189765000Y-111855000D01*
X189765000Y-111855000D02*
X192505000Y-111855000D01*
X192505000Y-111855000D02*
X192505000Y-105315000D01*
X191135000Y-104545000D02*
X191135000Y-105315000D01*
X191135000Y-112625000D02*
X191135000Y-111855000D01*
X192505000Y-91345000D02*
X189765000Y-91345000D01*
X189765000Y-91345000D02*
X189765000Y-97885000D01*
X189765000Y-97885000D02*
X192505000Y-97885000D01*
X192505000Y-97885000D02*
X192505000Y-91345000D01*
X191135000Y-90575000D02*
X191135000Y-91345000D01*
X191135000Y-98655000D02*
X191135000Y-97885000D01*
X194410000Y-77375000D02*
X191670000Y-77375000D01*
X191670000Y-77375000D02*
X191670000Y-83915000D01*
X191670000Y-83915000D02*
X194410000Y-83915000D01*
X194410000Y-83915000D02*
X194410000Y-77375000D01*
X193040000Y-76605000D02*
X193040000Y-77375000D01*
X193040000Y-84685000D02*
X193040000Y-83915000D01*
X214050000Y-76640000D02*
X203780000Y-76640000D01*
X214050000Y-66870000D02*
X203780000Y-66870000D01*
X214050000Y-76640000D02*
X214050000Y-66870000D01*
X203780000Y-76640000D02*
X203780000Y-66870000D01*
X215570000Y-76464000D02*
X214051000Y-76464000D01*
X215570000Y-74035000D02*
X214051000Y-74035000D01*
X215570000Y-76464000D02*
X215570000Y-74035000D01*
X214051000Y-76464000D02*
X214051000Y-74035000D01*
X215570000Y-75250000D02*
X214811000Y-75250000D01*
X215570000Y-47945000D02*
X214811000Y-47945000D01*
X214051000Y-49159000D02*
X214051000Y-46730000D01*
X215570000Y-49159000D02*
X215570000Y-46730000D01*
X215570000Y-46730000D02*
X214051000Y-46730000D01*
X215570000Y-49159000D02*
X214051000Y-49159000D01*
X203780000Y-49335000D02*
X203780000Y-39565000D01*
X214050000Y-49335000D02*
X214050000Y-39565000D01*
X214050000Y-39565000D02*
X203780000Y-39565000D01*
X214050000Y-49335000D02*
X203780000Y-49335000D01*
X119345000Y-69645000D02*
X123195000Y-69645000D01*
X123587383Y-69057264D02*
G75*
G02*
X123195000Y-69645000I-2302383J1112264D01*
G01*
X123621463Y-66855487D02*
G75*
G03*
X122345000Y-65595000I-2336463J-1089513D01*
G01*
X118937225Y-66850214D02*
G75*
G02*
X120195000Y-65595000I2347775J-1094786D01*
G01*
X118962369Y-69067045D02*
G75*
G03*
X119345000Y-69645000I2322631J1122045D01*
G01*
X188560000Y-69645000D02*
X192410000Y-69645000D01*
X188177369Y-69067045D02*
G75*
G03*
X188560000Y-69645000I2322631J1122045D01*
G01*
X188152225Y-66850214D02*
G75*
G02*
X189410000Y-65595000I2347775J-1094786D01*
G01*
X192836463Y-66855487D02*
G75*
G03*
X191560000Y-65595000I-2336463J-1089513D01*
G01*
X192802383Y-69057264D02*
G75*
G02*
X192410000Y-69645000I-2302383J1112264D01*
G01*
X116760000Y-87245000D02*
X116760000Y-76705000D01*
X122000000Y-87245000D02*
X122000000Y-76705000D01*
X116760000Y-87245000D02*
X122000000Y-87245000D01*
X116760000Y-76705000D02*
X122000000Y-76705000D01*
X185975000Y-76705000D02*
X191215000Y-76705000D01*
X185975000Y-87245000D02*
X191215000Y-87245000D01*
X191215000Y-87245000D02*
X191215000Y-76705000D01*
X185975000Y-87245000D02*
X185975000Y-76705000D01*
X91975000Y-102355000D02*
X91975000Y-97115000D01*
X94715000Y-102355000D02*
X94715000Y-97115000D01*
X91975000Y-102355000D02*
X92290000Y-102355000D01*
X94400000Y-102355000D02*
X94715000Y-102355000D01*
X91975000Y-97115000D02*
X92290000Y-97115000D01*
X94400000Y-97115000D02*
X94715000Y-97115000D01*
X92290000Y-94020000D02*
X91975000Y-94020000D01*
X94715000Y-94020000D02*
X94400000Y-94020000D01*
X92290000Y-88780000D02*
X91975000Y-88780000D01*
X94715000Y-88780000D02*
X94400000Y-88780000D01*
X91975000Y-88780000D02*
X91975000Y-94020000D01*
X94715000Y-88780000D02*
X94715000Y-94020000D01*
X160555000Y-83305000D02*
X160555000Y-78065000D01*
X163295000Y-83305000D02*
X163295000Y-78065000D01*
X160555000Y-83305000D02*
X160870000Y-83305000D01*
X162980000Y-83305000D02*
X163295000Y-83305000D01*
X160555000Y-78065000D02*
X160870000Y-78065000D01*
X162980000Y-78065000D02*
X163295000Y-78065000D01*
X162980000Y-69175000D02*
X163295000Y-69175000D01*
X160555000Y-69175000D02*
X160870000Y-69175000D01*
X162980000Y-74415000D02*
X163295000Y-74415000D01*
X160555000Y-74415000D02*
X160870000Y-74415000D01*
X163295000Y-74415000D02*
X163295000Y-69175000D01*
X160555000Y-74415000D02*
X160555000Y-69175000D01*
X161190000Y-102355000D02*
X161190000Y-97115000D01*
X163930000Y-102355000D02*
X163930000Y-97115000D01*
X161190000Y-102355000D02*
X161505000Y-102355000D01*
X163615000Y-102355000D02*
X163930000Y-102355000D01*
X161190000Y-97115000D02*
X161505000Y-97115000D01*
X163615000Y-97115000D02*
X163930000Y-97115000D01*
X161505000Y-94020000D02*
X161190000Y-94020000D01*
X163930000Y-94020000D02*
X163615000Y-94020000D01*
X161505000Y-88780000D02*
X161190000Y-88780000D01*
X163930000Y-88780000D02*
X163615000Y-88780000D01*
X161190000Y-88780000D02*
X161190000Y-94020000D01*
X163930000Y-88780000D02*
X163930000Y-94020000D01*
X164680000Y-56555000D02*
X164365000Y-56555000D01*
X167105000Y-56555000D02*
X166790000Y-56555000D01*
X164680000Y-51315000D02*
X164365000Y-51315000D01*
X167105000Y-51315000D02*
X166790000Y-51315000D01*
X164365000Y-51315000D02*
X164365000Y-56555000D01*
X167105000Y-51315000D02*
X167105000Y-56555000D01*
D15*
X67440340Y-132550000D02*
G75*
G03*
X67440340Y-132550000I-1400340J0D01*
G01*
X67440340Y-43650000D02*
G75*
G03*
X67440340Y-43650000I-1400340J0D01*
G01*
X71870000Y-48730000D02*
G75*
G03*
X71870000Y-48730000I-750000J0D01*
G01*
X71870000Y-51270000D02*
G75*
G03*
X71870000Y-51270000I-750000J0D01*
G01*
X71870000Y-53810000D02*
G75*
G03*
X71870000Y-53810000I-750000J0D01*
G01*
X71870000Y-56350000D02*
G75*
G03*
X71870000Y-56350000I-750000J0D01*
G01*
X71870000Y-58890000D02*
G75*
G03*
X71870000Y-58890000I-750000J0D01*
G01*
X71870000Y-61430000D02*
G75*
G03*
X71870000Y-61430000I-750000J0D01*
G01*
X71870000Y-63970000D02*
G75*
G03*
X71870000Y-63970000I-750000J0D01*
G01*
X71870000Y-66510000D02*
G75*
G03*
X71870000Y-66510000I-750000J0D01*
G01*
X71870000Y-69050000D02*
G75*
G03*
X71870000Y-69050000I-750000J0D01*
G01*
X71870000Y-71590000D02*
G75*
G03*
X71870000Y-71590000I-750000J0D01*
G01*
X71870000Y-74130000D02*
G75*
G03*
X71870000Y-74130000I-750000J0D01*
G01*
X71870000Y-76670000D02*
G75*
G03*
X71870000Y-76670000I-750000J0D01*
G01*
X71870000Y-79210000D02*
G75*
G03*
X71870000Y-79210000I-750000J0D01*
G01*
X71870000Y-81750000D02*
G75*
G03*
X71870000Y-81750000I-750000J0D01*
G01*
X71870000Y-84290000D02*
G75*
G03*
X71870000Y-84290000I-750000J0D01*
G01*
X71870000Y-86830000D02*
G75*
G03*
X71870000Y-86830000I-750000J0D01*
G01*
X71870000Y-89370000D02*
G75*
G03*
X71870000Y-89370000I-750000J0D01*
G01*
X71870000Y-91910000D02*
G75*
G03*
X71870000Y-91910000I-750000J0D01*
G01*
X71870000Y-94450000D02*
G75*
G03*
X71870000Y-94450000I-750000J0D01*
G01*
X71870000Y-96990000D02*
G75*
G03*
X71870000Y-96990000I-750000J0D01*
G01*
X71870000Y-99530000D02*
G75*
G03*
X71870000Y-99530000I-750000J0D01*
G01*
X71870000Y-102070000D02*
G75*
G03*
X71870000Y-102070000I-750000J0D01*
G01*
X71870000Y-104610000D02*
G75*
G03*
X71870000Y-104610000I-750000J0D01*
G01*
X71870000Y-107150000D02*
G75*
G03*
X71870000Y-107150000I-750000J0D01*
G01*
X71870000Y-109690000D02*
G75*
G03*
X71870000Y-109690000I-750000J0D01*
G01*
X71870000Y-112230000D02*
G75*
G03*
X71870000Y-112230000I-750000J0D01*
G01*
X71870000Y-114770000D02*
G75*
G03*
X71870000Y-114770000I-750000J0D01*
G01*
X71870000Y-117310000D02*
G75*
G03*
X71870000Y-117310000I-750000J0D01*
G01*
X71870000Y-122390000D02*
G75*
G03*
X71870000Y-122390000I-750000J0D01*
G01*
X71870000Y-119850000D02*
G75*
G03*
X71870000Y-119850000I-750000J0D01*
G01*
X71870000Y-124930000D02*
G75*
G03*
X71870000Y-124930000I-750000J0D01*
G01*
X71870000Y-127470000D02*
G75*
G03*
X71870000Y-127470000I-750000J0D01*
G01*
X69330000Y-127470000D02*
G75*
G03*
X69330000Y-127470000I-750000J0D01*
G01*
X69330000Y-124930000D02*
G75*
G03*
X69330000Y-124930000I-750000J0D01*
G01*
X69330000Y-119850000D02*
G75*
G03*
X69330000Y-119850000I-750000J0D01*
G01*
X69330000Y-122390000D02*
G75*
G03*
X69330000Y-122390000I-750000J0D01*
G01*
X69330000Y-117310000D02*
G75*
G03*
X69330000Y-117310000I-750000J0D01*
G01*
X69330000Y-114770000D02*
G75*
G03*
X69330000Y-114770000I-750000J0D01*
G01*
X69330000Y-112230000D02*
G75*
G03*
X69330000Y-112230000I-750000J0D01*
G01*
X69330000Y-109690000D02*
G75*
G03*
X69330000Y-109690000I-750000J0D01*
G01*
X69330000Y-107150000D02*
G75*
G03*
X69330000Y-107150000I-750000J0D01*
G01*
X69330000Y-104610000D02*
G75*
G03*
X69330000Y-104610000I-750000J0D01*
G01*
X69330000Y-102070000D02*
G75*
G03*
X69330000Y-102070000I-750000J0D01*
G01*
X69330000Y-99530000D02*
G75*
G03*
X69330000Y-99530000I-750000J0D01*
G01*
X69330000Y-96990000D02*
G75*
G03*
X69330000Y-96990000I-750000J0D01*
G01*
X69330000Y-94450000D02*
G75*
G03*
X69330000Y-94450000I-750000J0D01*
G01*
X69330000Y-91910000D02*
G75*
G03*
X69330000Y-91910000I-750000J0D01*
G01*
X69330000Y-89370000D02*
G75*
G03*
X69330000Y-89370000I-750000J0D01*
G01*
X69330000Y-86830000D02*
G75*
G03*
X69330000Y-86830000I-750000J0D01*
G01*
X69330000Y-84290000D02*
G75*
G03*
X69330000Y-84290000I-750000J0D01*
G01*
X69330000Y-81750000D02*
G75*
G03*
X69330000Y-81750000I-750000J0D01*
G01*
X69330000Y-79210000D02*
G75*
G03*
X69330000Y-79210000I-750000J0D01*
G01*
X69330000Y-76670000D02*
G75*
G03*
X69330000Y-76670000I-750000J0D01*
G01*
X69330000Y-74130000D02*
G75*
G03*
X69330000Y-74130000I-750000J0D01*
G01*
X69330000Y-71590000D02*
G75*
G03*
X69330000Y-71590000I-750000J0D01*
G01*
X69330000Y-69050000D02*
G75*
G03*
X69330000Y-69050000I-750000J0D01*
G01*
X69330000Y-66510000D02*
G75*
G03*
X69330000Y-66510000I-750000J0D01*
G01*
X69330000Y-63970000D02*
G75*
G03*
X69330000Y-63970000I-750000J0D01*
G01*
X69330000Y-61430000D02*
G75*
G03*
X69330000Y-61430000I-750000J0D01*
G01*
X69330000Y-58890000D02*
G75*
G03*
X69330000Y-58890000I-750000J0D01*
G01*
X69330000Y-56350000D02*
G75*
G03*
X69330000Y-56350000I-750000J0D01*
G01*
X69330000Y-53810000D02*
G75*
G03*
X69330000Y-53810000I-750000J0D01*
G01*
X69330000Y-51270000D02*
G75*
G03*
X69330000Y-51270000I-750000J0D01*
G01*
X69330000Y-48730000D02*
G75*
G03*
X69330000Y-48730000I-750000J0D01*
G01*
D14*
X89892142Y-123356666D02*
X89939761Y-123404285D01*
X89987380Y-123547142D01*
X89987380Y-123642380D01*
X89939761Y-123785238D01*
X89844523Y-123880476D01*
X89749285Y-123928095D01*
X89558809Y-123975714D01*
X89415952Y-123975714D01*
X89225476Y-123928095D01*
X89130238Y-123880476D01*
X89035000Y-123785238D01*
X88987380Y-123642380D01*
X88987380Y-123547142D01*
X89035000Y-123404285D01*
X89082619Y-123356666D01*
X88987380Y-123023333D02*
X88987380Y-122404285D01*
X89368333Y-122737619D01*
X89368333Y-122594761D01*
X89415952Y-122499523D01*
X89463571Y-122451904D01*
X89558809Y-122404285D01*
X89796904Y-122404285D01*
X89892142Y-122451904D01*
X89939761Y-122499523D01*
X89987380Y-122594761D01*
X89987380Y-122880476D01*
X89939761Y-122975714D01*
X89892142Y-123023333D01*
X122428333Y-118467142D02*
X122380714Y-118514761D01*
X122237857Y-118562380D01*
X122142619Y-118562380D01*
X121999761Y-118514761D01*
X121904523Y-118419523D01*
X121856904Y-118324285D01*
X121809285Y-118133809D01*
X121809285Y-117990952D01*
X121856904Y-117800476D01*
X121904523Y-117705238D01*
X121999761Y-117610000D01*
X122142619Y-117562380D01*
X122237857Y-117562380D01*
X122380714Y-117610000D01*
X122428333Y-117657619D01*
X123285476Y-117562380D02*
X123095000Y-117562380D01*
X122999761Y-117610000D01*
X122952142Y-117657619D01*
X122856904Y-117800476D01*
X122809285Y-117990952D01*
X122809285Y-118371904D01*
X122856904Y-118467142D01*
X122904523Y-118514761D01*
X122999761Y-118562380D01*
X123190238Y-118562380D01*
X123285476Y-118514761D01*
X123333095Y-118467142D01*
X123380714Y-118371904D01*
X123380714Y-118133809D01*
X123333095Y-118038571D01*
X123285476Y-117990952D01*
X123190238Y-117943333D01*
X122999761Y-117943333D01*
X122904523Y-117990952D01*
X122856904Y-118038571D01*
X122809285Y-118133809D01*
X122388333Y-129897142D02*
X122340714Y-129944761D01*
X122197857Y-129992380D01*
X122102619Y-129992380D01*
X121959761Y-129944761D01*
X121864523Y-129849523D01*
X121816904Y-129754285D01*
X121769285Y-129563809D01*
X121769285Y-129420952D01*
X121816904Y-129230476D01*
X121864523Y-129135238D01*
X121959761Y-129040000D01*
X122102619Y-128992380D01*
X122197857Y-128992380D01*
X122340714Y-129040000D01*
X122388333Y-129087619D01*
X122721666Y-128992380D02*
X123388333Y-128992380D01*
X122959761Y-129992380D01*
X160377142Y-124467857D02*
X160424761Y-124515476D01*
X160472380Y-124658333D01*
X160472380Y-124753571D01*
X160424761Y-124896428D01*
X160329523Y-124991666D01*
X160234285Y-125039285D01*
X160043809Y-125086904D01*
X159900952Y-125086904D01*
X159710476Y-125039285D01*
X159615238Y-124991666D01*
X159520000Y-124896428D01*
X159472380Y-124753571D01*
X159472380Y-124658333D01*
X159520000Y-124515476D01*
X159567619Y-124467857D01*
X160472380Y-123515476D02*
X160472380Y-124086904D01*
X160472380Y-123801190D02*
X159472380Y-123801190D01*
X159615238Y-123896428D01*
X159710476Y-123991666D01*
X159758095Y-124086904D01*
X159472380Y-123182142D02*
X159472380Y-122563095D01*
X159853333Y-122896428D01*
X159853333Y-122753571D01*
X159900952Y-122658333D01*
X159948571Y-122610714D01*
X160043809Y-122563095D01*
X160281904Y-122563095D01*
X160377142Y-122610714D01*
X160424761Y-122658333D01*
X160472380Y-122753571D01*
X160472380Y-123039285D01*
X160424761Y-123134523D01*
X160377142Y-123182142D01*
X190857142Y-127007857D02*
X190904761Y-127055476D01*
X190952380Y-127198333D01*
X190952380Y-127293571D01*
X190904761Y-127436428D01*
X190809523Y-127531666D01*
X190714285Y-127579285D01*
X190523809Y-127626904D01*
X190380952Y-127626904D01*
X190190476Y-127579285D01*
X190095238Y-127531666D01*
X190000000Y-127436428D01*
X189952380Y-127293571D01*
X189952380Y-127198333D01*
X190000000Y-127055476D01*
X190047619Y-127007857D01*
X190952380Y-126055476D02*
X190952380Y-126626904D01*
X190952380Y-126341190D02*
X189952380Y-126341190D01*
X190095238Y-126436428D01*
X190190476Y-126531666D01*
X190238095Y-126626904D01*
X189952380Y-125722142D02*
X189952380Y-125055476D01*
X190952380Y-125484047D01*
X190857142Y-121927857D02*
X190904761Y-121975476D01*
X190952380Y-122118333D01*
X190952380Y-122213571D01*
X190904761Y-122356428D01*
X190809523Y-122451666D01*
X190714285Y-122499285D01*
X190523809Y-122546904D01*
X190380952Y-122546904D01*
X190190476Y-122499285D01*
X190095238Y-122451666D01*
X190000000Y-122356428D01*
X189952380Y-122213571D01*
X189952380Y-122118333D01*
X190000000Y-121975476D01*
X190047619Y-121927857D01*
X190952380Y-120975476D02*
X190952380Y-121546904D01*
X190952380Y-121261190D02*
X189952380Y-121261190D01*
X190095238Y-121356428D01*
X190190476Y-121451666D01*
X190238095Y-121546904D01*
X190380952Y-120404047D02*
X190333333Y-120499285D01*
X190285714Y-120546904D01*
X190190476Y-120594523D01*
X190142857Y-120594523D01*
X190047619Y-120546904D01*
X190000000Y-120499285D01*
X189952380Y-120404047D01*
X189952380Y-120213571D01*
X190000000Y-120118333D01*
X190047619Y-120070714D01*
X190142857Y-120023095D01*
X190190476Y-120023095D01*
X190285714Y-120070714D01*
X190333333Y-120118333D01*
X190380952Y-120213571D01*
X190380952Y-120404047D01*
X190428571Y-120499285D01*
X190476190Y-120546904D01*
X190571428Y-120594523D01*
X190761904Y-120594523D01*
X190857142Y-120546904D01*
X190904761Y-120499285D01*
X190952380Y-120404047D01*
X190952380Y-120213571D01*
X190904761Y-120118333D01*
X190857142Y-120070714D01*
X190761904Y-120023095D01*
X190571428Y-120023095D01*
X190476190Y-120070714D01*
X190428571Y-120118333D01*
X190380952Y-120213571D01*
X98964761Y-65317619D02*
X98869523Y-65270000D01*
X98774285Y-65174761D01*
X98631428Y-65031904D01*
X98536190Y-64984285D01*
X98440952Y-64984285D01*
X98488571Y-65222380D02*
X98393333Y-65174761D01*
X98298095Y-65079523D01*
X98250476Y-64889047D01*
X98250476Y-64555714D01*
X98298095Y-64365238D01*
X98393333Y-64270000D01*
X98488571Y-64222380D01*
X98679047Y-64222380D01*
X98774285Y-64270000D01*
X98869523Y-64365238D01*
X98917142Y-64555714D01*
X98917142Y-64889047D01*
X98869523Y-65079523D01*
X98774285Y-65174761D01*
X98679047Y-65222380D01*
X98488571Y-65222380D01*
X99869523Y-65222380D02*
X99298095Y-65222380D01*
X99583809Y-65222380D02*
X99583809Y-64222380D01*
X99488571Y-64365238D01*
X99393333Y-64460476D01*
X99298095Y-64508095D01*
X105314761Y-120562619D02*
X105219523Y-120515000D01*
X105124285Y-120419761D01*
X104981428Y-120276904D01*
X104886190Y-120229285D01*
X104790952Y-120229285D01*
X104838571Y-120467380D02*
X104743333Y-120419761D01*
X104648095Y-120324523D01*
X104600476Y-120134047D01*
X104600476Y-119800714D01*
X104648095Y-119610238D01*
X104743333Y-119515000D01*
X104838571Y-119467380D01*
X105029047Y-119467380D01*
X105124285Y-119515000D01*
X105219523Y-119610238D01*
X105267142Y-119800714D01*
X105267142Y-120134047D01*
X105219523Y-120324523D01*
X105124285Y-120419761D01*
X105029047Y-120467380D01*
X104838571Y-120467380D01*
X105648095Y-119562619D02*
X105695714Y-119515000D01*
X105790952Y-119467380D01*
X106029047Y-119467380D01*
X106124285Y-119515000D01*
X106171904Y-119562619D01*
X106219523Y-119657857D01*
X106219523Y-119753095D01*
X106171904Y-119895952D01*
X105600476Y-120467380D01*
X106219523Y-120467380D01*
X102774761Y-65317619D02*
X102679523Y-65270000D01*
X102584285Y-65174761D01*
X102441428Y-65031904D01*
X102346190Y-64984285D01*
X102250952Y-64984285D01*
X102298571Y-65222380D02*
X102203333Y-65174761D01*
X102108095Y-65079523D01*
X102060476Y-64889047D01*
X102060476Y-64555714D01*
X102108095Y-64365238D01*
X102203333Y-64270000D01*
X102298571Y-64222380D01*
X102489047Y-64222380D01*
X102584285Y-64270000D01*
X102679523Y-64365238D01*
X102727142Y-64555714D01*
X102727142Y-64889047D01*
X102679523Y-65079523D01*
X102584285Y-65174761D01*
X102489047Y-65222380D01*
X102298571Y-65222380D01*
X103060476Y-64222380D02*
X103679523Y-64222380D01*
X103346190Y-64603333D01*
X103489047Y-64603333D01*
X103584285Y-64650952D01*
X103631904Y-64698571D01*
X103679523Y-64793809D01*
X103679523Y-65031904D01*
X103631904Y-65127142D01*
X103584285Y-65174761D01*
X103489047Y-65222380D01*
X103203333Y-65222380D01*
X103108095Y-65174761D01*
X103060476Y-65127142D01*
X109124761Y-65317619D02*
X109029523Y-65270000D01*
X108934285Y-65174761D01*
X108791428Y-65031904D01*
X108696190Y-64984285D01*
X108600952Y-64984285D01*
X108648571Y-65222380D02*
X108553333Y-65174761D01*
X108458095Y-65079523D01*
X108410476Y-64889047D01*
X108410476Y-64555714D01*
X108458095Y-64365238D01*
X108553333Y-64270000D01*
X108648571Y-64222380D01*
X108839047Y-64222380D01*
X108934285Y-64270000D01*
X109029523Y-64365238D01*
X109077142Y-64555714D01*
X109077142Y-64889047D01*
X109029523Y-65079523D01*
X108934285Y-65174761D01*
X108839047Y-65222380D01*
X108648571Y-65222380D01*
X109934285Y-64555714D02*
X109934285Y-65222380D01*
X109696190Y-64174761D02*
X109458095Y-64889047D01*
X110077142Y-64889047D01*
X168814761Y-65107619D02*
X168719523Y-65060000D01*
X168624285Y-64964761D01*
X168481428Y-64821904D01*
X168386190Y-64774285D01*
X168290952Y-64774285D01*
X168338571Y-65012380D02*
X168243333Y-64964761D01*
X168148095Y-64869523D01*
X168100476Y-64679047D01*
X168100476Y-64345714D01*
X168148095Y-64155238D01*
X168243333Y-64060000D01*
X168338571Y-64012380D01*
X168529047Y-64012380D01*
X168624285Y-64060000D01*
X168719523Y-64155238D01*
X168767142Y-64345714D01*
X168767142Y-64679047D01*
X168719523Y-64869523D01*
X168624285Y-64964761D01*
X168529047Y-65012380D01*
X168338571Y-65012380D01*
X169624285Y-64012380D02*
X169433809Y-64012380D01*
X169338571Y-64060000D01*
X169290952Y-64107619D01*
X169195714Y-64250476D01*
X169148095Y-64440952D01*
X169148095Y-64821904D01*
X169195714Y-64917142D01*
X169243333Y-64964761D01*
X169338571Y-65012380D01*
X169529047Y-65012380D01*
X169624285Y-64964761D01*
X169671904Y-64917142D01*
X169719523Y-64821904D01*
X169719523Y-64583809D01*
X169671904Y-64488571D01*
X169624285Y-64440952D01*
X169529047Y-64393333D01*
X169338571Y-64393333D01*
X169243333Y-64440952D01*
X169195714Y-64488571D01*
X169148095Y-64583809D01*
X182367619Y-123920238D02*
X182320000Y-124015476D01*
X182224761Y-124110714D01*
X182081904Y-124253571D01*
X182034285Y-124348809D01*
X182034285Y-124444047D01*
X182272380Y-124396428D02*
X182224761Y-124491666D01*
X182129523Y-124586904D01*
X181939047Y-124634523D01*
X181605714Y-124634523D01*
X181415238Y-124586904D01*
X181320000Y-124491666D01*
X181272380Y-124396428D01*
X181272380Y-124205952D01*
X181320000Y-124110714D01*
X181415238Y-124015476D01*
X181605714Y-123967857D01*
X181939047Y-123967857D01*
X182129523Y-124015476D01*
X182224761Y-124110714D01*
X182272380Y-124205952D01*
X182272380Y-124396428D01*
X181272380Y-123634523D02*
X181272380Y-122967857D01*
X182272380Y-123396428D01*
X172624761Y-65317619D02*
X172529523Y-65270000D01*
X172434285Y-65174761D01*
X172291428Y-65031904D01*
X172196190Y-64984285D01*
X172100952Y-64984285D01*
X172148571Y-65222380D02*
X172053333Y-65174761D01*
X171958095Y-65079523D01*
X171910476Y-64889047D01*
X171910476Y-64555714D01*
X171958095Y-64365238D01*
X172053333Y-64270000D01*
X172148571Y-64222380D01*
X172339047Y-64222380D01*
X172434285Y-64270000D01*
X172529523Y-64365238D01*
X172577142Y-64555714D01*
X172577142Y-64889047D01*
X172529523Y-65079523D01*
X172434285Y-65174761D01*
X172339047Y-65222380D01*
X172148571Y-65222380D01*
X173148571Y-64650952D02*
X173053333Y-64603333D01*
X173005714Y-64555714D01*
X172958095Y-64460476D01*
X172958095Y-64412857D01*
X173005714Y-64317619D01*
X173053333Y-64270000D01*
X173148571Y-64222380D01*
X173339047Y-64222380D01*
X173434285Y-64270000D01*
X173481904Y-64317619D01*
X173529523Y-64412857D01*
X173529523Y-64460476D01*
X173481904Y-64555714D01*
X173434285Y-64603333D01*
X173339047Y-64650952D01*
X173148571Y-64650952D01*
X173053333Y-64698571D01*
X173005714Y-64746190D01*
X172958095Y-64841428D01*
X172958095Y-65031904D01*
X173005714Y-65127142D01*
X173053333Y-65174761D01*
X173148571Y-65222380D01*
X173339047Y-65222380D01*
X173434285Y-65174761D01*
X173481904Y-65127142D01*
X173529523Y-65031904D01*
X173529523Y-64841428D01*
X173481904Y-64746190D01*
X173434285Y-64698571D01*
X173339047Y-64650952D01*
X178974761Y-65317619D02*
X178879523Y-65270000D01*
X178784285Y-65174761D01*
X178641428Y-65031904D01*
X178546190Y-64984285D01*
X178450952Y-64984285D01*
X178498571Y-65222380D02*
X178403333Y-65174761D01*
X178308095Y-65079523D01*
X178260476Y-64889047D01*
X178260476Y-64555714D01*
X178308095Y-64365238D01*
X178403333Y-64270000D01*
X178498571Y-64222380D01*
X178689047Y-64222380D01*
X178784285Y-64270000D01*
X178879523Y-64365238D01*
X178927142Y-64555714D01*
X178927142Y-64889047D01*
X178879523Y-65079523D01*
X178784285Y-65174761D01*
X178689047Y-65222380D01*
X178498571Y-65222380D01*
X179403333Y-65222380D02*
X179593809Y-65222380D01*
X179689047Y-65174761D01*
X179736666Y-65127142D01*
X179831904Y-64984285D01*
X179879523Y-64793809D01*
X179879523Y-64412857D01*
X179831904Y-64317619D01*
X179784285Y-64270000D01*
X179689047Y-64222380D01*
X179498571Y-64222380D01*
X179403333Y-64270000D01*
X179355714Y-64317619D01*
X179308095Y-64412857D01*
X179308095Y-64650952D01*
X179355714Y-64746190D01*
X179403333Y-64793809D01*
X179498571Y-64841428D01*
X179689047Y-64841428D01*
X179784285Y-64793809D01*
X179831904Y-64746190D01*
X179879523Y-64650952D01*
X64222380Y-88433333D02*
X64936666Y-88433333D01*
X65079523Y-88480952D01*
X65174761Y-88576190D01*
X65222380Y-88719047D01*
X65222380Y-88814285D01*
X65222380Y-87433333D02*
X65222380Y-88004761D01*
X65222380Y-87719047D02*
X64222380Y-87719047D01*
X64365238Y-87814285D01*
X64460476Y-87909523D01*
X64508095Y-88004761D01*
X95972380Y-95376904D02*
X96781904Y-95376904D01*
X96877142Y-95329285D01*
X96924761Y-95281666D01*
X96972380Y-95186428D01*
X96972380Y-94995952D01*
X96924761Y-94900714D01*
X96877142Y-94853095D01*
X96781904Y-94805476D01*
X95972380Y-94805476D01*
X96972380Y-93805476D02*
X96972380Y-94376904D01*
X96972380Y-94091190D02*
X95972380Y-94091190D01*
X96115238Y-94186428D01*
X96210476Y-94281666D01*
X96258095Y-94376904D01*
X165187380Y-95376904D02*
X165996904Y-95376904D01*
X166092142Y-95329285D01*
X166139761Y-95281666D01*
X166187380Y-95186428D01*
X166187380Y-94995952D01*
X166139761Y-94900714D01*
X166092142Y-94853095D01*
X165996904Y-94805476D01*
X165187380Y-94805476D01*
X165282619Y-94376904D02*
X165235000Y-94329285D01*
X165187380Y-94234047D01*
X165187380Y-93995952D01*
X165235000Y-93900714D01*
X165282619Y-93853095D01*
X165377857Y-93805476D01*
X165473095Y-93805476D01*
X165615952Y-93853095D01*
X166187380Y-94424523D01*
X166187380Y-93805476D01*
X94337142Y-114466666D02*
X94384761Y-114514285D01*
X94432380Y-114657142D01*
X94432380Y-114752380D01*
X94384761Y-114895238D01*
X94289523Y-114990476D01*
X94194285Y-115038095D01*
X94003809Y-115085714D01*
X93860952Y-115085714D01*
X93670476Y-115038095D01*
X93575238Y-114990476D01*
X93480000Y-114895238D01*
X93432380Y-114752380D01*
X93432380Y-114657142D01*
X93480000Y-114514285D01*
X93527619Y-114466666D01*
X93765714Y-113609523D02*
X94432380Y-113609523D01*
X93384761Y-113847619D02*
X94099047Y-114085714D01*
X94099047Y-113466666D01*
X94972142Y-75096666D02*
X95019761Y-75144285D01*
X95067380Y-75287142D01*
X95067380Y-75382380D01*
X95019761Y-75525238D01*
X94924523Y-75620476D01*
X94829285Y-75668095D01*
X94638809Y-75715714D01*
X94495952Y-75715714D01*
X94305476Y-75668095D01*
X94210238Y-75620476D01*
X94115000Y-75525238D01*
X94067380Y-75382380D01*
X94067380Y-75287142D01*
X94115000Y-75144285D01*
X94162619Y-75096666D01*
X94067380Y-74191904D02*
X94067380Y-74668095D01*
X94543571Y-74715714D01*
X94495952Y-74668095D01*
X94448333Y-74572857D01*
X94448333Y-74334761D01*
X94495952Y-74239523D01*
X94543571Y-74191904D01*
X94638809Y-74144285D01*
X94876904Y-74144285D01*
X94972142Y-74191904D01*
X95019761Y-74239523D01*
X95067380Y-74334761D01*
X95067380Y-74572857D01*
X95019761Y-74668095D01*
X94972142Y-74715714D01*
X164187142Y-114942857D02*
X164234761Y-114990476D01*
X164282380Y-115133333D01*
X164282380Y-115228571D01*
X164234761Y-115371428D01*
X164139523Y-115466666D01*
X164044285Y-115514285D01*
X163853809Y-115561904D01*
X163710952Y-115561904D01*
X163520476Y-115514285D01*
X163425238Y-115466666D01*
X163330000Y-115371428D01*
X163282380Y-115228571D01*
X163282380Y-115133333D01*
X163330000Y-114990476D01*
X163377619Y-114942857D01*
X164282380Y-113990476D02*
X164282380Y-114561904D01*
X164282380Y-114276190D02*
X163282380Y-114276190D01*
X163425238Y-114371428D01*
X163520476Y-114466666D01*
X163568095Y-114561904D01*
X163282380Y-113085714D02*
X163282380Y-113561904D01*
X163758571Y-113609523D01*
X163710952Y-113561904D01*
X163663333Y-113466666D01*
X163663333Y-113228571D01*
X163710952Y-113133333D01*
X163758571Y-113085714D01*
X163853809Y-113038095D01*
X164091904Y-113038095D01*
X164187142Y-113085714D01*
X164234761Y-113133333D01*
X164282380Y-113228571D01*
X164282380Y-113466666D01*
X164234761Y-113561904D01*
X164187142Y-113609523D01*
X164822142Y-75572857D02*
X164869761Y-75620476D01*
X164917380Y-75763333D01*
X164917380Y-75858571D01*
X164869761Y-76001428D01*
X164774523Y-76096666D01*
X164679285Y-76144285D01*
X164488809Y-76191904D01*
X164345952Y-76191904D01*
X164155476Y-76144285D01*
X164060238Y-76096666D01*
X163965000Y-76001428D01*
X163917380Y-75858571D01*
X163917380Y-75763333D01*
X163965000Y-75620476D01*
X164012619Y-75572857D01*
X164917380Y-74620476D02*
X164917380Y-75191904D01*
X164917380Y-74906190D02*
X163917380Y-74906190D01*
X164060238Y-75001428D01*
X164155476Y-75096666D01*
X164203095Y-75191904D01*
X163917380Y-73763333D02*
X163917380Y-73953809D01*
X163965000Y-74049047D01*
X164012619Y-74096666D01*
X164155476Y-74191904D01*
X164345952Y-74239523D01*
X164726904Y-74239523D01*
X164822142Y-74191904D01*
X164869761Y-74144285D01*
X164917380Y-74049047D01*
X164917380Y-73858571D01*
X164869761Y-73763333D01*
X164822142Y-73715714D01*
X164726904Y-73668095D01*
X164488809Y-73668095D01*
X164393571Y-73715714D01*
X164345952Y-73763333D01*
X164298333Y-73858571D01*
X164298333Y-74049047D01*
X164345952Y-74144285D01*
X164393571Y-74191904D01*
X164488809Y-74239523D01*
X95067380Y-107418095D02*
X94067380Y-107418095D01*
X94067380Y-107180000D01*
X94115000Y-107037142D01*
X94210238Y-106941904D01*
X94305476Y-106894285D01*
X94495952Y-106846666D01*
X94638809Y-106846666D01*
X94829285Y-106894285D01*
X94924523Y-106941904D01*
X95019761Y-107037142D01*
X95067380Y-107180000D01*
X95067380Y-107418095D01*
X95067380Y-105894285D02*
X95067380Y-106465714D01*
X95067380Y-106180000D02*
X94067380Y-106180000D01*
X94210238Y-106275238D01*
X94305476Y-106370476D01*
X94353095Y-106465714D01*
X108958095Y-107132380D02*
X108958095Y-106132380D01*
X109529523Y-107132380D02*
X109100952Y-106560952D01*
X109529523Y-106132380D02*
X108958095Y-106703809D01*
X95067380Y-83288095D02*
X94067380Y-83288095D01*
X94067380Y-83050000D01*
X94115000Y-82907142D01*
X94210238Y-82811904D01*
X94305476Y-82764285D01*
X94495952Y-82716666D01*
X94638809Y-82716666D01*
X94829285Y-82764285D01*
X94924523Y-82811904D01*
X95019761Y-82907142D01*
X95067380Y-83050000D01*
X95067380Y-83288095D01*
X94162619Y-82335714D02*
X94115000Y-82288095D01*
X94067380Y-82192857D01*
X94067380Y-81954761D01*
X94115000Y-81859523D01*
X94162619Y-81811904D01*
X94257857Y-81764285D01*
X94353095Y-81764285D01*
X94495952Y-81811904D01*
X95067380Y-82383333D01*
X95067380Y-81764285D01*
X108958095Y-83002380D02*
X108958095Y-82002380D01*
X109529523Y-83002380D02*
X109100952Y-82430952D01*
X109529523Y-82002380D02*
X108958095Y-82573809D01*
X111656904Y-102052380D02*
X111656904Y-101052380D01*
X111895000Y-101052380D01*
X112037857Y-101100000D01*
X112133095Y-101195238D01*
X112180714Y-101290476D01*
X112228333Y-101480952D01*
X112228333Y-101623809D01*
X112180714Y-101814285D01*
X112133095Y-101909523D01*
X112037857Y-102004761D01*
X111895000Y-102052380D01*
X111656904Y-102052380D01*
X112561666Y-101052380D02*
X113180714Y-101052380D01*
X112847380Y-101433333D01*
X112990238Y-101433333D01*
X113085476Y-101480952D01*
X113133095Y-101528571D01*
X113180714Y-101623809D01*
X113180714Y-101861904D01*
X113133095Y-101957142D01*
X113085476Y-102004761D01*
X112990238Y-102052380D01*
X112704523Y-102052380D01*
X112609285Y-102004761D01*
X112561666Y-101957142D01*
X112847380Y-115831904D02*
X111847380Y-115831904D01*
X112847380Y-115260476D02*
X112275952Y-115689047D01*
X111847380Y-115260476D02*
X112418809Y-115831904D01*
X164282380Y-107418095D02*
X163282380Y-107418095D01*
X163282380Y-107180000D01*
X163330000Y-107037142D01*
X163425238Y-106941904D01*
X163520476Y-106894285D01*
X163710952Y-106846666D01*
X163853809Y-106846666D01*
X164044285Y-106894285D01*
X164139523Y-106941904D01*
X164234761Y-107037142D01*
X164282380Y-107180000D01*
X164282380Y-107418095D01*
X163615714Y-105989523D02*
X164282380Y-105989523D01*
X163234761Y-106227619D02*
X163949047Y-106465714D01*
X163949047Y-105846666D01*
X178173095Y-107132380D02*
X178173095Y-106132380D01*
X178744523Y-107132380D02*
X178315952Y-106560952D01*
X178744523Y-106132380D02*
X178173095Y-106703809D01*
X164917380Y-83288095D02*
X163917380Y-83288095D01*
X163917380Y-83050000D01*
X163965000Y-82907142D01*
X164060238Y-82811904D01*
X164155476Y-82764285D01*
X164345952Y-82716666D01*
X164488809Y-82716666D01*
X164679285Y-82764285D01*
X164774523Y-82811904D01*
X164869761Y-82907142D01*
X164917380Y-83050000D01*
X164917380Y-83288095D01*
X163917380Y-81811904D02*
X163917380Y-82288095D01*
X164393571Y-82335714D01*
X164345952Y-82288095D01*
X164298333Y-82192857D01*
X164298333Y-81954761D01*
X164345952Y-81859523D01*
X164393571Y-81811904D01*
X164488809Y-81764285D01*
X164726904Y-81764285D01*
X164822142Y-81811904D01*
X164869761Y-81859523D01*
X164917380Y-81954761D01*
X164917380Y-82192857D01*
X164869761Y-82288095D01*
X164822142Y-82335714D01*
X178173095Y-83002380D02*
X178173095Y-82002380D01*
X178744523Y-83002380D02*
X178315952Y-82430952D01*
X178744523Y-82002380D02*
X178173095Y-82573809D01*
X180871904Y-102052380D02*
X180871904Y-101052380D01*
X181110000Y-101052380D01*
X181252857Y-101100000D01*
X181348095Y-101195238D01*
X181395714Y-101290476D01*
X181443333Y-101480952D01*
X181443333Y-101623809D01*
X181395714Y-101814285D01*
X181348095Y-101909523D01*
X181252857Y-102004761D01*
X181110000Y-102052380D01*
X180871904Y-102052380D01*
X182300476Y-101052380D02*
X182110000Y-101052380D01*
X182014761Y-101100000D01*
X181967142Y-101147619D01*
X181871904Y-101290476D01*
X181824285Y-101480952D01*
X181824285Y-101861904D01*
X181871904Y-101957142D01*
X181919523Y-102004761D01*
X182014761Y-102052380D01*
X182205238Y-102052380D01*
X182300476Y-102004761D01*
X182348095Y-101957142D01*
X182395714Y-101861904D01*
X182395714Y-101623809D01*
X182348095Y-101528571D01*
X182300476Y-101480952D01*
X182205238Y-101433333D01*
X182014761Y-101433333D01*
X181919523Y-101480952D01*
X181871904Y-101528571D01*
X181824285Y-101623809D01*
X182062380Y-115831904D02*
X181062380Y-115831904D01*
X182062380Y-115260476D02*
X181490952Y-115689047D01*
X181062380Y-115260476D02*
X181633809Y-115831904D01*
X98893333Y-131897380D02*
X98560000Y-131421190D01*
X98321904Y-131897380D02*
X98321904Y-130897380D01*
X98702857Y-130897380D01*
X98798095Y-130945000D01*
X98845714Y-130992619D01*
X98893333Y-131087857D01*
X98893333Y-131230714D01*
X98845714Y-131325952D01*
X98798095Y-131373571D01*
X98702857Y-131421190D01*
X98321904Y-131421190D01*
X99845714Y-131897380D02*
X99274285Y-131897380D01*
X99560000Y-131897380D02*
X99560000Y-130897380D01*
X99464761Y-131040238D01*
X99369523Y-131135476D01*
X99274285Y-131183095D01*
X102068333Y-131897380D02*
X101735000Y-131421190D01*
X101496904Y-131897380D02*
X101496904Y-130897380D01*
X101877857Y-130897380D01*
X101973095Y-130945000D01*
X102020714Y-130992619D01*
X102068333Y-131087857D01*
X102068333Y-131230714D01*
X102020714Y-131325952D01*
X101973095Y-131373571D01*
X101877857Y-131421190D01*
X101496904Y-131421190D01*
X102449285Y-130992619D02*
X102496904Y-130945000D01*
X102592142Y-130897380D01*
X102830238Y-130897380D01*
X102925476Y-130945000D01*
X102973095Y-130992619D01*
X103020714Y-131087857D01*
X103020714Y-131183095D01*
X102973095Y-131325952D01*
X102401666Y-131897380D01*
X103020714Y-131897380D01*
X95067380Y-110021666D02*
X94591190Y-110355000D01*
X95067380Y-110593095D02*
X94067380Y-110593095D01*
X94067380Y-110212142D01*
X94115000Y-110116904D01*
X94162619Y-110069285D01*
X94257857Y-110021666D01*
X94400714Y-110021666D01*
X94495952Y-110069285D01*
X94543571Y-110116904D01*
X94591190Y-110212142D01*
X94591190Y-110593095D01*
X94067380Y-109688333D02*
X94067380Y-109069285D01*
X94448333Y-109402619D01*
X94448333Y-109259761D01*
X94495952Y-109164523D01*
X94543571Y-109116904D01*
X94638809Y-109069285D01*
X94876904Y-109069285D01*
X94972142Y-109116904D01*
X95019761Y-109164523D01*
X95067380Y-109259761D01*
X95067380Y-109545476D01*
X95019761Y-109640714D01*
X94972142Y-109688333D01*
X102068333Y-101417380D02*
X101735000Y-100941190D01*
X101496904Y-101417380D02*
X101496904Y-100417380D01*
X101877857Y-100417380D01*
X101973095Y-100465000D01*
X102020714Y-100512619D01*
X102068333Y-100607857D01*
X102068333Y-100750714D01*
X102020714Y-100845952D01*
X101973095Y-100893571D01*
X101877857Y-100941190D01*
X101496904Y-100941190D01*
X102925476Y-100750714D02*
X102925476Y-101417380D01*
X102687380Y-100369761D02*
X102449285Y-101084047D01*
X103068333Y-101084047D01*
X95067380Y-85891666D02*
X94591190Y-86225000D01*
X95067380Y-86463095D02*
X94067380Y-86463095D01*
X94067380Y-86082142D01*
X94115000Y-85986904D01*
X94162619Y-85939285D01*
X94257857Y-85891666D01*
X94400714Y-85891666D01*
X94495952Y-85939285D01*
X94543571Y-85986904D01*
X94591190Y-86082142D01*
X94591190Y-86463095D01*
X94067380Y-84986904D02*
X94067380Y-85463095D01*
X94543571Y-85510714D01*
X94495952Y-85463095D01*
X94448333Y-85367857D01*
X94448333Y-85129761D01*
X94495952Y-85034523D01*
X94543571Y-84986904D01*
X94638809Y-84939285D01*
X94876904Y-84939285D01*
X94972142Y-84986904D01*
X95019761Y-85034523D01*
X95067380Y-85129761D01*
X95067380Y-85367857D01*
X95019761Y-85463095D01*
X94972142Y-85510714D01*
X95067380Y-79541666D02*
X94591190Y-79875000D01*
X95067380Y-80113095D02*
X94067380Y-80113095D01*
X94067380Y-79732142D01*
X94115000Y-79636904D01*
X94162619Y-79589285D01*
X94257857Y-79541666D01*
X94400714Y-79541666D01*
X94495952Y-79589285D01*
X94543571Y-79636904D01*
X94591190Y-79732142D01*
X94591190Y-80113095D01*
X94067380Y-78684523D02*
X94067380Y-78875000D01*
X94115000Y-78970238D01*
X94162619Y-79017857D01*
X94305476Y-79113095D01*
X94495952Y-79160714D01*
X94876904Y-79160714D01*
X94972142Y-79113095D01*
X95019761Y-79065476D01*
X95067380Y-78970238D01*
X95067380Y-78779761D01*
X95019761Y-78684523D01*
X94972142Y-78636904D01*
X94876904Y-78589285D01*
X94638809Y-78589285D01*
X94543571Y-78636904D01*
X94495952Y-78684523D01*
X94448333Y-78779761D01*
X94448333Y-78970238D01*
X94495952Y-79065476D01*
X94543571Y-79113095D01*
X94638809Y-79160714D01*
X91892380Y-62396666D02*
X91416190Y-62730000D01*
X91892380Y-62968095D02*
X90892380Y-62968095D01*
X90892380Y-62587142D01*
X90940000Y-62491904D01*
X90987619Y-62444285D01*
X91082857Y-62396666D01*
X91225714Y-62396666D01*
X91320952Y-62444285D01*
X91368571Y-62491904D01*
X91416190Y-62587142D01*
X91416190Y-62968095D01*
X90892380Y-62063333D02*
X90892380Y-61396666D01*
X91892380Y-61825238D01*
X100163333Y-46807380D02*
X99830000Y-46331190D01*
X99591904Y-46807380D02*
X99591904Y-45807380D01*
X99972857Y-45807380D01*
X100068095Y-45855000D01*
X100115714Y-45902619D01*
X100163333Y-45997857D01*
X100163333Y-46140714D01*
X100115714Y-46235952D01*
X100068095Y-46283571D01*
X99972857Y-46331190D01*
X99591904Y-46331190D01*
X100734761Y-46235952D02*
X100639523Y-46188333D01*
X100591904Y-46140714D01*
X100544285Y-46045476D01*
X100544285Y-45997857D01*
X100591904Y-45902619D01*
X100639523Y-45855000D01*
X100734761Y-45807380D01*
X100925238Y-45807380D01*
X101020476Y-45855000D01*
X101068095Y-45902619D01*
X101115714Y-45997857D01*
X101115714Y-46045476D01*
X101068095Y-46140714D01*
X101020476Y-46188333D01*
X100925238Y-46235952D01*
X100734761Y-46235952D01*
X100639523Y-46283571D01*
X100591904Y-46331190D01*
X100544285Y-46426428D01*
X100544285Y-46616904D01*
X100591904Y-46712142D01*
X100639523Y-46759761D01*
X100734761Y-46807380D01*
X100925238Y-46807380D01*
X101020476Y-46759761D01*
X101068095Y-46712142D01*
X101115714Y-46616904D01*
X101115714Y-46426428D01*
X101068095Y-46331190D01*
X101020476Y-46283571D01*
X100925238Y-46235952D01*
X103338333Y-46807380D02*
X103005000Y-46331190D01*
X102766904Y-46807380D02*
X102766904Y-45807380D01*
X103147857Y-45807380D01*
X103243095Y-45855000D01*
X103290714Y-45902619D01*
X103338333Y-45997857D01*
X103338333Y-46140714D01*
X103290714Y-46235952D01*
X103243095Y-46283571D01*
X103147857Y-46331190D01*
X102766904Y-46331190D01*
X103814523Y-46807380D02*
X104005000Y-46807380D01*
X104100238Y-46759761D01*
X104147857Y-46712142D01*
X104243095Y-46569285D01*
X104290714Y-46378809D01*
X104290714Y-45997857D01*
X104243095Y-45902619D01*
X104195476Y-45855000D01*
X104100238Y-45807380D01*
X103909761Y-45807380D01*
X103814523Y-45855000D01*
X103766904Y-45902619D01*
X103719285Y-45997857D01*
X103719285Y-46235952D01*
X103766904Y-46331190D01*
X103814523Y-46378809D01*
X103909761Y-46426428D01*
X104100238Y-46426428D01*
X104195476Y-46378809D01*
X104243095Y-46331190D01*
X104290714Y-46235952D01*
X106037142Y-46807380D02*
X105703809Y-46331190D01*
X105465714Y-46807380D02*
X105465714Y-45807380D01*
X105846666Y-45807380D01*
X105941904Y-45855000D01*
X105989523Y-45902619D01*
X106037142Y-45997857D01*
X106037142Y-46140714D01*
X105989523Y-46235952D01*
X105941904Y-46283571D01*
X105846666Y-46331190D01*
X105465714Y-46331190D01*
X106989523Y-46807380D02*
X106418095Y-46807380D01*
X106703809Y-46807380D02*
X106703809Y-45807380D01*
X106608571Y-45950238D01*
X106513333Y-46045476D01*
X106418095Y-46093095D01*
X107608571Y-45807380D02*
X107703809Y-45807380D01*
X107799047Y-45855000D01*
X107846666Y-45902619D01*
X107894285Y-45997857D01*
X107941904Y-46188333D01*
X107941904Y-46426428D01*
X107894285Y-46616904D01*
X107846666Y-46712142D01*
X107799047Y-46759761D01*
X107703809Y-46807380D01*
X107608571Y-46807380D01*
X107513333Y-46759761D01*
X107465714Y-46712142D01*
X107418095Y-46616904D01*
X107370476Y-46426428D01*
X107370476Y-46188333D01*
X107418095Y-45997857D01*
X107465714Y-45902619D01*
X107513333Y-45855000D01*
X107608571Y-45807380D01*
X109212142Y-46807380D02*
X108878809Y-46331190D01*
X108640714Y-46807380D02*
X108640714Y-45807380D01*
X109021666Y-45807380D01*
X109116904Y-45855000D01*
X109164523Y-45902619D01*
X109212142Y-45997857D01*
X109212142Y-46140714D01*
X109164523Y-46235952D01*
X109116904Y-46283571D01*
X109021666Y-46331190D01*
X108640714Y-46331190D01*
X110164523Y-46807380D02*
X109593095Y-46807380D01*
X109878809Y-46807380D02*
X109878809Y-45807380D01*
X109783571Y-45950238D01*
X109688333Y-46045476D01*
X109593095Y-46093095D01*
X111116904Y-46807380D02*
X110545476Y-46807380D01*
X110831190Y-46807380D02*
X110831190Y-45807380D01*
X110735952Y-45950238D01*
X110640714Y-46045476D01*
X110545476Y-46093095D01*
X111752142Y-131897380D02*
X111418809Y-131421190D01*
X111180714Y-131897380D02*
X111180714Y-130897380D01*
X111561666Y-130897380D01*
X111656904Y-130945000D01*
X111704523Y-130992619D01*
X111752142Y-131087857D01*
X111752142Y-131230714D01*
X111704523Y-131325952D01*
X111656904Y-131373571D01*
X111561666Y-131421190D01*
X111180714Y-131421190D01*
X112704523Y-131897380D02*
X112133095Y-131897380D01*
X112418809Y-131897380D02*
X112418809Y-130897380D01*
X112323571Y-131040238D01*
X112228333Y-131135476D01*
X112133095Y-131183095D01*
X113085476Y-130992619D02*
X113133095Y-130945000D01*
X113228333Y-130897380D01*
X113466428Y-130897380D01*
X113561666Y-130945000D01*
X113609285Y-130992619D01*
X113656904Y-131087857D01*
X113656904Y-131183095D01*
X113609285Y-131325952D01*
X113037857Y-131897380D01*
X113656904Y-131897380D01*
X111117142Y-73477380D02*
X110783809Y-73001190D01*
X110545714Y-73477380D02*
X110545714Y-72477380D01*
X110926666Y-72477380D01*
X111021904Y-72525000D01*
X111069523Y-72572619D01*
X111117142Y-72667857D01*
X111117142Y-72810714D01*
X111069523Y-72905952D01*
X111021904Y-72953571D01*
X110926666Y-73001190D01*
X110545714Y-73001190D01*
X112069523Y-73477380D02*
X111498095Y-73477380D01*
X111783809Y-73477380D02*
X111783809Y-72477380D01*
X111688571Y-72620238D01*
X111593333Y-72715476D01*
X111498095Y-72763095D01*
X112402857Y-72477380D02*
X113021904Y-72477380D01*
X112688571Y-72858333D01*
X112831428Y-72858333D01*
X112926666Y-72905952D01*
X112974285Y-72953571D01*
X113021904Y-73048809D01*
X113021904Y-73286904D01*
X112974285Y-73382142D01*
X112926666Y-73429761D01*
X112831428Y-73477380D01*
X112545714Y-73477380D01*
X112450476Y-73429761D01*
X112402857Y-73382142D01*
X107132380Y-62872857D02*
X106656190Y-63206190D01*
X107132380Y-63444285D02*
X106132380Y-63444285D01*
X106132380Y-63063333D01*
X106180000Y-62968095D01*
X106227619Y-62920476D01*
X106322857Y-62872857D01*
X106465714Y-62872857D01*
X106560952Y-62920476D01*
X106608571Y-62968095D01*
X106656190Y-63063333D01*
X106656190Y-63444285D01*
X107132380Y-61920476D02*
X107132380Y-62491904D01*
X107132380Y-62206190D02*
X106132380Y-62206190D01*
X106275238Y-62301428D01*
X106370476Y-62396666D01*
X106418095Y-62491904D01*
X106465714Y-61063333D02*
X107132380Y-61063333D01*
X106084761Y-61301428D02*
X106799047Y-61539523D01*
X106799047Y-60920476D01*
X112387142Y-46807380D02*
X112053809Y-46331190D01*
X111815714Y-46807380D02*
X111815714Y-45807380D01*
X112196666Y-45807380D01*
X112291904Y-45855000D01*
X112339523Y-45902619D01*
X112387142Y-45997857D01*
X112387142Y-46140714D01*
X112339523Y-46235952D01*
X112291904Y-46283571D01*
X112196666Y-46331190D01*
X111815714Y-46331190D01*
X113339523Y-46807380D02*
X112768095Y-46807380D01*
X113053809Y-46807380D02*
X113053809Y-45807380D01*
X112958571Y-45950238D01*
X112863333Y-46045476D01*
X112768095Y-46093095D01*
X114244285Y-45807380D02*
X113768095Y-45807380D01*
X113720476Y-46283571D01*
X113768095Y-46235952D01*
X113863333Y-46188333D01*
X114101428Y-46188333D01*
X114196666Y-46235952D01*
X114244285Y-46283571D01*
X114291904Y-46378809D01*
X114291904Y-46616904D01*
X114244285Y-46712142D01*
X114196666Y-46759761D01*
X114101428Y-46807380D01*
X113863333Y-46807380D01*
X113768095Y-46759761D01*
X113720476Y-46712142D01*
X114927142Y-131897380D02*
X114593809Y-131421190D01*
X114355714Y-131897380D02*
X114355714Y-130897380D01*
X114736666Y-130897380D01*
X114831904Y-130945000D01*
X114879523Y-130992619D01*
X114927142Y-131087857D01*
X114927142Y-131230714D01*
X114879523Y-131325952D01*
X114831904Y-131373571D01*
X114736666Y-131421190D01*
X114355714Y-131421190D01*
X115879523Y-131897380D02*
X115308095Y-131897380D01*
X115593809Y-131897380D02*
X115593809Y-130897380D01*
X115498571Y-131040238D01*
X115403333Y-131135476D01*
X115308095Y-131183095D01*
X116736666Y-130897380D02*
X116546190Y-130897380D01*
X116450952Y-130945000D01*
X116403333Y-130992619D01*
X116308095Y-131135476D01*
X116260476Y-131325952D01*
X116260476Y-131706904D01*
X116308095Y-131802142D01*
X116355714Y-131849761D01*
X116450952Y-131897380D01*
X116641428Y-131897380D01*
X116736666Y-131849761D01*
X116784285Y-131802142D01*
X116831904Y-131706904D01*
X116831904Y-131468809D01*
X116784285Y-131373571D01*
X116736666Y-131325952D01*
X116641428Y-131278333D01*
X116450952Y-131278333D01*
X116355714Y-131325952D01*
X116308095Y-131373571D01*
X116260476Y-131468809D01*
X114927142Y-102052380D02*
X114593809Y-101576190D01*
X114355714Y-102052380D02*
X114355714Y-101052380D01*
X114736666Y-101052380D01*
X114831904Y-101100000D01*
X114879523Y-101147619D01*
X114927142Y-101242857D01*
X114927142Y-101385714D01*
X114879523Y-101480952D01*
X114831904Y-101528571D01*
X114736666Y-101576190D01*
X114355714Y-101576190D01*
X115879523Y-102052380D02*
X115308095Y-102052380D01*
X115593809Y-102052380D02*
X115593809Y-101052380D01*
X115498571Y-101195238D01*
X115403333Y-101290476D01*
X115308095Y-101338095D01*
X116212857Y-101052380D02*
X116879523Y-101052380D01*
X116450952Y-102052380D01*
X114292142Y-73477380D02*
X113958809Y-73001190D01*
X113720714Y-73477380D02*
X113720714Y-72477380D01*
X114101666Y-72477380D01*
X114196904Y-72525000D01*
X114244523Y-72572619D01*
X114292142Y-72667857D01*
X114292142Y-72810714D01*
X114244523Y-72905952D01*
X114196904Y-72953571D01*
X114101666Y-73001190D01*
X113720714Y-73001190D01*
X115244523Y-73477380D02*
X114673095Y-73477380D01*
X114958809Y-73477380D02*
X114958809Y-72477380D01*
X114863571Y-72620238D01*
X114768333Y-72715476D01*
X114673095Y-72763095D01*
X115815952Y-72905952D02*
X115720714Y-72858333D01*
X115673095Y-72810714D01*
X115625476Y-72715476D01*
X115625476Y-72667857D01*
X115673095Y-72572619D01*
X115720714Y-72525000D01*
X115815952Y-72477380D01*
X116006428Y-72477380D01*
X116101666Y-72525000D01*
X116149285Y-72572619D01*
X116196904Y-72667857D01*
X116196904Y-72715476D01*
X116149285Y-72810714D01*
X116101666Y-72858333D01*
X116006428Y-72905952D01*
X115815952Y-72905952D01*
X115720714Y-72953571D01*
X115673095Y-73001190D01*
X115625476Y-73096428D01*
X115625476Y-73286904D01*
X115673095Y-73382142D01*
X115720714Y-73429761D01*
X115815952Y-73477380D01*
X116006428Y-73477380D01*
X116101666Y-73429761D01*
X116149285Y-73382142D01*
X116196904Y-73286904D01*
X116196904Y-73096428D01*
X116149285Y-73001190D01*
X116101666Y-72953571D01*
X116006428Y-72905952D01*
X118102142Y-102052380D02*
X117768809Y-101576190D01*
X117530714Y-102052380D02*
X117530714Y-101052380D01*
X117911666Y-101052380D01*
X118006904Y-101100000D01*
X118054523Y-101147619D01*
X118102142Y-101242857D01*
X118102142Y-101385714D01*
X118054523Y-101480952D01*
X118006904Y-101528571D01*
X117911666Y-101576190D01*
X117530714Y-101576190D01*
X119054523Y-102052380D02*
X118483095Y-102052380D01*
X118768809Y-102052380D02*
X118768809Y-101052380D01*
X118673571Y-101195238D01*
X118578333Y-101290476D01*
X118483095Y-101338095D01*
X119530714Y-102052380D02*
X119721190Y-102052380D01*
X119816428Y-102004761D01*
X119864047Y-101957142D01*
X119959285Y-101814285D01*
X120006904Y-101623809D01*
X120006904Y-101242857D01*
X119959285Y-101147619D01*
X119911666Y-101100000D01*
X119816428Y-101052380D01*
X119625952Y-101052380D01*
X119530714Y-101100000D01*
X119483095Y-101147619D01*
X119435476Y-101242857D01*
X119435476Y-101480952D01*
X119483095Y-101576190D01*
X119530714Y-101623809D01*
X119625952Y-101671428D01*
X119816428Y-101671428D01*
X119911666Y-101623809D01*
X119959285Y-101576190D01*
X120006904Y-101480952D01*
X116657380Y-95257857D02*
X116181190Y-95591190D01*
X116657380Y-95829285D02*
X115657380Y-95829285D01*
X115657380Y-95448333D01*
X115705000Y-95353095D01*
X115752619Y-95305476D01*
X115847857Y-95257857D01*
X115990714Y-95257857D01*
X116085952Y-95305476D01*
X116133571Y-95353095D01*
X116181190Y-95448333D01*
X116181190Y-95829285D01*
X115752619Y-94876904D02*
X115705000Y-94829285D01*
X115657380Y-94734047D01*
X115657380Y-94495952D01*
X115705000Y-94400714D01*
X115752619Y-94353095D01*
X115847857Y-94305476D01*
X115943095Y-94305476D01*
X116085952Y-94353095D01*
X116657380Y-94924523D01*
X116657380Y-94305476D01*
X115657380Y-93686428D02*
X115657380Y-93591190D01*
X115705000Y-93495952D01*
X115752619Y-93448333D01*
X115847857Y-93400714D01*
X116038333Y-93353095D01*
X116276428Y-93353095D01*
X116466904Y-93400714D01*
X116562142Y-93448333D01*
X116609761Y-93495952D01*
X116657380Y-93591190D01*
X116657380Y-93686428D01*
X116609761Y-93781666D01*
X116562142Y-93829285D01*
X116466904Y-93876904D01*
X116276428Y-93924523D01*
X116038333Y-93924523D01*
X115847857Y-93876904D01*
X115752619Y-93829285D01*
X115705000Y-93781666D01*
X115657380Y-93686428D01*
X115562142Y-46807380D02*
X115228809Y-46331190D01*
X114990714Y-46807380D02*
X114990714Y-45807380D01*
X115371666Y-45807380D01*
X115466904Y-45855000D01*
X115514523Y-45902619D01*
X115562142Y-45997857D01*
X115562142Y-46140714D01*
X115514523Y-46235952D01*
X115466904Y-46283571D01*
X115371666Y-46331190D01*
X114990714Y-46331190D01*
X115943095Y-45902619D02*
X115990714Y-45855000D01*
X116085952Y-45807380D01*
X116324047Y-45807380D01*
X116419285Y-45855000D01*
X116466904Y-45902619D01*
X116514523Y-45997857D01*
X116514523Y-46093095D01*
X116466904Y-46235952D01*
X115895476Y-46807380D01*
X116514523Y-46807380D01*
X117466904Y-46807380D02*
X116895476Y-46807380D01*
X117181190Y-46807380D02*
X117181190Y-45807380D01*
X117085952Y-45950238D01*
X116990714Y-46045476D01*
X116895476Y-46093095D01*
X118737142Y-46807380D02*
X118403809Y-46331190D01*
X118165714Y-46807380D02*
X118165714Y-45807380D01*
X118546666Y-45807380D01*
X118641904Y-45855000D01*
X118689523Y-45902619D01*
X118737142Y-45997857D01*
X118737142Y-46140714D01*
X118689523Y-46235952D01*
X118641904Y-46283571D01*
X118546666Y-46331190D01*
X118165714Y-46331190D01*
X119118095Y-45902619D02*
X119165714Y-45855000D01*
X119260952Y-45807380D01*
X119499047Y-45807380D01*
X119594285Y-45855000D01*
X119641904Y-45902619D01*
X119689523Y-45997857D01*
X119689523Y-46093095D01*
X119641904Y-46235952D01*
X119070476Y-46807380D01*
X119689523Y-46807380D01*
X120070476Y-45902619D02*
X120118095Y-45855000D01*
X120213333Y-45807380D01*
X120451428Y-45807380D01*
X120546666Y-45855000D01*
X120594285Y-45902619D01*
X120641904Y-45997857D01*
X120641904Y-46093095D01*
X120594285Y-46235952D01*
X120022857Y-46807380D01*
X120641904Y-46807380D01*
X124912380Y-95257857D02*
X124436190Y-95591190D01*
X124912380Y-95829285D02*
X123912380Y-95829285D01*
X123912380Y-95448333D01*
X123960000Y-95353095D01*
X124007619Y-95305476D01*
X124102857Y-95257857D01*
X124245714Y-95257857D01*
X124340952Y-95305476D01*
X124388571Y-95353095D01*
X124436190Y-95448333D01*
X124436190Y-95829285D01*
X124007619Y-94876904D02*
X123960000Y-94829285D01*
X123912380Y-94734047D01*
X123912380Y-94495952D01*
X123960000Y-94400714D01*
X124007619Y-94353095D01*
X124102857Y-94305476D01*
X124198095Y-94305476D01*
X124340952Y-94353095D01*
X124912380Y-94924523D01*
X124912380Y-94305476D01*
X123912380Y-93972142D02*
X123912380Y-93353095D01*
X124293333Y-93686428D01*
X124293333Y-93543571D01*
X124340952Y-93448333D01*
X124388571Y-93400714D01*
X124483809Y-93353095D01*
X124721904Y-93353095D01*
X124817142Y-93400714D01*
X124864761Y-93448333D01*
X124912380Y-93543571D01*
X124912380Y-93829285D01*
X124864761Y-93924523D01*
X124817142Y-93972142D01*
X123182142Y-74112380D02*
X122848809Y-73636190D01*
X122610714Y-74112380D02*
X122610714Y-73112380D01*
X122991666Y-73112380D01*
X123086904Y-73160000D01*
X123134523Y-73207619D01*
X123182142Y-73302857D01*
X123182142Y-73445714D01*
X123134523Y-73540952D01*
X123086904Y-73588571D01*
X122991666Y-73636190D01*
X122610714Y-73636190D01*
X123563095Y-73207619D02*
X123610714Y-73160000D01*
X123705952Y-73112380D01*
X123944047Y-73112380D01*
X124039285Y-73160000D01*
X124086904Y-73207619D01*
X124134523Y-73302857D01*
X124134523Y-73398095D01*
X124086904Y-73540952D01*
X123515476Y-74112380D01*
X124134523Y-74112380D01*
X124991666Y-73445714D02*
X124991666Y-74112380D01*
X124753571Y-73064761D02*
X124515476Y-73779047D01*
X125134523Y-73779047D01*
X168267142Y-131897380D02*
X167933809Y-131421190D01*
X167695714Y-131897380D02*
X167695714Y-130897380D01*
X168076666Y-130897380D01*
X168171904Y-130945000D01*
X168219523Y-130992619D01*
X168267142Y-131087857D01*
X168267142Y-131230714D01*
X168219523Y-131325952D01*
X168171904Y-131373571D01*
X168076666Y-131421190D01*
X167695714Y-131421190D01*
X168648095Y-130992619D02*
X168695714Y-130945000D01*
X168790952Y-130897380D01*
X169029047Y-130897380D01*
X169124285Y-130945000D01*
X169171904Y-130992619D01*
X169219523Y-131087857D01*
X169219523Y-131183095D01*
X169171904Y-131325952D01*
X168600476Y-131897380D01*
X169219523Y-131897380D01*
X170124285Y-130897380D02*
X169648095Y-130897380D01*
X169600476Y-131373571D01*
X169648095Y-131325952D01*
X169743333Y-131278333D01*
X169981428Y-131278333D01*
X170076666Y-131325952D01*
X170124285Y-131373571D01*
X170171904Y-131468809D01*
X170171904Y-131706904D01*
X170124285Y-131802142D01*
X170076666Y-131849761D01*
X169981428Y-131897380D01*
X169743333Y-131897380D01*
X169648095Y-131849761D01*
X169600476Y-131802142D01*
X171442142Y-131897380D02*
X171108809Y-131421190D01*
X170870714Y-131897380D02*
X170870714Y-130897380D01*
X171251666Y-130897380D01*
X171346904Y-130945000D01*
X171394523Y-130992619D01*
X171442142Y-131087857D01*
X171442142Y-131230714D01*
X171394523Y-131325952D01*
X171346904Y-131373571D01*
X171251666Y-131421190D01*
X170870714Y-131421190D01*
X171823095Y-130992619D02*
X171870714Y-130945000D01*
X171965952Y-130897380D01*
X172204047Y-130897380D01*
X172299285Y-130945000D01*
X172346904Y-130992619D01*
X172394523Y-131087857D01*
X172394523Y-131183095D01*
X172346904Y-131325952D01*
X171775476Y-131897380D01*
X172394523Y-131897380D01*
X173251666Y-130897380D02*
X173061190Y-130897380D01*
X172965952Y-130945000D01*
X172918333Y-130992619D01*
X172823095Y-131135476D01*
X172775476Y-131325952D01*
X172775476Y-131706904D01*
X172823095Y-131802142D01*
X172870714Y-131849761D01*
X172965952Y-131897380D01*
X173156428Y-131897380D01*
X173251666Y-131849761D01*
X173299285Y-131802142D01*
X173346904Y-131706904D01*
X173346904Y-131468809D01*
X173299285Y-131373571D01*
X173251666Y-131325952D01*
X173156428Y-131278333D01*
X172965952Y-131278333D01*
X172870714Y-131325952D01*
X172823095Y-131373571D01*
X172775476Y-131468809D01*
X164282380Y-110497857D02*
X163806190Y-110831190D01*
X164282380Y-111069285D02*
X163282380Y-111069285D01*
X163282380Y-110688333D01*
X163330000Y-110593095D01*
X163377619Y-110545476D01*
X163472857Y-110497857D01*
X163615714Y-110497857D01*
X163710952Y-110545476D01*
X163758571Y-110593095D01*
X163806190Y-110688333D01*
X163806190Y-111069285D01*
X163377619Y-110116904D02*
X163330000Y-110069285D01*
X163282380Y-109974047D01*
X163282380Y-109735952D01*
X163330000Y-109640714D01*
X163377619Y-109593095D01*
X163472857Y-109545476D01*
X163568095Y-109545476D01*
X163710952Y-109593095D01*
X164282380Y-110164523D01*
X164282380Y-109545476D01*
X163282380Y-109212142D02*
X163282380Y-108545476D01*
X164282380Y-108974047D01*
X170807142Y-101417380D02*
X170473809Y-100941190D01*
X170235714Y-101417380D02*
X170235714Y-100417380D01*
X170616666Y-100417380D01*
X170711904Y-100465000D01*
X170759523Y-100512619D01*
X170807142Y-100607857D01*
X170807142Y-100750714D01*
X170759523Y-100845952D01*
X170711904Y-100893571D01*
X170616666Y-100941190D01*
X170235714Y-100941190D01*
X171188095Y-100512619D02*
X171235714Y-100465000D01*
X171330952Y-100417380D01*
X171569047Y-100417380D01*
X171664285Y-100465000D01*
X171711904Y-100512619D01*
X171759523Y-100607857D01*
X171759523Y-100703095D01*
X171711904Y-100845952D01*
X171140476Y-101417380D01*
X171759523Y-101417380D01*
X172330952Y-100845952D02*
X172235714Y-100798333D01*
X172188095Y-100750714D01*
X172140476Y-100655476D01*
X172140476Y-100607857D01*
X172188095Y-100512619D01*
X172235714Y-100465000D01*
X172330952Y-100417380D01*
X172521428Y-100417380D01*
X172616666Y-100465000D01*
X172664285Y-100512619D01*
X172711904Y-100607857D01*
X172711904Y-100655476D01*
X172664285Y-100750714D01*
X172616666Y-100798333D01*
X172521428Y-100845952D01*
X172330952Y-100845952D01*
X172235714Y-100893571D01*
X172188095Y-100941190D01*
X172140476Y-101036428D01*
X172140476Y-101226904D01*
X172188095Y-101322142D01*
X172235714Y-101369761D01*
X172330952Y-101417380D01*
X172521428Y-101417380D01*
X172616666Y-101369761D01*
X172664285Y-101322142D01*
X172711904Y-101226904D01*
X172711904Y-101036428D01*
X172664285Y-100941190D01*
X172616666Y-100893571D01*
X172521428Y-100845952D01*
X164917380Y-86367857D02*
X164441190Y-86701190D01*
X164917380Y-86939285D02*
X163917380Y-86939285D01*
X163917380Y-86558333D01*
X163965000Y-86463095D01*
X164012619Y-86415476D01*
X164107857Y-86367857D01*
X164250714Y-86367857D01*
X164345952Y-86415476D01*
X164393571Y-86463095D01*
X164441190Y-86558333D01*
X164441190Y-86939285D01*
X164012619Y-85986904D02*
X163965000Y-85939285D01*
X163917380Y-85844047D01*
X163917380Y-85605952D01*
X163965000Y-85510714D01*
X164012619Y-85463095D01*
X164107857Y-85415476D01*
X164203095Y-85415476D01*
X164345952Y-85463095D01*
X164917380Y-86034523D01*
X164917380Y-85415476D01*
X164917380Y-84939285D02*
X164917380Y-84748809D01*
X164869761Y-84653571D01*
X164822142Y-84605952D01*
X164679285Y-84510714D01*
X164488809Y-84463095D01*
X164107857Y-84463095D01*
X164012619Y-84510714D01*
X163965000Y-84558333D01*
X163917380Y-84653571D01*
X163917380Y-84844047D01*
X163965000Y-84939285D01*
X164012619Y-84986904D01*
X164107857Y-85034523D01*
X164345952Y-85034523D01*
X164441190Y-84986904D01*
X164488809Y-84939285D01*
X164536428Y-84844047D01*
X164536428Y-84653571D01*
X164488809Y-84558333D01*
X164441190Y-84510714D01*
X164345952Y-84463095D01*
X164917380Y-80017857D02*
X164441190Y-80351190D01*
X164917380Y-80589285D02*
X163917380Y-80589285D01*
X163917380Y-80208333D01*
X163965000Y-80113095D01*
X164012619Y-80065476D01*
X164107857Y-80017857D01*
X164250714Y-80017857D01*
X164345952Y-80065476D01*
X164393571Y-80113095D01*
X164441190Y-80208333D01*
X164441190Y-80589285D01*
X163917380Y-79684523D02*
X163917380Y-79065476D01*
X164298333Y-79398809D01*
X164298333Y-79255952D01*
X164345952Y-79160714D01*
X164393571Y-79113095D01*
X164488809Y-79065476D01*
X164726904Y-79065476D01*
X164822142Y-79113095D01*
X164869761Y-79160714D01*
X164917380Y-79255952D01*
X164917380Y-79541666D01*
X164869761Y-79636904D01*
X164822142Y-79684523D01*
X163917380Y-78446428D02*
X163917380Y-78351190D01*
X163965000Y-78255952D01*
X164012619Y-78208333D01*
X164107857Y-78160714D01*
X164298333Y-78113095D01*
X164536428Y-78113095D01*
X164726904Y-78160714D01*
X164822142Y-78208333D01*
X164869761Y-78255952D01*
X164917380Y-78351190D01*
X164917380Y-78446428D01*
X164869761Y-78541666D01*
X164822142Y-78589285D01*
X164726904Y-78636904D01*
X164536428Y-78684523D01*
X164298333Y-78684523D01*
X164107857Y-78636904D01*
X164012619Y-78589285D01*
X163965000Y-78541666D01*
X163917380Y-78446428D01*
X162377380Y-62872857D02*
X161901190Y-63206190D01*
X162377380Y-63444285D02*
X161377380Y-63444285D01*
X161377380Y-63063333D01*
X161425000Y-62968095D01*
X161472619Y-62920476D01*
X161567857Y-62872857D01*
X161710714Y-62872857D01*
X161805952Y-62920476D01*
X161853571Y-62968095D01*
X161901190Y-63063333D01*
X161901190Y-63444285D01*
X161377380Y-62539523D02*
X161377380Y-61920476D01*
X161758333Y-62253809D01*
X161758333Y-62110952D01*
X161805952Y-62015714D01*
X161853571Y-61968095D01*
X161948809Y-61920476D01*
X162186904Y-61920476D01*
X162282142Y-61968095D01*
X162329761Y-62015714D01*
X162377380Y-62110952D01*
X162377380Y-62396666D01*
X162329761Y-62491904D01*
X162282142Y-62539523D01*
X162377380Y-60968095D02*
X162377380Y-61539523D01*
X162377380Y-61253809D02*
X161377380Y-61253809D01*
X161520238Y-61349047D01*
X161615476Y-61444285D01*
X161663095Y-61539523D01*
X168902142Y-46807380D02*
X168568809Y-46331190D01*
X168330714Y-46807380D02*
X168330714Y-45807380D01*
X168711666Y-45807380D01*
X168806904Y-45855000D01*
X168854523Y-45902619D01*
X168902142Y-45997857D01*
X168902142Y-46140714D01*
X168854523Y-46235952D01*
X168806904Y-46283571D01*
X168711666Y-46331190D01*
X168330714Y-46331190D01*
X169235476Y-45807380D02*
X169854523Y-45807380D01*
X169521190Y-46188333D01*
X169664047Y-46188333D01*
X169759285Y-46235952D01*
X169806904Y-46283571D01*
X169854523Y-46378809D01*
X169854523Y-46616904D01*
X169806904Y-46712142D01*
X169759285Y-46759761D01*
X169664047Y-46807380D01*
X169378333Y-46807380D01*
X169283095Y-46759761D01*
X169235476Y-46712142D01*
X170235476Y-45902619D02*
X170283095Y-45855000D01*
X170378333Y-45807380D01*
X170616428Y-45807380D01*
X170711666Y-45855000D01*
X170759285Y-45902619D01*
X170806904Y-45997857D01*
X170806904Y-46093095D01*
X170759285Y-46235952D01*
X170187857Y-46807380D01*
X170806904Y-46807380D01*
X172077142Y-46807380D02*
X171743809Y-46331190D01*
X171505714Y-46807380D02*
X171505714Y-45807380D01*
X171886666Y-45807380D01*
X171981904Y-45855000D01*
X172029523Y-45902619D01*
X172077142Y-45997857D01*
X172077142Y-46140714D01*
X172029523Y-46235952D01*
X171981904Y-46283571D01*
X171886666Y-46331190D01*
X171505714Y-46331190D01*
X172410476Y-45807380D02*
X173029523Y-45807380D01*
X172696190Y-46188333D01*
X172839047Y-46188333D01*
X172934285Y-46235952D01*
X172981904Y-46283571D01*
X173029523Y-46378809D01*
X173029523Y-46616904D01*
X172981904Y-46712142D01*
X172934285Y-46759761D01*
X172839047Y-46807380D01*
X172553333Y-46807380D01*
X172458095Y-46759761D01*
X172410476Y-46712142D01*
X173362857Y-45807380D02*
X173981904Y-45807380D01*
X173648571Y-46188333D01*
X173791428Y-46188333D01*
X173886666Y-46235952D01*
X173934285Y-46283571D01*
X173981904Y-46378809D01*
X173981904Y-46616904D01*
X173934285Y-46712142D01*
X173886666Y-46759761D01*
X173791428Y-46807380D01*
X173505714Y-46807380D01*
X173410476Y-46759761D01*
X173362857Y-46712142D01*
X175252142Y-46807380D02*
X174918809Y-46331190D01*
X174680714Y-46807380D02*
X174680714Y-45807380D01*
X175061666Y-45807380D01*
X175156904Y-45855000D01*
X175204523Y-45902619D01*
X175252142Y-45997857D01*
X175252142Y-46140714D01*
X175204523Y-46235952D01*
X175156904Y-46283571D01*
X175061666Y-46331190D01*
X174680714Y-46331190D01*
X175585476Y-45807380D02*
X176204523Y-45807380D01*
X175871190Y-46188333D01*
X176014047Y-46188333D01*
X176109285Y-46235952D01*
X176156904Y-46283571D01*
X176204523Y-46378809D01*
X176204523Y-46616904D01*
X176156904Y-46712142D01*
X176109285Y-46759761D01*
X176014047Y-46807380D01*
X175728333Y-46807380D01*
X175633095Y-46759761D01*
X175585476Y-46712142D01*
X177061666Y-46140714D02*
X177061666Y-46807380D01*
X176823571Y-45759761D02*
X176585476Y-46474047D01*
X177204523Y-46474047D01*
X178427142Y-46807380D02*
X178093809Y-46331190D01*
X177855714Y-46807380D02*
X177855714Y-45807380D01*
X178236666Y-45807380D01*
X178331904Y-45855000D01*
X178379523Y-45902619D01*
X178427142Y-45997857D01*
X178427142Y-46140714D01*
X178379523Y-46235952D01*
X178331904Y-46283571D01*
X178236666Y-46331190D01*
X177855714Y-46331190D01*
X178760476Y-45807380D02*
X179379523Y-45807380D01*
X179046190Y-46188333D01*
X179189047Y-46188333D01*
X179284285Y-46235952D01*
X179331904Y-46283571D01*
X179379523Y-46378809D01*
X179379523Y-46616904D01*
X179331904Y-46712142D01*
X179284285Y-46759761D01*
X179189047Y-46807380D01*
X178903333Y-46807380D01*
X178808095Y-46759761D01*
X178760476Y-46712142D01*
X180284285Y-45807380D02*
X179808095Y-45807380D01*
X179760476Y-46283571D01*
X179808095Y-46235952D01*
X179903333Y-46188333D01*
X180141428Y-46188333D01*
X180236666Y-46235952D01*
X180284285Y-46283571D01*
X180331904Y-46378809D01*
X180331904Y-46616904D01*
X180284285Y-46712142D01*
X180236666Y-46759761D01*
X180141428Y-46807380D01*
X179903333Y-46807380D01*
X179808095Y-46759761D01*
X179760476Y-46712142D01*
X180332142Y-73477380D02*
X179998809Y-73001190D01*
X179760714Y-73477380D02*
X179760714Y-72477380D01*
X180141666Y-72477380D01*
X180236904Y-72525000D01*
X180284523Y-72572619D01*
X180332142Y-72667857D01*
X180332142Y-72810714D01*
X180284523Y-72905952D01*
X180236904Y-72953571D01*
X180141666Y-73001190D01*
X179760714Y-73001190D01*
X180665476Y-72477380D02*
X181284523Y-72477380D01*
X180951190Y-72858333D01*
X181094047Y-72858333D01*
X181189285Y-72905952D01*
X181236904Y-72953571D01*
X181284523Y-73048809D01*
X181284523Y-73286904D01*
X181236904Y-73382142D01*
X181189285Y-73429761D01*
X181094047Y-73477380D01*
X180808333Y-73477380D01*
X180713095Y-73429761D01*
X180665476Y-73382142D01*
X182141666Y-72477380D02*
X181951190Y-72477380D01*
X181855952Y-72525000D01*
X181808333Y-72572619D01*
X181713095Y-72715476D01*
X181665476Y-72905952D01*
X181665476Y-73286904D01*
X181713095Y-73382142D01*
X181760714Y-73429761D01*
X181855952Y-73477380D01*
X182046428Y-73477380D01*
X182141666Y-73429761D01*
X182189285Y-73382142D01*
X182236904Y-73286904D01*
X182236904Y-73048809D01*
X182189285Y-72953571D01*
X182141666Y-72905952D01*
X182046428Y-72858333D01*
X181855952Y-72858333D01*
X181760714Y-72905952D01*
X181713095Y-72953571D01*
X181665476Y-73048809D01*
X183507142Y-73477380D02*
X183173809Y-73001190D01*
X182935714Y-73477380D02*
X182935714Y-72477380D01*
X183316666Y-72477380D01*
X183411904Y-72525000D01*
X183459523Y-72572619D01*
X183507142Y-72667857D01*
X183507142Y-72810714D01*
X183459523Y-72905952D01*
X183411904Y-72953571D01*
X183316666Y-73001190D01*
X182935714Y-73001190D01*
X183840476Y-72477380D02*
X184459523Y-72477380D01*
X184126190Y-72858333D01*
X184269047Y-72858333D01*
X184364285Y-72905952D01*
X184411904Y-72953571D01*
X184459523Y-73048809D01*
X184459523Y-73286904D01*
X184411904Y-73382142D01*
X184364285Y-73429761D01*
X184269047Y-73477380D01*
X183983333Y-73477380D01*
X183888095Y-73429761D01*
X183840476Y-73382142D01*
X184792857Y-72477380D02*
X185459523Y-72477380D01*
X185030952Y-73477380D01*
X176347380Y-62872857D02*
X175871190Y-63206190D01*
X176347380Y-63444285D02*
X175347380Y-63444285D01*
X175347380Y-63063333D01*
X175395000Y-62968095D01*
X175442619Y-62920476D01*
X175537857Y-62872857D01*
X175680714Y-62872857D01*
X175775952Y-62920476D01*
X175823571Y-62968095D01*
X175871190Y-63063333D01*
X175871190Y-63444285D01*
X175347380Y-62539523D02*
X175347380Y-61920476D01*
X175728333Y-62253809D01*
X175728333Y-62110952D01*
X175775952Y-62015714D01*
X175823571Y-61968095D01*
X175918809Y-61920476D01*
X176156904Y-61920476D01*
X176252142Y-61968095D01*
X176299761Y-62015714D01*
X176347380Y-62110952D01*
X176347380Y-62396666D01*
X176299761Y-62491904D01*
X176252142Y-62539523D01*
X175775952Y-61349047D02*
X175728333Y-61444285D01*
X175680714Y-61491904D01*
X175585476Y-61539523D01*
X175537857Y-61539523D01*
X175442619Y-61491904D01*
X175395000Y-61444285D01*
X175347380Y-61349047D01*
X175347380Y-61158571D01*
X175395000Y-61063333D01*
X175442619Y-61015714D01*
X175537857Y-60968095D01*
X175585476Y-60968095D01*
X175680714Y-61015714D01*
X175728333Y-61063333D01*
X175775952Y-61158571D01*
X175775952Y-61349047D01*
X175823571Y-61444285D01*
X175871190Y-61491904D01*
X175966428Y-61539523D01*
X176156904Y-61539523D01*
X176252142Y-61491904D01*
X176299761Y-61444285D01*
X176347380Y-61349047D01*
X176347380Y-61158571D01*
X176299761Y-61063333D01*
X176252142Y-61015714D01*
X176156904Y-60968095D01*
X175966428Y-60968095D01*
X175871190Y-61015714D01*
X175823571Y-61063333D01*
X175775952Y-61158571D01*
X181602142Y-46807380D02*
X181268809Y-46331190D01*
X181030714Y-46807380D02*
X181030714Y-45807380D01*
X181411666Y-45807380D01*
X181506904Y-45855000D01*
X181554523Y-45902619D01*
X181602142Y-45997857D01*
X181602142Y-46140714D01*
X181554523Y-46235952D01*
X181506904Y-46283571D01*
X181411666Y-46331190D01*
X181030714Y-46331190D01*
X181935476Y-45807380D02*
X182554523Y-45807380D01*
X182221190Y-46188333D01*
X182364047Y-46188333D01*
X182459285Y-46235952D01*
X182506904Y-46283571D01*
X182554523Y-46378809D01*
X182554523Y-46616904D01*
X182506904Y-46712142D01*
X182459285Y-46759761D01*
X182364047Y-46807380D01*
X182078333Y-46807380D01*
X181983095Y-46759761D01*
X181935476Y-46712142D01*
X183030714Y-46807380D02*
X183221190Y-46807380D01*
X183316428Y-46759761D01*
X183364047Y-46712142D01*
X183459285Y-46569285D01*
X183506904Y-46378809D01*
X183506904Y-45997857D01*
X183459285Y-45902619D01*
X183411666Y-45855000D01*
X183316428Y-45807380D01*
X183125952Y-45807380D01*
X183030714Y-45855000D01*
X182983095Y-45902619D01*
X182935476Y-45997857D01*
X182935476Y-46235952D01*
X182983095Y-46331190D01*
X183030714Y-46378809D01*
X183125952Y-46426428D01*
X183316428Y-46426428D01*
X183411666Y-46378809D01*
X183459285Y-46331190D01*
X183506904Y-46235952D01*
X184777142Y-117927380D02*
X184443809Y-117451190D01*
X184205714Y-117927380D02*
X184205714Y-116927380D01*
X184586666Y-116927380D01*
X184681904Y-116975000D01*
X184729523Y-117022619D01*
X184777142Y-117117857D01*
X184777142Y-117260714D01*
X184729523Y-117355952D01*
X184681904Y-117403571D01*
X184586666Y-117451190D01*
X184205714Y-117451190D01*
X185634285Y-117260714D02*
X185634285Y-117927380D01*
X185396190Y-116879761D02*
X185158095Y-117594047D01*
X185777142Y-117594047D01*
X186348571Y-116927380D02*
X186443809Y-116927380D01*
X186539047Y-116975000D01*
X186586666Y-117022619D01*
X186634285Y-117117857D01*
X186681904Y-117308333D01*
X186681904Y-117546428D01*
X186634285Y-117736904D01*
X186586666Y-117832142D01*
X186539047Y-117879761D01*
X186443809Y-117927380D01*
X186348571Y-117927380D01*
X186253333Y-117879761D01*
X186205714Y-117832142D01*
X186158095Y-117736904D01*
X186110476Y-117546428D01*
X186110476Y-117308333D01*
X186158095Y-117117857D01*
X186205714Y-117022619D01*
X186253333Y-116975000D01*
X186348571Y-116927380D01*
X184142142Y-102052380D02*
X183808809Y-101576190D01*
X183570714Y-102052380D02*
X183570714Y-101052380D01*
X183951666Y-101052380D01*
X184046904Y-101100000D01*
X184094523Y-101147619D01*
X184142142Y-101242857D01*
X184142142Y-101385714D01*
X184094523Y-101480952D01*
X184046904Y-101528571D01*
X183951666Y-101576190D01*
X183570714Y-101576190D01*
X184999285Y-101385714D02*
X184999285Y-102052380D01*
X184761190Y-101004761D02*
X184523095Y-101719047D01*
X185142142Y-101719047D01*
X186046904Y-102052380D02*
X185475476Y-102052380D01*
X185761190Y-102052380D02*
X185761190Y-101052380D01*
X185665952Y-101195238D01*
X185570714Y-101290476D01*
X185475476Y-101338095D01*
X184777142Y-46807380D02*
X184443809Y-46331190D01*
X184205714Y-46807380D02*
X184205714Y-45807380D01*
X184586666Y-45807380D01*
X184681904Y-45855000D01*
X184729523Y-45902619D01*
X184777142Y-45997857D01*
X184777142Y-46140714D01*
X184729523Y-46235952D01*
X184681904Y-46283571D01*
X184586666Y-46331190D01*
X184205714Y-46331190D01*
X185634285Y-46140714D02*
X185634285Y-46807380D01*
X185396190Y-45759761D02*
X185158095Y-46474047D01*
X185777142Y-46474047D01*
X186110476Y-45902619D02*
X186158095Y-45855000D01*
X186253333Y-45807380D01*
X186491428Y-45807380D01*
X186586666Y-45855000D01*
X186634285Y-45902619D01*
X186681904Y-45997857D01*
X186681904Y-46093095D01*
X186634285Y-46235952D01*
X186062857Y-46807380D01*
X186681904Y-46807380D01*
X187317142Y-102052380D02*
X186983809Y-101576190D01*
X186745714Y-102052380D02*
X186745714Y-101052380D01*
X187126666Y-101052380D01*
X187221904Y-101100000D01*
X187269523Y-101147619D01*
X187317142Y-101242857D01*
X187317142Y-101385714D01*
X187269523Y-101480952D01*
X187221904Y-101528571D01*
X187126666Y-101576190D01*
X186745714Y-101576190D01*
X188174285Y-101385714D02*
X188174285Y-102052380D01*
X187936190Y-101004761D02*
X187698095Y-101719047D01*
X188317142Y-101719047D01*
X188602857Y-101052380D02*
X189221904Y-101052380D01*
X188888571Y-101433333D01*
X189031428Y-101433333D01*
X189126666Y-101480952D01*
X189174285Y-101528571D01*
X189221904Y-101623809D01*
X189221904Y-101861904D01*
X189174285Y-101957142D01*
X189126666Y-102004761D01*
X189031428Y-102052380D01*
X188745714Y-102052380D01*
X188650476Y-102004761D01*
X188602857Y-101957142D01*
X185872380Y-95257857D02*
X185396190Y-95591190D01*
X185872380Y-95829285D02*
X184872380Y-95829285D01*
X184872380Y-95448333D01*
X184920000Y-95353095D01*
X184967619Y-95305476D01*
X185062857Y-95257857D01*
X185205714Y-95257857D01*
X185300952Y-95305476D01*
X185348571Y-95353095D01*
X185396190Y-95448333D01*
X185396190Y-95829285D01*
X185205714Y-94400714D02*
X185872380Y-94400714D01*
X184824761Y-94638809D02*
X185539047Y-94876904D01*
X185539047Y-94257857D01*
X185205714Y-93448333D02*
X185872380Y-93448333D01*
X184824761Y-93686428D02*
X185539047Y-93924523D01*
X185539047Y-93305476D01*
X187952142Y-46807380D02*
X187618809Y-46331190D01*
X187380714Y-46807380D02*
X187380714Y-45807380D01*
X187761666Y-45807380D01*
X187856904Y-45855000D01*
X187904523Y-45902619D01*
X187952142Y-45997857D01*
X187952142Y-46140714D01*
X187904523Y-46235952D01*
X187856904Y-46283571D01*
X187761666Y-46331190D01*
X187380714Y-46331190D01*
X188809285Y-46140714D02*
X188809285Y-46807380D01*
X188571190Y-45759761D02*
X188333095Y-46474047D01*
X188952142Y-46474047D01*
X189809285Y-45807380D02*
X189333095Y-45807380D01*
X189285476Y-46283571D01*
X189333095Y-46235952D01*
X189428333Y-46188333D01*
X189666428Y-46188333D01*
X189761666Y-46235952D01*
X189809285Y-46283571D01*
X189856904Y-46378809D01*
X189856904Y-46616904D01*
X189809285Y-46712142D01*
X189761666Y-46759761D01*
X189666428Y-46807380D01*
X189428333Y-46807380D01*
X189333095Y-46759761D01*
X189285476Y-46712142D01*
X190492142Y-102052380D02*
X190158809Y-101576190D01*
X189920714Y-102052380D02*
X189920714Y-101052380D01*
X190301666Y-101052380D01*
X190396904Y-101100000D01*
X190444523Y-101147619D01*
X190492142Y-101242857D01*
X190492142Y-101385714D01*
X190444523Y-101480952D01*
X190396904Y-101528571D01*
X190301666Y-101576190D01*
X189920714Y-101576190D01*
X191349285Y-101385714D02*
X191349285Y-102052380D01*
X191111190Y-101004761D02*
X190873095Y-101719047D01*
X191492142Y-101719047D01*
X192301666Y-101052380D02*
X192111190Y-101052380D01*
X192015952Y-101100000D01*
X191968333Y-101147619D01*
X191873095Y-101290476D01*
X191825476Y-101480952D01*
X191825476Y-101861904D01*
X191873095Y-101957142D01*
X191920714Y-102004761D01*
X192015952Y-102052380D01*
X192206428Y-102052380D01*
X192301666Y-102004761D01*
X192349285Y-101957142D01*
X192396904Y-101861904D01*
X192396904Y-101623809D01*
X192349285Y-101528571D01*
X192301666Y-101480952D01*
X192206428Y-101433333D01*
X192015952Y-101433333D01*
X191920714Y-101480952D01*
X191873095Y-101528571D01*
X191825476Y-101623809D01*
X194127380Y-95257857D02*
X193651190Y-95591190D01*
X194127380Y-95829285D02*
X193127380Y-95829285D01*
X193127380Y-95448333D01*
X193175000Y-95353095D01*
X193222619Y-95305476D01*
X193317857Y-95257857D01*
X193460714Y-95257857D01*
X193555952Y-95305476D01*
X193603571Y-95353095D01*
X193651190Y-95448333D01*
X193651190Y-95829285D01*
X193460714Y-94400714D02*
X194127380Y-94400714D01*
X193079761Y-94638809D02*
X193794047Y-94876904D01*
X193794047Y-94257857D01*
X193127380Y-93972142D02*
X193127380Y-93305476D01*
X194127380Y-93734047D01*
X192397142Y-73477380D02*
X192063809Y-73001190D01*
X191825714Y-73477380D02*
X191825714Y-72477380D01*
X192206666Y-72477380D01*
X192301904Y-72525000D01*
X192349523Y-72572619D01*
X192397142Y-72667857D01*
X192397142Y-72810714D01*
X192349523Y-72905952D01*
X192301904Y-72953571D01*
X192206666Y-73001190D01*
X191825714Y-73001190D01*
X193254285Y-72810714D02*
X193254285Y-73477380D01*
X193016190Y-72429761D02*
X192778095Y-73144047D01*
X193397142Y-73144047D01*
X193920952Y-72905952D02*
X193825714Y-72858333D01*
X193778095Y-72810714D01*
X193730476Y-72715476D01*
X193730476Y-72667857D01*
X193778095Y-72572619D01*
X193825714Y-72525000D01*
X193920952Y-72477380D01*
X194111428Y-72477380D01*
X194206666Y-72525000D01*
X194254285Y-72572619D01*
X194301904Y-72667857D01*
X194301904Y-72715476D01*
X194254285Y-72810714D01*
X194206666Y-72858333D01*
X194111428Y-72905952D01*
X193920952Y-72905952D01*
X193825714Y-72953571D01*
X193778095Y-73001190D01*
X193730476Y-73096428D01*
X193730476Y-73286904D01*
X193778095Y-73382142D01*
X193825714Y-73429761D01*
X193920952Y-73477380D01*
X194111428Y-73477380D01*
X194206666Y-73429761D01*
X194254285Y-73382142D01*
X194301904Y-73286904D01*
X194301904Y-73096428D01*
X194254285Y-73001190D01*
X194206666Y-72953571D01*
X194111428Y-72905952D01*
X203017380Y-73032857D02*
X202541190Y-73366190D01*
X203017380Y-73604285D02*
X202017380Y-73604285D01*
X202017380Y-73223333D01*
X202065000Y-73128095D01*
X202112619Y-73080476D01*
X202207857Y-73032857D01*
X202350714Y-73032857D01*
X202445952Y-73080476D01*
X202493571Y-73128095D01*
X202541190Y-73223333D01*
X202541190Y-73604285D01*
X202350714Y-72175714D02*
X203017380Y-72175714D01*
X201969761Y-72413809D02*
X202684047Y-72651904D01*
X202684047Y-72032857D01*
X203017380Y-71604285D02*
X203017380Y-71413809D01*
X202969761Y-71318571D01*
X202922142Y-71270952D01*
X202779285Y-71175714D01*
X202588809Y-71128095D01*
X202207857Y-71128095D01*
X202112619Y-71175714D01*
X202065000Y-71223333D01*
X202017380Y-71318571D01*
X202017380Y-71509047D01*
X202065000Y-71604285D01*
X202112619Y-71651904D01*
X202207857Y-71699523D01*
X202445952Y-71699523D01*
X202541190Y-71651904D01*
X202588809Y-71604285D01*
X202636428Y-71509047D01*
X202636428Y-71318571D01*
X202588809Y-71223333D01*
X202541190Y-71175714D01*
X202445952Y-71128095D01*
X203017380Y-45092857D02*
X202541190Y-45426190D01*
X203017380Y-45664285D02*
X202017380Y-45664285D01*
X202017380Y-45283333D01*
X202065000Y-45188095D01*
X202112619Y-45140476D01*
X202207857Y-45092857D01*
X202350714Y-45092857D01*
X202445952Y-45140476D01*
X202493571Y-45188095D01*
X202541190Y-45283333D01*
X202541190Y-45664285D01*
X202017380Y-44188095D02*
X202017380Y-44664285D01*
X202493571Y-44711904D01*
X202445952Y-44664285D01*
X202398333Y-44569047D01*
X202398333Y-44330952D01*
X202445952Y-44235714D01*
X202493571Y-44188095D01*
X202588809Y-44140476D01*
X202826904Y-44140476D01*
X202922142Y-44188095D01*
X202969761Y-44235714D01*
X203017380Y-44330952D01*
X203017380Y-44569047D01*
X202969761Y-44664285D01*
X202922142Y-44711904D01*
X202017380Y-43521428D02*
X202017380Y-43426190D01*
X202065000Y-43330952D01*
X202112619Y-43283333D01*
X202207857Y-43235714D01*
X202398333Y-43188095D01*
X202636428Y-43188095D01*
X202826904Y-43235714D01*
X202922142Y-43283333D01*
X202969761Y-43330952D01*
X203017380Y-43426190D01*
X203017380Y-43521428D01*
X202969761Y-43616666D01*
X202922142Y-43664285D01*
X202826904Y-43711904D01*
X202636428Y-43759523D01*
X202398333Y-43759523D01*
X202207857Y-43711904D01*
X202112619Y-43664285D01*
X202065000Y-43616666D01*
X202017380Y-43521428D01*
X118014761Y-65952619D02*
X117919523Y-65905000D01*
X117824285Y-65809761D01*
X117681428Y-65666904D01*
X117586190Y-65619285D01*
X117490952Y-65619285D01*
X117538571Y-65857380D02*
X117443333Y-65809761D01*
X117348095Y-65714523D01*
X117300476Y-65524047D01*
X117300476Y-65190714D01*
X117348095Y-65000238D01*
X117443333Y-64905000D01*
X117538571Y-64857380D01*
X117729047Y-64857380D01*
X117824285Y-64905000D01*
X117919523Y-65000238D01*
X117967142Y-65190714D01*
X117967142Y-65524047D01*
X117919523Y-65714523D01*
X117824285Y-65809761D01*
X117729047Y-65857380D01*
X117538571Y-65857380D01*
X118871904Y-64857380D02*
X118395714Y-64857380D01*
X118348095Y-65333571D01*
X118395714Y-65285952D01*
X118490952Y-65238333D01*
X118729047Y-65238333D01*
X118824285Y-65285952D01*
X118871904Y-65333571D01*
X118919523Y-65428809D01*
X118919523Y-65666904D01*
X118871904Y-65762142D01*
X118824285Y-65809761D01*
X118729047Y-65857380D01*
X118490952Y-65857380D01*
X118395714Y-65809761D01*
X118348095Y-65762142D01*
X186753571Y-65952619D02*
X186658333Y-65905000D01*
X186563095Y-65809761D01*
X186420238Y-65666904D01*
X186325000Y-65619285D01*
X186229761Y-65619285D01*
X186277380Y-65857380D02*
X186182142Y-65809761D01*
X186086904Y-65714523D01*
X186039285Y-65524047D01*
X186039285Y-65190714D01*
X186086904Y-65000238D01*
X186182142Y-64905000D01*
X186277380Y-64857380D01*
X186467857Y-64857380D01*
X186563095Y-64905000D01*
X186658333Y-65000238D01*
X186705952Y-65190714D01*
X186705952Y-65524047D01*
X186658333Y-65714523D01*
X186563095Y-65809761D01*
X186467857Y-65857380D01*
X186277380Y-65857380D01*
X187658333Y-65857380D02*
X187086904Y-65857380D01*
X187372619Y-65857380D02*
X187372619Y-64857380D01*
X187277380Y-65000238D01*
X187182142Y-65095476D01*
X187086904Y-65143095D01*
X188277380Y-64857380D02*
X188372619Y-64857380D01*
X188467857Y-64905000D01*
X188515476Y-64952619D01*
X188563095Y-65047857D01*
X188610714Y-65238333D01*
X188610714Y-65476428D01*
X188563095Y-65666904D01*
X188515476Y-65762142D01*
X188467857Y-65809761D01*
X188372619Y-65857380D01*
X188277380Y-65857380D01*
X188182142Y-65809761D01*
X188134523Y-65762142D01*
X188086904Y-65666904D01*
X188039285Y-65476428D01*
X188039285Y-65238333D01*
X188086904Y-65047857D01*
X188134523Y-64952619D01*
X188182142Y-64905000D01*
X188277380Y-64857380D01*
X119213333Y-75287142D02*
X119165714Y-75334761D01*
X119022857Y-75382380D01*
X118927619Y-75382380D01*
X118784761Y-75334761D01*
X118689523Y-75239523D01*
X118641904Y-75144285D01*
X118594285Y-74953809D01*
X118594285Y-74810952D01*
X118641904Y-74620476D01*
X118689523Y-74525238D01*
X118784761Y-74430000D01*
X118927619Y-74382380D01*
X119022857Y-74382380D01*
X119165714Y-74430000D01*
X119213333Y-74477619D01*
X119784761Y-74810952D02*
X119689523Y-74763333D01*
X119641904Y-74715714D01*
X119594285Y-74620476D01*
X119594285Y-74572857D01*
X119641904Y-74477619D01*
X119689523Y-74430000D01*
X119784761Y-74382380D01*
X119975238Y-74382380D01*
X120070476Y-74430000D01*
X120118095Y-74477619D01*
X120165714Y-74572857D01*
X120165714Y-74620476D01*
X120118095Y-74715714D01*
X120070476Y-74763333D01*
X119975238Y-74810952D01*
X119784761Y-74810952D01*
X119689523Y-74858571D01*
X119641904Y-74906190D01*
X119594285Y-75001428D01*
X119594285Y-75191904D01*
X119641904Y-75287142D01*
X119689523Y-75334761D01*
X119784761Y-75382380D01*
X119975238Y-75382380D01*
X120070476Y-75334761D01*
X120118095Y-75287142D01*
X120165714Y-75191904D01*
X120165714Y-75001428D01*
X120118095Y-74906190D01*
X120070476Y-74858571D01*
X119975238Y-74810952D01*
X187952142Y-75287142D02*
X187904523Y-75334761D01*
X187761666Y-75382380D01*
X187666428Y-75382380D01*
X187523571Y-75334761D01*
X187428333Y-75239523D01*
X187380714Y-75144285D01*
X187333095Y-74953809D01*
X187333095Y-74810952D01*
X187380714Y-74620476D01*
X187428333Y-74525238D01*
X187523571Y-74430000D01*
X187666428Y-74382380D01*
X187761666Y-74382380D01*
X187904523Y-74430000D01*
X187952142Y-74477619D01*
X188904523Y-75382380D02*
X188333095Y-75382380D01*
X188618809Y-75382380D02*
X188618809Y-74382380D01*
X188523571Y-74525238D01*
X188428333Y-74620476D01*
X188333095Y-74668095D01*
X189380714Y-75382380D02*
X189571190Y-75382380D01*
X189666428Y-75334761D01*
X189714047Y-75287142D01*
X189809285Y-75144285D01*
X189856904Y-74953809D01*
X189856904Y-74572857D01*
X189809285Y-74477619D01*
X189761666Y-74430000D01*
X189666428Y-74382380D01*
X189475952Y-74382380D01*
X189380714Y-74430000D01*
X189333095Y-74477619D01*
X189285476Y-74572857D01*
X189285476Y-74810952D01*
X189333095Y-74906190D01*
X189380714Y-74953809D01*
X189475952Y-75001428D01*
X189666428Y-75001428D01*
X189761666Y-74953809D01*
X189809285Y-74906190D01*
X189856904Y-74810952D01*
X91202142Y-99901666D02*
X91249761Y-99949285D01*
X91297380Y-100092142D01*
X91297380Y-100187380D01*
X91249761Y-100330238D01*
X91154523Y-100425476D01*
X91059285Y-100473095D01*
X90868809Y-100520714D01*
X90725952Y-100520714D01*
X90535476Y-100473095D01*
X90440238Y-100425476D01*
X90345000Y-100330238D01*
X90297380Y-100187380D01*
X90297380Y-100092142D01*
X90345000Y-99949285D01*
X90392619Y-99901666D01*
X91297380Y-98949285D02*
X91297380Y-99520714D01*
X91297380Y-99235000D02*
X90297380Y-99235000D01*
X90440238Y-99330238D01*
X90535476Y-99425476D01*
X90583095Y-99520714D01*
X91162142Y-91606666D02*
X91209761Y-91654285D01*
X91257380Y-91797142D01*
X91257380Y-91892380D01*
X91209761Y-92035238D01*
X91114523Y-92130476D01*
X91019285Y-92178095D01*
X90828809Y-92225714D01*
X90685952Y-92225714D01*
X90495476Y-92178095D01*
X90400238Y-92130476D01*
X90305000Y-92035238D01*
X90257380Y-91892380D01*
X90257380Y-91797142D01*
X90305000Y-91654285D01*
X90352619Y-91606666D01*
X90352619Y-91225714D02*
X90305000Y-91178095D01*
X90257380Y-91082857D01*
X90257380Y-90844761D01*
X90305000Y-90749523D01*
X90352619Y-90701904D01*
X90447857Y-90654285D01*
X90543095Y-90654285D01*
X90685952Y-90701904D01*
X91257380Y-91273333D01*
X91257380Y-90654285D01*
X159782142Y-80851666D02*
X159829761Y-80899285D01*
X159877380Y-81042142D01*
X159877380Y-81137380D01*
X159829761Y-81280238D01*
X159734523Y-81375476D01*
X159639285Y-81423095D01*
X159448809Y-81470714D01*
X159305952Y-81470714D01*
X159115476Y-81423095D01*
X159020238Y-81375476D01*
X158925000Y-81280238D01*
X158877380Y-81137380D01*
X158877380Y-81042142D01*
X158925000Y-80899285D01*
X158972619Y-80851666D01*
X159877380Y-80375476D02*
X159877380Y-80185000D01*
X159829761Y-80089761D01*
X159782142Y-80042142D01*
X159639285Y-79946904D01*
X159448809Y-79899285D01*
X159067857Y-79899285D01*
X158972619Y-79946904D01*
X158925000Y-79994523D01*
X158877380Y-80089761D01*
X158877380Y-80280238D01*
X158925000Y-80375476D01*
X158972619Y-80423095D01*
X159067857Y-80470714D01*
X159305952Y-80470714D01*
X159401190Y-80423095D01*
X159448809Y-80375476D01*
X159496428Y-80280238D01*
X159496428Y-80089761D01*
X159448809Y-79994523D01*
X159401190Y-79946904D01*
X159305952Y-79899285D01*
X159782142Y-72437857D02*
X159829761Y-72485476D01*
X159877380Y-72628333D01*
X159877380Y-72723571D01*
X159829761Y-72866428D01*
X159734523Y-72961666D01*
X159639285Y-73009285D01*
X159448809Y-73056904D01*
X159305952Y-73056904D01*
X159115476Y-73009285D01*
X159020238Y-72961666D01*
X158925000Y-72866428D01*
X158877380Y-72723571D01*
X158877380Y-72628333D01*
X158925000Y-72485476D01*
X158972619Y-72437857D01*
X159877380Y-71485476D02*
X159877380Y-72056904D01*
X159877380Y-71771190D02*
X158877380Y-71771190D01*
X159020238Y-71866428D01*
X159115476Y-71961666D01*
X159163095Y-72056904D01*
X158877380Y-70866428D02*
X158877380Y-70771190D01*
X158925000Y-70675952D01*
X158972619Y-70628333D01*
X159067857Y-70580714D01*
X159258333Y-70533095D01*
X159496428Y-70533095D01*
X159686904Y-70580714D01*
X159782142Y-70628333D01*
X159829761Y-70675952D01*
X159877380Y-70771190D01*
X159877380Y-70866428D01*
X159829761Y-70961666D01*
X159782142Y-71009285D01*
X159686904Y-71056904D01*
X159496428Y-71104523D01*
X159258333Y-71104523D01*
X159067857Y-71056904D01*
X158972619Y-71009285D01*
X158925000Y-70961666D01*
X158877380Y-70866428D01*
X160417142Y-100377857D02*
X160464761Y-100425476D01*
X160512380Y-100568333D01*
X160512380Y-100663571D01*
X160464761Y-100806428D01*
X160369523Y-100901666D01*
X160274285Y-100949285D01*
X160083809Y-100996904D01*
X159940952Y-100996904D01*
X159750476Y-100949285D01*
X159655238Y-100901666D01*
X159560000Y-100806428D01*
X159512380Y-100663571D01*
X159512380Y-100568333D01*
X159560000Y-100425476D01*
X159607619Y-100377857D01*
X160512380Y-99425476D02*
X160512380Y-99996904D01*
X160512380Y-99711190D02*
X159512380Y-99711190D01*
X159655238Y-99806428D01*
X159750476Y-99901666D01*
X159798095Y-99996904D01*
X160512380Y-98473095D02*
X160512380Y-99044523D01*
X160512380Y-98758809D02*
X159512380Y-98758809D01*
X159655238Y-98854047D01*
X159750476Y-98949285D01*
X159798095Y-99044523D01*
X160377142Y-92042857D02*
X160424761Y-92090476D01*
X160472380Y-92233333D01*
X160472380Y-92328571D01*
X160424761Y-92471428D01*
X160329523Y-92566666D01*
X160234285Y-92614285D01*
X160043809Y-92661904D01*
X159900952Y-92661904D01*
X159710476Y-92614285D01*
X159615238Y-92566666D01*
X159520000Y-92471428D01*
X159472380Y-92328571D01*
X159472380Y-92233333D01*
X159520000Y-92090476D01*
X159567619Y-92042857D01*
X160472380Y-91090476D02*
X160472380Y-91661904D01*
X160472380Y-91376190D02*
X159472380Y-91376190D01*
X159615238Y-91471428D01*
X159710476Y-91566666D01*
X159758095Y-91661904D01*
X159567619Y-90709523D02*
X159520000Y-90661904D01*
X159472380Y-90566666D01*
X159472380Y-90328571D01*
X159520000Y-90233333D01*
X159567619Y-90185714D01*
X159662857Y-90138095D01*
X159758095Y-90138095D01*
X159900952Y-90185714D01*
X160472380Y-90757142D01*
X160472380Y-90138095D01*
X165092142Y-49252142D02*
X165044523Y-49299761D01*
X164901666Y-49347380D01*
X164806428Y-49347380D01*
X164663571Y-49299761D01*
X164568333Y-49204523D01*
X164520714Y-49109285D01*
X164473095Y-48918809D01*
X164473095Y-48775952D01*
X164520714Y-48585476D01*
X164568333Y-48490238D01*
X164663571Y-48395000D01*
X164806428Y-48347380D01*
X164901666Y-48347380D01*
X165044523Y-48395000D01*
X165092142Y-48442619D01*
X166044523Y-49347380D02*
X165473095Y-49347380D01*
X165758809Y-49347380D02*
X165758809Y-48347380D01*
X165663571Y-48490238D01*
X165568333Y-48585476D01*
X165473095Y-48633095D01*
X166901666Y-48680714D02*
X166901666Y-49347380D01*
X166663571Y-48299761D02*
X166425476Y-49014047D01*
X167044523Y-49014047D01*
M02*
